<svg width="127" height="145" viewBox="0 0 127 145" fill="none" xmlns="http://www.w3.org/2000/svg">
<path d="M72.5012 31.8198C66.6828 29.3301 60.2804 28.6787 54.1037 29.9479C47.9269 31.2172 42.2532 34.3501 37.8 38.9505C33.3468 43.5509 30.3141 49.4122 29.0855 55.7932C27.8568 62.1741 28.4874 68.7882 30.8975 74.7989C33.3075 80.8096 37.3888 85.9471 42.6252 89.5616C47.8616 93.1761 54.018 95.1054 60.3158 95.1054" stroke="#9F895B" stroke-width="6" stroke-linecap="round" stroke-linejoin="round"/>
<path d="M53.9475 3H66.6844M60.3159 29.3158V3V29.3158Z" stroke="#9F895B" stroke-width="6" stroke-linecap="round" stroke-linejoin="round"/>
<path d="M66.6844 121.421H53.9475M60.3159 95.1052V121.421V95.1052Z" stroke="#9F895B" stroke-width="6" stroke-linecap="round" stroke-linejoin="round"/>
<path d="M24.2894 108.73L15.2908 99.4276M37.7968 85.4736L19.7869 104.079L37.7968 85.4736Z" stroke="#9F895B" stroke-width="6" stroke-linecap="round" stroke-linejoin="round"/>
<path d="M3 68.7895V55.6316M28.4737 62.2105H3H28.4737Z" stroke="#9F895B" stroke-width="6" stroke-linecap="round" stroke-linejoin="round"/>
<path d="M15.2844 24.9937L24.2894 15.6977M37.7968 38.9477L19.7869 20.3424L37.7968 38.9477Z" stroke="#9F895B" stroke-width="6" stroke-linecap="round" stroke-linejoin="round"/>
<path d="M95.3422 127.895C104.135 127.895 111.263 120.531 111.263 111.447C111.263 102.364 104.135 95 95.3422 95C86.5492 95 79.4211 102.364 79.4211 111.447C79.4211 120.531 86.5492 127.895 95.3422 127.895Z" stroke="#9F895B" stroke-width="6" stroke-linecap="round" stroke-linejoin="round"/>
<path d="M108.079 124.605L124 141.053" stroke="#9F895B" stroke-width="6" stroke-linecap="round" stroke-linejoin="round"/>
</svg>
