<svg width="60" height="60" viewBox="0 0 60 60" fill="none" xmlns="http://www.w3.org/2000/svg">
<path fill-rule="evenodd" clip-rule="evenodd" d="M30 3.75C23.0381 3.75 16.3613 6.51561 11.4385 11.4384C6.51562 16.3613 3.75 23.0381 3.75 30C3.75 36.9619 6.51562 43.6387 11.4385 48.5615C16.3613 53.4844 23.0381 56.25 30 56.25C36.9619 56.25 43.6387 53.4844 48.5616 48.5616C53.4844 43.6387 56.25 36.9619 56.25 30C56.25 23.0381 53.4844 16.3613 48.5616 11.4384C43.6387 6.51562 36.9619 3.75 30 3.75ZM30 -2.62268e-06C22.0435 -3.31826e-06 14.4129 3.1607 8.7868 8.78679C3.16071 14.4129 3.31826e-06 22.0435 2.62268e-06 30C1.9271e-06 37.9565 3.16071 45.5871 8.7868 51.2132C14.4129 56.8393 22.0435 60 30 60C37.9565 60 45.5871 56.8393 51.2132 51.2132C56.8393 45.5871 60 37.9565 60 30C60 22.0435 56.8393 14.4129 51.2132 8.7868C45.5871 3.1607 37.9565 -1.9271e-06 30 -2.62268e-06Z" fill="#93D5F6"/>
<path fill-rule="evenodd" clip-rule="evenodd" d="M42.5776 28.6726C42.4034 28.498 42.1965 28.3594 41.9687 28.2649C41.7409 28.1704 41.4967 28.1217 41.2501 28.1217C41.0034 28.1217 40.7592 28.1704 40.5314 28.2649C40.3036 28.3594 40.0967 28.498 39.9226 28.6726L30.0001 38.5988L20.0776 28.6726C19.7255 28.3205 19.248 28.1227 18.7501 28.1227C18.2522 28.1227 17.7746 28.3205 17.4226 28.6726C17.0705 29.0246 16.8727 29.5022 16.8727 30.0001C16.8727 30.498 17.0705 30.9755 17.4226 31.3276L28.6726 42.5776C28.8467 42.7522 29.0536 42.8907 29.2814 42.9852C29.5092 43.0798 29.7534 43.1284 30.0001 43.1284C30.2467 43.1284 30.4909 43.0798 30.7187 42.9852C30.9465 42.8907 31.1534 42.7522 31.3276 42.5776L42.5776 31.3276C42.7522 31.1534 42.8907 30.9465 42.9852 30.7187C43.0798 30.4909 43.1284 30.2467 43.1284 30.0001C43.1284 29.7534 43.0798 29.5092 42.9852 29.2814C42.8907 29.0536 42.7522 28.8467 42.5776 28.6726Z" fill="#93D5F6"/>
<path fill-rule="evenodd" clip-rule="evenodd" d="M30 16.875C29.5027 16.875 29.0258 17.0725 28.6742 17.4242C28.3225 17.7758 28.125 18.2527 28.125 18.75L28.125 37.5C28.125 37.9973 28.3225 38.4742 28.6742 38.8258C29.0258 39.1775 29.5027 39.375 30 39.375C30.4973 39.375 30.9742 39.1775 31.3258 38.8258C31.6775 38.4742 31.875 37.9973 31.875 37.5L31.875 18.75C31.875 18.2527 31.6775 17.7758 31.3258 17.4242C30.9742 17.0725 30.4973 16.875 30 16.875Z" fill="#93D5F6"/>
</svg>
