<svg width="216" height="170" viewBox="0 0 216 170" fill="none" xmlns="http://www.w3.org/2000/svg">
<g clip-path="url(#clip0)">
<path d="M127.246 165.186C128.336 164.461 129.218 163.529 129.893 162.494C130.204 162.028 130.412 161.614 130.619 161.2C133.007 155.92 135.031 134.644 134.824 129.726C134.72 127.138 134.356 125.068 133.734 123.256C133.422 122.428 133.059 121.599 132.644 120.771L132.592 120.719C132.332 120.305 131.969 119.736 131.606 119.218C131.242 118.752 130.827 118.338 130.412 117.924C132.488 116.785 134.201 114.973 135.083 112.903C137.315 107.467 138.612 85.5705 138.249 80.5492C138.093 78.3233 137.574 71.5938 132.332 67.8667C132.125 67.7114 131.917 67.5561 131.657 67.4526C132.747 66.5208 133.63 65.3302 134.149 64.0878C136.225 59.0666 137.419 38.9298 137.055 34.2709C136.9 32.2003 136.433 25.9366 131.554 22.4683C130.619 21.7954 129.581 21.3295 128.491 21.0189C123.664 19.7248 119.356 21.7436 117.436 26.1955C115.879 29.7155 115.775 33.805 115.671 37.3768C115.671 38.2051 115.619 38.9815 115.567 39.758C115.464 41.4663 115.464 43.2263 115.464 44.9863C115.464 49.9041 115.775 54.8218 116.45 59.6877C116.813 62.4831 117.384 65.3819 119.772 67.6596C119.824 67.7114 119.875 67.7632 119.979 67.8149C119.097 68.4879 118.422 69.3679 118.007 70.455C115.983 75.6833 115.152 83.7587 115.152 91.9894C115.152 97.6319 115.567 103.326 116.242 108.244C116.606 110.884 117.125 113.627 118.993 115.905C117.332 116.63 116.035 117.82 115.36 119.322C113.388 123.981 112.765 129.002 112.142 133.816C112.09 134.385 111.986 134.903 111.934 135.472C111.363 139.821 111.104 144.169 111.104 148.569C111.104 150.795 111.156 153.073 111.311 155.299C111.415 157.11 111.623 159.026 112.453 160.941C113.803 164.047 116.502 166.169 119.824 166.739C122.263 167.205 124.806 166.739 126.882 165.496C126.986 165.393 127.142 165.289 127.246 165.186ZM122.574 64.6572C121.173 63.3113 120.81 61.3442 120.498 59.1183C119.616 52.7512 119.356 46.3322 119.668 39.9651C119.72 39.1368 119.72 38.3086 119.772 37.4803C119.875 34.1156 119.979 30.5955 121.173 27.8002C122.678 24.3319 125.689 24.539 127.35 25.0048C127.972 25.1601 128.595 25.4707 129.114 25.8331C131.346 27.4378 132.592 30.2332 132.903 34.5815C132.955 35.2027 132.955 36.0309 132.955 36.9627C132.955 44.0546 131.657 59.0666 130.256 62.5348C129.633 64.036 127.92 65.3819 126.208 65.7443C124.806 66.0031 123.561 65.6408 122.574 64.6572ZM120.239 107.623C118.37 94.1118 119.045 79.048 121.796 71.9044C122.367 70.3514 125.325 69.6267 127.92 70.2997C128.647 70.5067 129.322 70.8173 129.893 71.2315C132.384 72.9915 133.734 76.0974 134.097 80.8598C134.512 86.0364 133.111 106.794 131.242 111.35C130.567 113.058 128.647 114.559 126.727 114.973C125.17 115.284 123.768 114.922 122.574 113.783C120.965 112.282 120.602 110.107 120.239 107.623ZM120.446 162.649C118.474 162.287 116.917 161.096 116.138 159.285C115.567 157.99 115.464 156.541 115.36 155.04C114.945 148.724 115.152 142.306 115.931 136.042C115.983 135.472 116.087 134.903 116.138 134.385C116.709 129.83 117.28 125.119 119.045 120.978C119.512 119.891 121.121 119.373 122.471 119.322C123.301 119.27 124.235 119.373 125.066 119.632C125.741 119.839 126.363 120.15 126.934 120.564C127.453 120.978 127.92 121.392 128.284 121.91C128.543 122.22 128.803 122.635 129.01 122.945C129.322 123.515 129.581 124.084 129.789 124.705C130.308 126.155 130.567 127.863 130.671 130.037C130.879 135.058 128.803 155.299 126.83 159.647L126.83 159.699C126.779 159.854 126.623 160.113 126.415 160.372C126.052 160.993 125.533 161.459 124.962 161.873L124.754 162.028C123.509 162.649 121.952 162.908 120.446 162.649Z" fill="#9F895B"/>
<path d="M153.353 22.52C152.834 23.2965 152.367 24.1248 152.055 24.953C151.848 25.5224 151.692 26.1436 151.588 26.6095L151.588 26.6613C151.433 27.4895 151.329 28.3695 151.277 29.1978C151.277 29.4566 151.277 29.6637 151.277 29.9225C151.277 31.579 151.484 33.4426 152.003 35.6167C153.041 40.4309 159.945 60.5677 163.163 65.2266C163.422 65.5889 163.682 65.9513 163.993 66.3137C164.824 67.2454 165.81 67.9702 166.9 68.4878C167.003 68.5396 167.159 68.6431 167.367 68.6949C169.495 69.5749 171.882 69.5231 173.855 68.6431C176.606 67.4007 178.422 64.8125 178.785 61.4995C178.993 59.5841 178.682 57.6688 178.318 55.9088C177.073 49.4899 175.256 43.0709 172.972 36.9108C172.765 36.3932 172.609 35.8755 172.401 35.3579C170.689 30.7508 168.976 26.0401 166.173 21.8988C164.72 19.7247 162.125 18.6894 159.27 19.0517C158.076 19.207 156.83 19.6212 155.74 20.2941C154.806 20.9153 154.028 21.64 153.353 22.52ZM162.747 24.2283C165.239 27.9554 166.9 32.459 168.509 36.8073C168.716 37.325 168.924 37.8426 169.08 38.412C171.311 44.3651 173.024 50.5769 174.27 56.7888C174.581 58.29 174.841 59.7912 174.685 61.1371C174.477 63.0007 173.595 64.3466 172.194 64.9678C171.208 65.4337 170.014 65.4337 168.924 64.9678L168.716 64.8642C168.145 64.6054 167.626 64.1913 167.107 63.6219C166.9 63.4148 166.744 63.2077 166.64 63.0524L166.64 63.0007C163.941 59.1183 157.194 39.758 156.104 34.8402C155.637 32.7178 155.429 31.0096 155.481 29.4566C155.481 28.8354 155.585 28.2142 155.689 27.5931C155.792 27.2307 155.896 26.8166 156 26.4542C156.208 25.9366 156.415 25.4707 156.779 25.0048C157.09 24.5389 157.505 24.1765 157.92 23.9177C158.491 23.5553 159.166 23.3483 159.789 23.2448C160.412 23.0895 161.917 23.0377 162.747 24.2283Z" fill="#9F895B"/>
<path d="M186.208 169.431C188.907 168.447 191.138 166.376 191.917 164.099C193.422 159.647 192.332 143.185 191.398 139.303C190.308 134.644 188.076 131.642 184.495 130.037C183.561 129.623 182.522 129.312 181.484 129.157C178.63 128.743 175.931 129.312 174.062 130.762C172.142 132.211 171.052 134.644 170.844 137.75C170.74 138.992 170.74 140.287 170.74 141.581C170.74 148.207 171.882 155.195 174.114 162.339C174.633 164.047 175.516 166.894 178.37 168.654C180.706 170.155 183.509 170.414 186.208 169.431ZM180.55 165.186C179.097 164.306 178.578 162.908 178.059 161.148C175.567 153.073 174.529 145.308 174.997 138.061C175.048 136.974 175.36 135.058 176.606 134.075C177.54 133.35 179.201 133.039 180.862 133.298C181.536 133.402 182.211 133.609 182.782 133.816C185.118 134.851 186.519 136.818 187.298 140.235C187.92 142.875 188.439 150.226 188.439 155.92C188.439 159.026 188.284 161.666 187.92 162.805C187.609 163.685 186.519 164.927 184.754 165.548C183.716 165.911 182.159 166.169 180.55 165.186Z" fill="#9F895B"/>
<path d="M196.9 39.3955C196.588 39.8097 196.277 40.172 195.965 40.5344C190.412 47.1086 186.208 54.4075 182.211 61.4994C181.017 63.57 179.564 66.1583 179.564 69.0572C179.564 69.2125 179.564 69.3678 179.564 69.5748C179.616 70.8172 180.031 71.9561 180.654 72.9396C179.979 73.1467 179.304 73.4055 178.682 73.7161C175.464 75.4761 173.958 79.4103 172.868 82.3092C172.713 82.775 172.505 83.1892 172.349 83.6033C169.235 91.2646 167.73 99.34 166.277 107.105C166.017 108.451 165.758 109.952 165.758 111.505C165.758 112.799 165.965 114.145 166.536 115.491C167.574 117.872 169.754 119.529 172.505 120.098C175.567 120.719 178.837 119.839 180.965 117.82C183.093 115.801 184.028 113.161 184.806 111.039C187.246 104.309 189.166 97.4247 190.464 90.6434C190.567 89.9704 190.775 89.194 190.983 88.4175C191.865 84.6386 192.955 79.9797 190.775 76.3561C191.346 76.2008 191.917 75.942 192.436 75.6832C195.083 74.3373 196.848 72.0596 198.301 70.2478C203.024 64.3465 207.125 58.29 210.654 52.1299C211.017 51.5087 211.432 50.8357 211.9 50.111C214.131 46.591 216.882 42.2427 215.689 38.0496C214.599 34.219 209.564 31.6825 205.152 32.7696C201.623 33.6496 198.976 36.8073 196.9 39.3955ZM187.142 78.2714C187.713 79.0997 187.972 80.2385 187.972 81.4291C187.972 83.3445 187.453 85.5186 186.986 87.3822C186.779 88.2104 186.571 89.0387 186.467 89.8152C185.221 96.3894 183.405 103.015 181.017 109.59C180.343 111.505 179.616 113.42 178.215 114.766C177.073 115.853 175.204 116.319 173.439 116.008C171.986 115.698 170.896 114.921 170.429 113.834C169.65 112.074 170.066 109.848 170.429 107.881C171.83 100.324 173.284 92.507 176.242 85.208C176.398 84.7939 176.606 84.328 176.813 83.8104C177.747 81.4291 178.889 78.4267 180.758 77.3914C182.782 76.1491 186.052 76.6667 187.142 78.2714ZM211.744 39.1367C211.796 39.4473 211.848 39.7579 211.848 40.0685C211.848 42.3979 209.979 45.4003 208.422 47.8851C207.955 48.6616 207.488 49.3863 207.073 50.0592C203.647 56.064 199.599 61.9653 195.135 67.6595C193.837 69.316 192.436 71.0243 190.619 72.0078C189.062 72.8361 187.038 72.7843 185.533 71.9043C184.91 71.5419 183.82 70.7137 183.768 69.316C183.664 67.4525 184.806 65.3818 185.844 63.57C189.789 56.6335 193.837 49.4898 199.131 43.278C199.443 42.9156 199.754 42.5015 200.118 42.0874C201.83 40.0167 203.958 37.3767 206.19 36.859C208.37 36.2379 211.225 37.4285 211.744 39.1367Z" fill="#9F895B"/>
</g>
<g clip-path="url(#clip1)">
<path d="M102.952 46.2399C102.71 45.1769 101.694 44.5488 100.631 44.7904C98.793 45.1769 96.9555 45.2735 95.1179 45.0319C93.1836 44.7904 91.2494 44.1622 89.6536 43.5824C89.2184 43.4375 88.7348 43.2442 88.2996 43.0992C86.7522 42.5194 85.1081 41.9396 83.2705 41.5048C82.6419 41.3598 81.9649 41.2149 81.1912 41.1182C80.6109 41.0216 79.9822 41.0216 79.402 41.0216C78.8217 36.5764 77.0808 32.711 74.0344 29.0872C72.4869 27.2511 70.6494 25.6566 68.6184 24.4004C68.9569 24.1588 69.2954 23.9172 69.6339 23.6756C70.9395 22.8059 72.2451 22.0811 73.5024 21.308C74.0344 20.9698 74.5663 20.6799 75.0982 20.39C76.8874 19.327 78.725 18.1674 80.4174 16.7662C82.5452 14.9785 83.8991 13.239 84.6729 11.258C85.0597 10.2433 84.5761 9.13204 83.5606 8.74549C82.5452 8.35895 81.4329 8.84213 81.0461 9.8568C80.5142 11.2097 79.4987 12.4659 77.9029 13.7705C76.5006 14.9301 74.9531 15.8965 73.0672 17.0561C72.5353 17.346 72.0517 17.6842 71.5198 17.9741C70.2142 18.7472 68.8602 19.5203 67.4578 20.4383C66.5874 21.0181 65.6686 21.6463 64.7498 22.4194C60.7846 20.7766 56.5292 19.9552 52.2738 19.8585V19.8102C51.8869 18.6023 52.3221 14.4953 54.4498 10.4849C55.7555 8.06905 58.125 4.92841 62.0419 3.81711C63.0574 3.5272 63.6376 2.46422 63.3475 1.40123C63.0574 0.386566 61.9935 -0.193244 60.9297 0.0966606C56.8193 1.3046 53.386 4.25197 51.0165 8.64886C48.7921 12.7558 47.97 17.2977 48.3085 20.0035C42.0221 20.4867 35.8808 22.371 30.9001 25.0768C30.078 23.3857 29.4977 21.5496 29.1109 19.3753C28.724 17.2011 28.579 14.8335 28.724 12.2244C28.8691 10.0501 29.1109 7.58588 30.0297 5.4599C30.4649 4.49355 29.9813 3.33393 29.0142 2.89908C28.047 2.46422 26.8865 2.94739 26.4513 3.91374C25.2907 6.57121 25.0005 9.47026 24.8555 11.9828C24.7104 14.9301 24.8555 17.5876 25.2907 20.0518C25.7743 22.7093 26.548 24.9802 27.6118 27.1061C22.7761 30.4884 18.3757 34.9819 14.8456 40.1519C14.5555 40.0069 14.3621 39.9103 14.1203 39.717C13.8785 39.5721 13.6367 39.3788 13.2015 39.1372C10.9287 37.736 8.99445 35.9483 7.49539 34.0156C5.94797 31.9862 4.88412 29.7636 4.40055 27.541C4.40055 27.4927 4.35219 27.4444 4.35219 27.3961C4.11041 26.623 4.0137 25.7533 3.96534 24.7869C3.91698 24.497 3.91698 24.2071 3.86863 23.9172C3.82027 23.1924 3.86863 22.4677 3.91698 21.6946C3.91698 21.2114 3.96534 20.7766 3.96534 20.2934C3.96534 19.2304 3.14327 18.3607 2.07942 18.3124C2.07942 18.3124 2.07942 18.3124 2.03107 18.3124C0.967216 18.3124 0.0967939 19.1821 0.0967939 20.1967C0.0967939 20.6316 0.0484371 21.0181 0.0484371 21.453C8.03131e-05 22.3227 -0.0482765 23.2407 0.0484371 24.2071C0.0484371 24.2554 0.0484371 24.2554 0.0484371 24.3037C0.0967939 24.5936 0.0967939 24.8352 0.145151 25.1251C0.241864 26.1398 0.338578 27.2994 0.677076 28.4107C1.25736 31.1165 2.56299 33.8706 4.44891 36.2865C6.23811 38.654 8.51088 40.6834 11.2189 42.3745C11.5574 42.5678 11.7991 42.761 11.9926 42.8577C12.2827 43.0509 12.4761 43.1959 12.8146 43.3408C10.6869 46.9163 8.99445 50.7817 7.73717 54.8404C5.94797 60.5419 4.93248 66.5816 4.59398 72.8145C3.62684 91.9482 9.96158 112.387 22.4376 130.361C29.9329 141.184 38.6855 150.074 48.4536 156.79C55.2719 161.477 66.394 167.952 75.8236 167.952C79.0635 167.952 82.1099 167.179 84.7212 165.343C88.1062 162.927 89.5085 159.11 90.0888 156.307C92.5067 144.856 87.0907 133.646 82.3517 123.838C80.901 120.842 79.547 117.991 78.3865 115.189L78.193 114.802C74.2761 105.284 70.2142 95.4271 69.924 85.2321C69.7306 78.9025 72.1001 72.283 74.663 65.2287C75.4851 63.0061 76.2588 60.7835 76.9841 58.5125L78.048 59.044C78.0963 59.044 78.0963 59.0923 78.1447 59.0923C79.9339 59.9137 82.0132 60.5419 84.3827 60.9767C86.0268 61.2666 87.671 61.4116 89.2668 61.4116C89.8954 61.4116 90.524 61.4116 91.1527 61.3633C93.9574 61.1217 96.2301 60.4935 98.2128 59.3339C99.1315 58.8024 99.4217 57.5945 98.8898 56.6765C98.3578 55.7584 97.1489 55.4685 96.2301 56C94.7794 56.8214 93.0386 57.3529 90.8625 57.4979C89.025 57.6428 87.0907 57.5462 85.0597 57.208C83.0771 56.8697 81.2879 56.3382 79.8372 55.6618L78.7733 55.1303C78.6766 55.0337 78.5315 54.9854 78.3865 54.8887C78.2898 54.8404 78.2414 54.7921 78.1447 54.7438C79.0151 51.4582 79.5954 48.1726 79.6437 44.9353C80.0306 44.9353 80.3207 44.9353 80.6109 44.9836C80.6592 44.9836 80.7076 44.9836 80.7076 44.9836C81.2879 45.0319 81.8198 45.1286 82.3034 45.2735C83.9959 45.6601 85.4949 46.1916 86.9456 46.7231C87.4292 46.9163 87.9128 47.0613 88.348 47.2546C90.1372 47.8827 92.2649 48.6074 94.586 48.8973C95.4564 48.994 96.3268 49.0906 97.1973 49.0906C98.5996 49.0906 100.05 48.9457 101.453 48.6074C102.517 48.3175 103.194 47.3029 102.952 46.2399ZM75.7752 45.4185C75.6301 48.6074 74.9048 51.9413 73.9376 55.2753C73.1156 58.126 72.0517 61.025 71.0362 63.9241C70.4076 65.6152 69.8273 67.3546 69.247 69.0457C67.4095 74.4573 65.9588 79.9655 66.1038 85.3288C66.2489 90.7886 67.4095 96.0552 69.0052 101.177C70.601 106.299 72.632 111.324 74.663 116.252L74.8564 116.687C76.0653 119.586 77.4677 122.485 78.9184 125.529C83.609 135.289 88.493 145.387 86.3653 155.534C85.9301 157.66 84.8663 160.559 82.5452 162.202C79.8855 164.086 76.5005 164.425 72.8738 163.893C64.7015 162.637 55.3203 156.839 50.678 153.65C42.7959 148.19 35.5423 141.28 29.1109 132.97C27.902 131.424 26.7414 129.829 25.6292 128.235C13.54 110.937 7.44703 91.3201 8.41416 73.0561C8.70431 67.1614 9.7198 61.4599 11.4123 56.0483C12.8146 51.6031 14.7973 47.3512 17.2635 43.5341C20.7935 38.0259 25.339 33.2908 30.5132 29.8602C30.8517 29.667 31.1419 29.4254 31.4804 29.2321C35.639 26.6713 40.9099 24.7869 46.3743 24.0138C48.0184 23.7722 49.7109 23.6756 51.4034 23.6756C55.7071 23.6756 59.9625 24.4487 63.8794 26.1881C64.1212 26.3814 64.4113 26.5263 64.7015 26.5747C65.1367 26.7679 65.5719 27.0095 66.0071 27.2511C67.9898 28.3624 69.6822 29.8119 71.1329 31.503C72.3902 33.0009 73.4057 34.5954 74.1311 36.2382C74.8564 37.8326 75.34 39.4754 75.5818 41.4081V41.4565C75.7752 42.8093 75.8236 44.1139 75.7752 45.4185Z" fill="#9F895B"/>
<path d="M51.742 29.522C50.6298 29.3288 49.4692 29.2321 48.3086 29.2321C47.8251 29.2321 47.2932 29.2321 46.8096 29.2804C39.7978 29.7636 33.8983 33.5807 30.9002 35.9483C22.9213 42.2295 17.6988 51.2649 16.6349 60.6868C16.0063 66.2916 16.6833 71.8965 18.6659 76.4383C21.7608 83.6859 29.8363 88.5177 38.734 88.5177C48.0185 88.5177 56.9162 83.0578 61.9453 74.264C63.0091 72.3796 63.8795 70.4469 64.5565 68.5626C65.8622 64.9387 66.5392 61.5082 66.926 58.8991C67.6997 54.1156 68.3284 47.8344 66.1523 41.9396C63.8312 35.4651 58.2701 30.6816 51.742 29.522ZM63.1542 58.2709C62.3805 63.1027 61.1232 67.9344 58.6086 72.3313C54.7401 79.0475 47.5349 84.6523 38.7824 84.6523C31.4321 84.6523 24.7589 80.8352 22.2443 74.9405C20.4551 70.7369 19.9716 65.7118 20.5035 61.1217C21.4706 52.8111 26.0645 44.6937 33.318 38.9923C37.5251 35.7067 42.941 33.0975 48.3086 33.0975C49.2274 33.0975 50.1462 33.1942 51.065 33.3391C56.6744 34.3538 60.8331 38.5091 62.5739 43.2442C64.3147 47.9793 63.9763 53.2459 63.1542 58.2709Z" fill="#9F895B"/>
<path d="M34.1399 103.786C35.107 98.761 31.722 94.2192 26.1126 93.0113C25.5324 92.8663 24.9037 92.818 24.2751 92.818C22.0023 92.818 19.8746 93.6877 18.3272 95.2339C15.6676 97.9396 15.0389 102.288 16.8765 105.67C17.8436 107.458 19.391 108.908 21.3737 109.826C22.776 110.502 24.2267 110.84 25.6774 110.84C26.4995 110.84 27.2732 110.744 28.0469 110.502C31.1418 109.632 33.5112 107.023 34.1399 103.786ZM30.3197 103.061C29.9812 104.849 28.6272 106.347 26.9831 106.782C26.5479 106.878 26.1126 106.975 25.6774 106.975C24.7586 106.975 23.8399 106.733 23.0178 106.347C21.9056 105.815 20.8901 104.946 20.2615 103.834C19.246 101.95 19.6328 99.4375 21.0835 97.9396C21.954 97.0699 23.1145 96.6351 24.2751 96.6351C24.6136 96.6351 24.9521 96.6834 25.2906 96.7317C28.192 97.4082 30.9967 99.6308 30.3197 103.061Z" fill="#9F895B"/>
<path d="M44.8753 117.363C44.5851 117.218 44.295 117.073 43.9565 116.977C43.0377 116.638 42.0222 116.494 40.9584 116.494C38.3471 116.494 35.7842 117.557 33.995 119.393C32.4959 120.939 31.5288 122.92 31.1903 125.191C30.8034 127.703 31.287 130.167 32.5926 132.052C34.1884 134.419 37.0415 135.869 40.0396 135.869C40.4748 135.869 40.91 135.821 41.3452 135.772C45.0203 135.241 47.4382 132.97 48.6955 130.167C49.4692 128.331 49.8077 126.302 49.6142 124.321C49.3725 121.325 47.5349 118.668 44.8753 117.363ZM40.8133 132.003C40.5715 132.052 40.3297 132.052 40.0879 132.052C38.3955 132.052 36.7513 131.23 35.8325 129.926C35.0105 128.718 34.8171 127.22 35.0588 125.77C35.2523 124.418 35.8325 123.113 36.7997 122.098C37.8635 120.987 39.4593 120.359 41.0067 120.359C41.7804 120.359 42.5541 120.504 43.2311 120.842C44.7302 121.567 45.649 123.065 45.794 124.708C46.0842 127.848 44.6335 131.424 40.8133 132.003Z" fill="#9F895B"/>
<path d="M61.4615 114.126C63.1057 112.29 64.1212 109.729 64.3146 106.733C64.4597 104.849 64.2179 103.013 63.7343 101.274C63.4442 100.211 63.009 99.1476 62.4287 98.1812C60.301 94.4608 56.4808 92.0449 52.6606 91.9966H52.5639C49.8559 91.9966 47.5348 93.0113 45.8423 94.9923C43.5695 97.5531 42.6507 101.612 43.231 106.154C43.7146 109.729 45.6489 113.111 48.4052 115.092C48.7437 115.334 49.0822 115.576 49.4691 115.769C51.0648 116.639 52.854 117.122 54.6432 117.122C57.2061 117.122 59.7207 116.01 61.4615 114.126ZM47.0029 105.622C46.3742 100.887 47.8249 95.9103 52.5155 95.9103H52.6123C55.0301 95.9586 57.6414 97.6497 59.0921 100.114C60.2043 102.047 60.5911 104.366 60.4461 106.492C60.301 108.425 59.7207 110.261 58.6085 111.565C57.593 112.676 56.1423 113.256 54.5949 113.256C53.2409 113.256 51.8385 112.821 50.6296 111.952C48.647 110.502 47.3414 108.038 47.0029 105.622Z" fill="#9F895B"/>
<path d="M54.9817 128.525C54.5465 129.153 54.208 129.781 53.9179 130.457C53.2409 132.293 53.2409 134.274 54.0146 136.11C55.2719 139.106 58.4151 141.135 61.8001 141.135C62.0902 141.135 62.3803 141.135 62.6705 141.087C63.4925 140.99 64.3146 140.797 65.0883 140.459C66.1038 140.024 67.0709 139.444 67.9414 138.671C69.6822 137.173 70.7461 135.192 71.0362 133.163C71.4231 130.119 69.9724 127.075 67.3127 125.384C65.9587 124.514 64.4113 124.079 62.8639 124.079C59.8658 124.176 56.916 125.819 54.9817 128.525ZM67.1677 132.776C67.0226 133.984 66.2972 135.047 65.3785 135.869C64.508 136.642 63.4442 137.173 62.2836 137.318C62.1386 137.318 61.9935 137.318 61.8484 137.318C60.0592 137.318 58.3184 136.207 57.6414 134.661C57.1094 133.405 57.3512 131.907 58.1733 130.795C59.2855 129.249 61.0263 128.041 62.8639 128.041C63.6376 128.041 64.4597 128.283 65.2334 128.766C66.539 129.636 67.3611 131.23 67.1677 132.776Z" fill="#9F895B"/>
<path d="M65.0399 150.219C64.4112 153.118 65.0882 156.162 66.8774 158.385C68.3765 160.269 70.6493 161.429 73.0671 161.622C73.2605 161.622 73.5023 161.67 73.7441 161.67C75.1464 161.67 76.5004 161.332 77.661 160.656C79.4986 159.641 80.9493 157.998 81.9164 155.824C82.9319 153.553 83.222 151.137 82.7385 148.915C82.0131 145.581 79.4985 142.827 76.3554 141.909C75.5816 141.667 74.8079 141.57 74.0342 141.57C72.8253 141.57 71.6648 141.86 70.6009 142.343C67.8929 143.648 65.8136 146.45 65.0399 150.219ZM73.9859 145.436C74.3727 145.436 74.8079 145.484 75.2432 145.629C77.0324 146.112 78.4831 147.803 78.9183 149.736C79.2568 151.234 78.9666 152.877 78.338 154.23C77.7577 155.486 76.8873 156.597 75.7267 157.225C75.0981 157.563 74.3727 157.757 73.6474 157.757C72.245 157.757 70.7943 157.08 69.8272 155.921C68.7633 154.568 68.4248 152.683 68.7633 150.992C69.4403 148.141 71.2295 145.436 73.9859 145.436Z" fill="#9F895B"/>
<path d="M51.0165 40.2002C50.533 40.2002 50.0011 40.2485 49.5175 40.3451C46.471 40.9733 44.0048 43.4858 43.086 46.8197C42.6508 48.3659 42.6025 49.7671 42.5541 51.0716C42.5541 51.6031 42.5057 52.1346 42.4574 52.5695C42.1189 55.5652 40.7165 58.0294 37.8635 60.4452C35.2522 62.6678 33.6081 66.2917 33.7048 69.4806C33.8015 71.9931 34.8654 74.1674 36.7996 75.6653C38.202 76.7282 39.9912 77.308 41.9255 77.308C43.3278 77.308 44.7785 77.0181 46.0842 76.39C48.1151 75.5203 50.0011 73.9258 51.7903 71.7032C53.6278 69.384 55.0785 66.7265 55.9973 64.8904C58.125 60.6868 59.3823 56.0483 59.5757 51.5065C59.6724 49.4772 59.5757 46.8197 58.1734 44.3555C56.6259 41.8913 53.8212 40.2002 51.0165 40.2002ZM55.6588 51.4099C55.4654 55.4685 54.4015 59.5272 52.5156 63.2476C51.5968 65.0837 50.3396 67.403 48.7438 69.384C47.5349 70.9301 46.0842 72.2347 44.4884 72.9595C43.6663 73.2977 42.7959 73.491 41.9255 73.491C40.91 73.491 39.9428 73.2494 39.1691 72.6213C36.1226 70.302 37.9602 65.5186 40.378 63.4409C43.7147 60.5902 45.8424 57.3529 46.3259 53.0043C46.5194 51.3132 46.3743 49.5255 46.8579 47.8827C47.2931 46.1916 48.5504 44.5488 50.2912 44.1622C50.533 44.1139 50.7748 44.1139 51.0165 44.1139C52.564 44.1139 54.0147 45.1286 54.7884 46.4332C55.6104 47.8827 55.7072 49.6704 55.6588 51.4099Z" fill="#9F895B"/>
</g>
<defs>
<clipPath id="clip0">
<rect width="151" height="105" fill="white" transform="translate(216 19) rotate(90)"/>
</clipPath>
<clipPath id="clip1">
<rect width="103" height="168" fill="white"/>
</clipPath>
</defs>
</svg>
