<svg width="105" height="179" viewBox="0 0 105 179" fill="none" xmlns="http://www.w3.org/2000/svg">
<g clip-path="url(#clip0)">
<path d="M29.4774 133.847C28.8857 133.632 28.3478 133.471 27.7561 133.309C28.7243 132.234 29.4774 130.998 30.0153 129.654C32.2745 124.117 30.8222 118.366 26.1962 114.657C25.0128 113.689 23.668 112.937 22.2694 112.399C23.2377 111.485 24.0445 110.464 24.69 109.335C27.6485 104.121 26.8954 98.2081 22.7535 94.0153C21.9467 93.1552 21.0322 92.4564 20.064 91.8651C23.7756 90.5751 26.6803 87.6723 27.9713 83.6408C29.2085 79.7168 28.7243 75.524 26.6265 72.1913C25.9272 71.0624 25.0665 70.0949 24.0983 69.2348C28.9395 67.2459 31.898 62.8919 31.9518 57.5702C32.0056 53.7537 30.5532 50.1522 27.9175 47.572C32.3821 46.497 35.8247 43.2717 37.1157 38.5952C38.2453 34.6174 37.5998 30.4783 35.3944 27.1994C33.3504 24.1892 30.1229 22.254 26.3575 21.824C22.4846 21.394 18.3427 22.6303 15.3842 25.2642C12.6408 27.6294 11.0809 30.9084 10.9733 34.4024C10.8657 37.8964 12.2643 41.2291 14.7925 43.863C15.0614 44.1318 15.2766 44.3468 15.5455 44.5618C12.2643 45.4756 9.35958 47.572 7.4231 50.3672C5.37905 53.3774 4.73355 56.9252 5.54042 60.3117C6.2397 63.1606 7.90722 65.6333 10.274 67.4609C8.98304 67.9985 7.74585 68.6973 6.67003 69.5573C3.81911 71.8687 2.15159 75.0402 1.93642 78.5342C1.72126 82.0282 2.95845 85.4147 5.43284 88.1024C6.34728 89.0699 7.36931 89.93 8.49892 90.6288C6.2397 91.4351 4.24943 92.9402 2.74329 94.9829C0.376484 98.1006 -0.537963 102.293 0.16132 106.217C0.860603 109.765 2.85087 112.775 5.86316 114.603C6.61624 115.033 7.36931 115.409 8.17618 115.732C7.53068 116.431 6.93898 117.237 6.45487 118.097C4.51839 121.483 4.08806 125.784 5.32525 129.547C6.45486 132.987 8.82167 135.728 11.9953 137.18C12.6946 137.502 13.3939 137.771 14.147 137.932C12.9636 139.437 12.1567 141.265 11.7264 143.254C10.9733 147.07 11.8878 151.317 14.2008 154.488C16.3524 157.445 19.4723 159.272 22.9149 159.649C23.399 159.702 23.8294 159.702 24.3135 159.702C27.272 159.702 30.2305 158.627 32.6511 156.585C35.6096 154.166 37.4385 150.618 37.7074 146.963C38.2453 140.942 35.0717 135.943 29.4774 133.847ZM18.2351 28.4895C20.064 26.9306 22.4308 26.0168 24.8514 26.0168C25.2279 26.0168 25.5507 26.0168 25.9272 26.0705C28.4016 26.3393 30.4994 27.6294 31.898 29.6183C33.4041 31.8222 33.8345 34.7249 33.0276 37.4663C31.9518 41.3366 28.8857 43.648 24.7976 43.7018C22.2694 43.7018 19.795 42.6805 17.9123 40.7453C16.191 38.9714 15.2228 36.7138 15.3304 34.4561C15.3304 32.1985 16.4062 30.0483 18.2351 28.4895ZM11.0271 52.7324C12.587 50.421 15.1152 48.8621 17.8048 48.4321C18.2351 48.3783 18.6654 48.3246 19.0957 48.3246C21.086 48.3246 22.9687 49.0234 24.4748 50.3135C26.5189 52.0874 27.6485 54.7213 27.5947 57.5702C27.5409 61.548 25.1741 64.612 21.2474 65.6871C18.8268 66.3859 16.1372 65.9558 13.8242 64.612C11.6726 63.3756 10.2202 61.4405 9.68233 59.1829C9.19821 57.0327 9.68233 54.7213 11.0271 52.7324ZM6.29349 78.7492C6.45486 76.4916 7.53069 74.3952 9.41337 72.8363C11.565 71.1162 14.4697 70.3099 17.1593 70.6862C19.6337 71.0624 21.6777 72.4063 22.9687 74.4489C24.3673 76.7066 24.69 79.6093 23.8294 82.3507C22.646 86.1672 19.4723 88.3711 15.3842 88.2636C12.856 88.2099 10.4354 87.0273 8.60651 85.0922C6.99278 83.3183 6.13212 81.0606 6.29349 78.7492ZM4.4646 105.304C3.92669 102.616 4.62597 99.6594 6.2397 97.4555C7.74585 95.4666 9.89749 94.2841 12.3181 94.1228C12.5332 94.1228 12.6946 94.1228 12.9098 94.1228C15.3842 94.1228 17.8586 95.1979 19.6874 97.0793C22.4846 99.9282 22.9687 103.745 20.9246 107.292C19.6874 109.496 17.5358 111.109 14.9538 111.754C12.5332 112.399 10.1664 112.077 8.17618 110.84C6.2397 109.658 4.94872 107.669 4.4646 105.304ZM9.46716 128.149C8.60651 125.515 8.92925 122.559 10.274 120.14C11.5112 117.989 13.5015 116.538 15.8683 116.054C16.4062 115.947 16.9979 115.893 17.5358 115.893C19.6337 115.893 21.7853 116.646 23.5604 118.043C26.6803 120.516 27.6485 124.279 26.0886 128.041C25.1203 130.353 23.1839 132.234 20.7095 133.202C18.3965 134.116 15.9759 134.116 13.878 133.148C11.7802 132.234 10.2202 130.407 9.46716 128.149ZM33.5117 146.586C33.3504 149.059 32.0594 151.478 30.0153 153.198C28.0788 154.811 25.8196 155.51 23.5066 155.241C21.2474 154.972 19.2033 153.789 17.751 151.801C16.1372 149.597 15.4918 146.64 16.0297 143.953C16.5138 141.534 17.9661 139.491 20.064 138.308C21.4088 137.556 22.9149 137.18 24.4748 137.18C25.6582 137.18 26.8417 137.395 27.9713 137.825C31.7366 139.276 33.7807 142.555 33.5117 146.586Z" fill="#9F895B"/>
<path d="M76.7598 42.8955C77.5666 46.282 79.7721 49.1847 82.8919 51.0123C85.0974 52.3024 87.6255 53.0012 90.0999 53.0012C91.2833 53.0012 92.5205 52.8399 93.6501 52.5174C99.4058 50.9048 103.064 46.2282 103.117 40.2616C103.171 36.1225 101.45 32.306 98.4913 29.6721C95.6942 27.2532 92.0902 26.2318 88.3786 26.7694C84.5057 27.3607 80.8479 29.6183 78.6424 32.8973C76.5984 35.9613 75.9529 39.4553 76.7598 42.8955ZM82.1926 35.3162C83.7526 33.0048 86.2808 31.4459 88.9703 31.0159C89.4006 30.9622 89.831 30.9084 90.2613 30.9084C92.2516 30.9084 94.1342 31.6072 95.6404 32.8973C97.6845 34.6712 98.8141 37.3051 98.7603 40.1541C98.7065 44.1318 96.3397 47.1958 92.4129 48.2709C89.9923 48.9697 87.3028 48.5396 84.9898 47.1958C82.8381 45.9595 81.3858 44.0243 80.8479 41.7667C80.4175 39.6703 80.8479 37.3589 82.1926 35.3162Z" fill="#9F895B"/>
<path d="M100.105 108.583C98.7064 107.454 97.1464 106.647 95.4789 106.11C96.5547 105.142 97.4154 104.067 98.1147 102.831C101.073 97.6168 100.32 91.7038 96.1782 87.5111C95.7479 87.081 95.2637 86.651 94.7796 86.2747C98.4374 84.9846 101.181 82.0819 102.472 78.1041C103.709 74.1801 103.225 69.9873 101.127 66.6546C99.1905 63.5369 96.0168 61.4942 92.3052 60.9029C88.4323 60.3117 84.2904 61.4405 81.2243 63.9132C78.3734 66.2246 76.7058 69.396 76.4907 72.89C76.2755 76.384 77.5127 79.7705 79.9871 82.4582C80.525 83.0495 81.1167 83.587 81.7622 84.0708C79.6105 84.9309 77.6741 86.3822 76.2217 88.3174C73.8549 91.4351 72.9405 95.6279 73.6397 99.5519C74.339 103.1 76.3293 106.11 79.3416 107.937C80.3098 108.529 81.2781 108.959 82.3539 109.281C81.6008 110.034 80.9553 110.948 80.3636 111.915C78.4271 115.302 77.9968 119.602 79.234 123.365C80.3636 126.805 82.7304 129.546 85.9041 130.998C87.5716 131.75 89.2929 132.127 91.1218 132.127C92.7893 132.127 94.4569 131.804 96.1244 131.159C99.6746 129.762 102.526 127.02 103.924 123.634C106.237 117.989 104.731 112.238 100.105 108.583ZM80.8477 73.105C81.0091 70.8474 82.0849 68.751 83.9676 67.1921C86.1193 65.472 89.024 64.6657 91.7135 65.042C94.1879 65.4183 96.232 66.7621 97.523 68.8047C98.9215 71.0624 99.2443 73.9651 98.3836 76.7065C97.2002 80.5231 94.0803 82.727 89.9384 82.6195C87.4102 82.5657 84.9897 81.3831 83.1608 79.448C81.547 77.6741 80.6864 75.4165 80.8477 73.105ZM77.943 98.6918C77.4051 96.0042 78.1044 93.0477 79.7181 90.8438C81.2243 88.8549 83.3759 87.6723 85.7965 87.5111C86.0117 87.5111 86.1731 87.5111 86.3882 87.5111C88.8626 87.5111 91.337 88.5861 93.1659 90.4675C95.963 93.3165 96.4471 97.133 94.4031 100.681C93.1659 102.885 91.0142 104.497 88.4323 105.142C86.0117 105.787 83.6449 105.465 81.6546 104.228C79.7181 103.046 78.3734 101.057 77.943 98.6918ZM99.9436 121.913C98.9753 124.225 97.0388 126.106 94.5644 127.074C92.2514 127.988 89.8308 127.988 87.733 127.02C85.6351 126.052 84.0752 124.279 83.3759 121.967C82.5153 119.333 82.838 116.377 84.1828 113.958C85.42 111.808 87.4102 110.356 89.777 109.873C90.315 109.765 90.9067 109.711 91.4446 109.711C93.5424 109.711 95.6941 110.464 97.4692 111.862C100.589 114.442 101.503 118.151 99.9436 121.913Z" fill="#9F895B"/>
<path d="M73.6398 154.757C72.6178 154.112 71.542 153.574 70.4662 153.144C71.3806 152.231 72.1875 151.263 72.833 150.134C75.7915 144.92 75.0384 139.007 70.8965 134.814C68.7448 132.61 66.0553 131.213 63.2044 130.729C64.5491 128.74 65.356 126.483 65.5174 124.171C65.8939 118.688 63.2582 114.012 58.5246 111.7C61.9672 108.798 63.5271 104.444 62.6665 99.7669C61.9672 95.9504 59.8155 92.6177 56.6957 90.5751C58.7397 89.3387 60.461 87.6723 61.6444 85.6297C64.6029 80.4156 63.8499 74.5027 59.708 70.3099C58.6321 69.1811 57.3412 68.2672 55.9964 67.5684C58.9011 66.0633 61.1065 63.4832 62.1823 60.0429C63.4195 56.1189 62.9354 51.9261 60.8376 48.5934C60.73 48.4321 60.6224 48.2708 60.5148 48.1096C60.8914 48.0558 61.2679 47.9483 61.6444 47.8408C67.4001 46.2282 71.0579 41.5516 71.1116 35.585C71.1654 31.876 69.7669 28.4357 67.3463 25.8555C71.8109 24.7805 75.146 21.5552 76.437 16.8787C77.5666 12.9009 76.9211 8.76184 74.7156 5.48286C72.6716 2.41889 69.4441 0.483758 65.6788 0.0537279C61.8058 -0.376302 57.6639 0.860034 54.7054 3.49397C51.9621 5.85913 50.4021 9.13811 50.2945 12.6321C50.187 16.1261 51.5855 19.4588 54.1137 22.0928C54.2751 22.254 54.4364 22.4153 54.5978 22.5228C51.3704 23.4366 48.4656 25.533 46.6367 28.2745C44.5927 31.2847 43.9472 34.8324 44.7541 38.2189C45.1844 39.939 45.9375 41.5516 47.0671 43.003C44.8616 43.4868 42.71 44.4543 40.9349 45.8519C38.084 48.1633 36.4165 51.3348 36.2013 54.8288C35.9861 58.3228 37.2233 61.7093 39.6977 64.397C40.8811 65.6871 42.2797 66.7621 43.8396 67.5147C42.2259 68.3748 40.8273 69.6111 39.6977 71.1162C37.3309 74.2339 36.4165 78.4267 37.1157 82.3507C37.815 85.8985 39.8053 88.8549 42.7638 90.7363C40.3432 92.2952 38.3529 94.5528 37.2233 97.1868C35.771 100.52 35.8248 104.121 37.2233 107.346C38.4605 110.034 40.6122 112.184 43.3555 113.528C41.3652 115.302 40.0205 117.667 39.4288 120.462C38.6757 124.279 39.5901 128.525 41.9031 131.697C43.9472 134.492 46.8519 136.266 50.0794 136.803C48.2505 139.813 47.605 143.469 48.2505 146.909C48.9498 150.457 50.94 153.467 53.9523 155.295C54.7054 155.778 55.5661 156.155 56.3729 156.477C55.5123 157.445 54.7592 158.574 54.1675 159.81C52.5538 163.358 52.5 167.658 54.0061 171.313C55.4047 174.646 58.0404 177.172 61.3217 178.355C62.6665 178.839 64.065 179.054 65.5174 179.054C67.5614 179.054 69.6055 178.57 71.4882 177.602C74.9308 175.882 77.5128 172.926 78.5886 169.432C80.5251 163.626 78.5348 158.036 73.6398 154.757ZM57.5563 6.77295C59.3852 5.21409 61.752 4.30027 64.1726 4.30027C64.5491 4.30027 64.8719 4.30027 65.2484 4.35403C67.7228 4.6228 69.8207 5.91289 71.2192 7.90178C72.7254 10.1057 73.1557 13.0084 72.3488 15.7498C71.273 19.6201 68.2069 21.9315 64.1188 21.9853C64.065 21.9853 64.065 21.9853 64.0112 21.9853C61.5369 21.9853 59.0625 20.9102 57.2336 19.0288C55.5123 17.2549 54.544 14.9973 54.6516 12.7396C54.7054 10.482 55.7274 8.33181 57.5563 6.77295ZM50.2407 30.6934C51.8007 28.382 54.3289 26.8231 57.0184 26.3931C57.4487 26.3393 57.8791 26.2856 58.3094 26.2856C60.2997 26.2856 62.1823 26.9844 63.6885 28.2745C65.7325 30.0483 66.8622 32.6823 66.8084 35.5312C66.7546 39.509 64.3878 42.5729 60.461 43.648C58.0404 44.3468 55.3509 43.9168 53.0379 42.5729C50.8862 41.3366 49.4339 39.4015 48.896 37.1438C48.4118 34.9937 48.896 32.6823 50.2407 30.6934ZM40.5046 55.0976C40.6659 52.8399 41.7418 50.7435 43.6244 49.1847C45.7761 47.4645 48.6808 46.6582 51.3704 47.0345C53.8447 47.4108 55.8888 48.7546 57.1798 50.7973C58.5783 53.0549 58.9011 55.9576 58.0404 58.6991C56.857 62.5156 53.6834 64.7195 49.5952 64.612C47.0671 64.5582 44.6465 63.3757 42.8176 61.4405C41.2039 59.6666 40.3432 57.409 40.5046 55.0976ZM43.1941 73.6964C44.7003 71.7075 46.8519 70.5249 49.2725 70.3636C49.4877 70.3636 49.649 70.3636 49.8642 70.3636C52.3386 70.3636 54.813 71.4387 56.6419 73.3201C59.439 76.169 59.9231 79.9856 57.8791 83.5333C56.6419 85.7372 54.4902 87.3498 51.9083 87.9949C49.4877 88.6399 47.1209 88.3174 45.1306 87.0811C43.1941 85.8985 41.8493 83.9096 41.419 81.5444C40.8811 78.803 41.5266 75.9003 43.1941 73.6964ZM41.2039 105.572C40.2356 103.476 40.2894 101.111 41.2039 98.9069C42.2797 96.3805 44.4851 94.3378 47.0671 93.424C48.0353 93.1015 48.9498 92.9402 49.918 92.9402C51.3166 92.9402 52.7151 93.3165 54.0061 94.0153C56.3191 95.3591 57.9866 97.7781 58.4708 100.573C59.17 104.497 57.4487 107.938 53.7909 109.765C53.3606 109.98 52.9303 110.141 52.5 110.303C51.3166 110.303 50.0794 110.41 48.9498 110.679C48.0891 110.625 47.1747 110.41 46.3678 110.141C43.9472 109.281 42.1721 107.669 41.2039 105.572ZM45.4533 129.117C43.8396 126.913 43.1941 123.956 43.732 121.268C44.2162 118.85 45.6685 116.807 47.7664 115.624C48.3043 115.356 48.8422 115.087 49.3801 114.926C49.4877 114.926 49.5415 114.926 49.649 114.926C50.7787 114.926 51.8545 114.764 52.9303 114.549C53.8447 114.603 54.7592 114.818 55.6198 115.141C59.3852 116.538 61.4293 119.763 61.1065 123.849C60.9452 126.321 59.6542 128.74 57.6101 130.46C57.126 130.837 56.6419 131.159 56.1578 131.428C55.7812 131.589 55.4047 131.75 55.0281 131.965C53.7372 132.449 52.3924 132.664 51.1014 132.503C48.896 132.288 46.8519 131.052 45.4533 129.117ZM52.5538 146.049C52.0158 143.361 52.7151 140.405 54.3289 138.201C55.0819 137.233 55.9964 136.427 56.9646 135.836C57.2874 135.728 57.6101 135.567 57.8791 135.406C58.6321 135.083 59.4928 134.922 60.3534 134.868C60.5686 134.868 60.73 134.868 60.9452 134.868C63.4195 134.868 65.8939 135.943 67.7228 137.825C70.5199 140.674 71.0041 144.49 68.96 148.038C67.7228 150.242 65.5712 151.854 62.9892 152.499C60.5686 153.144 58.2018 152.768 56.2115 151.586C54.3289 150.403 53.0379 148.414 52.5538 146.049ZM74.6081 168.088C73.855 170.453 72.0799 172.55 69.6593 173.732C67.4539 174.861 65.0333 175.022 62.8278 174.27C60.6762 173.517 58.9549 171.851 58.0404 169.647C56.9646 167.12 57.0184 164.11 58.148 161.638C59.17 159.38 61.0527 157.767 63.3657 157.068C64.1726 156.853 64.9795 156.746 65.7863 156.746C67.669 156.746 69.5517 157.337 71.1654 158.412C74.5543 160.562 75.8453 164.218 74.6081 168.088Z" fill="#9F895B"/>
</g>
<defs>
<clipPath id="clip0">
<rect width="105" height="179" fill="white"/>
</clipPath>
</defs>
</svg>
