<svg width="153" height="159" viewBox="0 0 153 159" fill="none" xmlns="http://www.w3.org/2000/svg">
<g clip-path="url(#clip0)">
<path d="M152.886 54.8276C152.545 53.9138 151.692 53.2855 150.726 53.3426L124.231 53.7995C123.264 52.1433 122.184 50.5442 121.047 49.0592L126.562 32.9536C126.846 32.097 126.619 31.1832 125.993 30.612C125.368 29.9838 124.458 29.8125 123.662 30.098L106.321 36.209C104.445 35.1239 102.512 34.2101 100.522 33.3534C100.635 29.4127 100.749 25.8717 100.863 22.5592L101.261 12.5075V12.1648C101.431 9.02368 101.602 5.76829 101.943 2.62713C102.057 1.59911 101.431 0.571093 100.465 0.22842C99.4982 -0.114252 98.3611 0.22842 97.7926 1.0851C95.9163 3.82648 94.2106 6.7392 92.5618 9.53769L87.2742 18.6756C85.3979 21.931 83.4648 25.472 81.2474 29.3556C79.5986 29.2985 77.8929 29.3556 76.2441 29.4698L65.9531 15.5916C65.3845 14.8491 64.4748 14.5064 63.5651 14.7349C62.6554 14.9633 62.03 15.7058 61.8595 16.6196L59.4715 33.0679C57.5952 33.8103 55.8327 34.6099 54.0702 35.5237L23.5384 16.5625C22.6287 15.9914 21.4916 16.1627 20.7524 16.9051C20.0133 17.6476 19.8996 18.847 20.4681 19.7036L38.4347 48.3168C36.5016 50.7155 34.739 53.2855 33.2608 55.9698L13.1337 56.2554C12.224 56.2554 11.428 56.8265 11.0869 57.6832C10.7457 58.5398 10.9163 59.5107 11.5986 60.139L26.836 75.5592C26.3812 79.1573 26.2675 82.8125 26.4949 86.4676L0.909618 105.2C0.0567757 105.829 -0.227505 106.914 0.113632 107.885C0.511625 108.856 1.47818 109.427 2.50159 109.312L31.4414 105.657C33.0902 109.027 35.0802 112.168 37.4113 115.081L36.1036 123.191C35.8193 124.847 33.8293 133.528 33.0334 136.726C32.8059 137.64 33.1471 138.554 33.9431 139.125C34.6822 139.639 35.7056 139.696 36.5016 139.182L38.3778 137.983C39.9698 136.955 41.6186 135.87 43.2675 134.727C44.9732 133.528 46.622 132.272 48.214 131.072L52.7056 127.703C54.5819 128.731 56.515 129.587 58.4481 130.387C60.7792 131.301 63.1671 132.1 65.612 132.671C66.2374 135.241 66.8628 137.868 67.4882 140.439C68.8528 146.321 70.1036 151.633 71.127 157.172C71.2976 158.143 72.1504 158.943 73.117 159C73.1738 159 73.2875 159 73.3444 159C74.2541 159 75.1069 158.429 75.4481 157.572C77.6086 152.204 79.4849 146.721 81.4748 141.124C82.3277 138.668 83.1805 136.155 84.0334 133.642C88.2976 133.071 92.5049 131.929 96.5986 130.273L112.575 142.323C113.314 142.894 114.395 142.951 115.191 142.437C115.987 141.923 116.385 140.953 116.157 139.982L111.722 120.792C112.973 119.65 114.167 118.45 115.361 117.194C116.271 117.422 117.124 117.708 118.033 117.936C120.706 118.736 123.548 119.593 126.846 120.621C132.475 122.391 138.274 124.333 144.585 126.446C145.552 126.789 146.632 126.389 147.201 125.532C147.769 124.676 147.712 123.533 147.03 122.734C142.595 117.651 138.445 113.082 134.408 108.684C131.963 106 129.916 103.83 127.869 101.717C127.301 101.145 126.732 100.517 126.107 99.9461C126.505 98.9752 126.846 98.0043 127.187 97.0334L143.619 93.3782C144.528 93.1498 145.211 92.4644 145.381 91.5506C145.552 90.6368 145.154 89.723 144.358 89.209L130.428 80.2995C130.485 78.472 130.485 76.6444 130.371 74.8739L152.09 57.3976C152.886 56.7694 153.17 55.7414 152.886 54.8276ZM126.675 72.0754C126.107 72.5323 125.766 73.2748 125.823 74.0743C126.05 76.473 126.05 78.986 125.88 81.3847C125.823 82.2413 126.221 83.0409 126.903 83.4407L137.308 90.1228L124.97 92.8642C124.174 93.0355 123.548 93.6067 123.321 94.4062C122.752 96.1196 122.127 97.8329 121.388 99.5463C121.047 100.403 121.217 101.374 121.843 102.059C122.752 103.03 123.662 103.944 124.629 104.915C126.619 106.971 128.665 109.198 131.11 111.825C133.385 114.281 135.659 116.794 137.99 119.421C134.635 118.336 131.451 117.251 128.267 116.28C124.97 115.252 122.013 114.338 119.341 113.539C117.976 113.139 116.612 112.739 115.247 112.397C114.395 112.168 113.542 112.454 112.916 113.082C111.267 114.909 109.562 116.68 107.742 118.165C107.117 118.736 106.776 119.593 107.003 120.449L110.358 134.842L98.3611 125.761C97.6788 125.247 96.826 125.19 96.0869 125.475C91.5952 127.417 86.933 128.673 82.1571 129.187C81.2474 129.302 80.5083 129.873 80.224 130.729C79.2574 133.699 78.234 136.669 77.2675 139.525C76.2441 142.552 75.1638 145.522 74.1404 148.491C73.4581 145.407 72.7758 142.38 72.0367 139.239C71.2976 136.212 70.5584 133.128 69.8193 130.101C69.5919 129.245 68.9096 128.616 68.0568 128.445C65.3845 127.874 62.7123 127.074 60.2106 126.103C57.9932 125.19 55.8327 124.162 53.729 122.962C53.3879 122.734 52.9899 122.677 52.5919 122.677C52.137 122.677 51.6253 122.848 51.2273 123.134L45.5986 127.36C44.0066 128.559 42.3578 129.759 40.709 130.901C40.0835 131.358 39.4581 131.758 38.8327 132.214C39.6287 128.845 40.4815 125.018 40.6521 123.876L42.1304 114.738C42.2441 114.053 42.0735 113.425 41.6186 112.911C38.8895 109.712 36.6722 106.114 34.9096 102.231C34.5116 101.317 33.5451 100.746 32.5217 100.917L10.7457 103.658L30.1337 89.4946C30.7591 89.0377 31.1571 88.2381 31.0434 87.4386C30.6454 83.3836 30.7591 79.2715 31.3845 75.2166C31.4982 74.4741 31.2708 73.7888 30.7591 73.2748L18.4782 60.8814L34.5685 60.653C35.4213 60.653 36.1605 60.1961 36.5584 59.4536C38.321 56.084 40.4247 52.9429 42.8695 50.1444C43.5518 49.4019 43.6086 48.2597 43.0969 47.403L29.4514 25.7004L52.7625 40.1498C53.4447 40.6067 54.3544 40.6067 55.0367 40.2069C57.311 38.9504 59.6989 37.8082 62.2006 36.9515C62.9966 36.6659 63.5651 35.9806 63.6788 35.1239L65.4982 22.7877L73.4013 33.125C73.8561 33.7532 74.6521 34.0959 75.3912 34.0388C77.7792 33.8103 80.1671 33.8103 82.4982 33.9245C83.3511 33.9817 84.2039 33.5248 84.6019 32.7823C87.0467 28.3847 89.2073 24.501 91.2541 20.903L96.3143 12.1077L96.4849 11.8222C96.5986 11.6508 96.6554 11.5366 96.7691 11.3653C96.7691 11.5366 96.7691 11.7079 96.7691 11.8793L96.3143 22.3308C96.2006 26.1573 96.0869 30.2123 95.9163 34.7812C95.9163 35.7521 96.4849 36.6088 97.3946 36.9515C100.01 37.9224 102.512 39.1789 104.843 40.6067C105.411 40.9493 106.15 41.0064 106.776 40.778L120.649 35.8663L116.271 48.7166C116.043 49.459 116.157 50.3157 116.669 50.8868L116.839 51.0582C117.01 51.2866 117.237 51.5151 117.408 51.7435C118.716 53.3998 119.853 55.2273 120.933 57.112C121.331 57.8545 122.07 58.3114 122.923 58.3114C122.923 58.3114 122.923 58.3114 122.98 58.3114L144.187 57.9116L126.675 72.0754Z" fill="#9F895B"/>
<path d="M81.02 45.1756C77.2106 40.3782 70.2173 40.1498 65.2708 42.3771C61.6889 44.0334 57.9933 46.4892 55.321 48.945C54.4113 49.8017 53.5585 50.7155 52.8193 51.7435C49.1805 56.7694 48.4983 62.4806 51.0568 66.5927C53.1036 69.9052 57.0836 71.9041 61.4615 71.9041C61.9163 71.9041 62.3712 71.9041 62.826 71.847C66.3511 71.5043 69.8762 70.0194 73.913 67.1067C77.9498 64.1939 80.5652 61.3383 82.0434 58.0258C84.0902 53.6853 83.6922 48.6024 81.02 45.1756ZM77.9498 56.2554C76.8127 58.7683 74.709 61.1099 71.2976 63.5086C67.9431 65.9073 65.1003 67.1638 62.428 67.3922C59.8127 67.6207 56.515 66.764 54.9799 64.2511C53.1036 61.2241 54.5819 57.2263 56.5718 54.4849C57.1404 53.6853 57.7658 52.9429 58.505 52.3146C60.7792 50.1444 64.0769 47.9741 67.204 46.5463C70.4448 45.0614 75.1638 45.0614 77.4949 47.9741C79.3143 50.3728 79.03 53.8567 77.9498 56.2554Z" fill="#9F895B"/>
<path d="M77.2106 115.195C75.5049 116.794 71.8661 118.45 68.1705 118.45C65.0434 118.45 59.4715 116.394 57.5952 111.94C57.0835 110.797 55.7758 110.226 54.5818 110.74C53.4447 111.254 52.8761 112.568 53.3878 113.767C55.9464 119.764 62.9397 123.019 68.1705 123.019C72.6052 123.019 77.438 121.192 80.2808 118.508C81.1905 117.651 81.2474 116.223 80.3945 115.252C79.5985 114.338 78.1203 114.338 77.2106 115.195Z" fill="#9F895B"/>
<path d="M101.886 66.0215C96.0869 63.9084 89.4916 64.5366 84.204 67.7349C83.1237 68.3631 82.7826 69.7909 83.408 70.876C84.0334 71.9612 85.4548 72.3038 86.5351 71.6756C90.5719 69.2198 95.8595 68.7058 100.294 70.3049C104.729 71.904 108.482 75.7306 110.017 80.1853C110.358 81.1562 111.211 81.7273 112.177 81.7273C112.405 81.7273 112.689 81.6702 112.916 81.6131C114.11 81.2133 114.736 79.8997 114.338 78.7004C112.291 72.875 107.629 68.1347 101.886 66.0215Z" fill="#9F895B"/>
<path d="M100.92 84.5829C97.1102 84.4116 93.3008 86.3534 91.254 89.5517C89.4346 92.4073 89.3778 95.834 90.9697 98.861C92.448 101.545 95.1202 103.087 98.361 103.087C98.5316 103.087 98.759 103.087 98.9296 103.087C103.535 102.859 108.197 99.7176 109.732 95.834C110.756 93.3782 110.585 90.9224 109.277 88.8663C107.742 86.4105 104.501 84.7543 100.92 84.5829ZM105.582 94.1206C104.672 96.348 101.545 98.404 98.7022 98.5183C96.9396 98.6325 95.6888 98.0043 95.0065 96.6907C93.9263 94.6918 94.4948 93.0355 95.1202 91.9504C96.2005 90.237 98.3042 89.0948 100.408 89.0948C100.522 89.0948 100.578 89.0948 100.692 89.0948C102.796 89.209 104.729 90.0657 105.468 91.3221C105.98 92.1217 106.037 93.0355 105.582 94.1206Z" fill="#9F895B"/>
<path d="M66.0099 107.885C66.7491 108.056 67.545 108.113 68.341 108.113C71.8093 108.113 75.3343 106.571 77.2106 104.115C78.6889 102.173 79.1437 99.9461 78.4614 97.833C77.6654 95.2629 75.2206 93.0356 72.1504 92.0076C68.8527 90.9224 65.0434 91.722 62.5417 94.0636C60.2675 96.1767 59.3578 99.1465 60.0969 102.173C60.7223 105.143 62.8828 107.199 66.0099 107.885ZM65.6119 97.4332C66.5216 96.5765 67.8293 96.1196 69.137 96.1196C69.7056 96.1196 70.2173 96.1767 70.7859 96.3481C72.4347 96.8621 73.7992 98.0614 74.1972 99.2037C74.3109 99.6606 74.4246 100.346 73.6855 101.317C72.4347 102.916 69.4213 103.887 67.0902 103.373C65.6688 103.087 64.816 102.345 64.5885 101.145C64.0768 99.375 64.8728 98.1185 65.6119 97.4332Z" fill="#9F895B"/>
<path d="M43.7792 77.1013C41.7892 77.2726 40.1404 78.2435 39.2307 79.8998C38.1504 81.8416 38.1504 84.5259 39.2307 86.9246C40.4247 89.4946 42.9832 91.3222 45.7691 91.5506C45.9966 91.5506 46.1671 91.5506 46.3946 91.5506C48.6688 91.5506 50.7156 90.4655 52.0233 88.4666C53.3879 86.4105 53.4447 83.9547 52.0802 81.6702C50.3745 78.7575 46.7925 76.8157 43.7792 77.1013ZM48.214 85.8965C47.7022 86.639 46.9631 87.0388 46.1103 86.9246C44.9731 86.8103 43.836 86.0108 43.3243 84.9256C42.8695 83.8976 42.7558 82.6983 43.1538 82.1271C43.2106 82.0129 43.3812 81.6702 44.1772 81.6131C45.4849 81.4989 47.3611 82.584 48.1571 83.9547C48.7825 85.097 48.3845 85.6681 48.214 85.8965Z" fill="#9F895B"/>
<path d="M96.3143 58.7112C96.428 58.7112 96.5986 58.7112 96.7692 58.7112C100.124 58.5399 103.478 56.2554 104.615 53.3998C105.354 51.5151 105.241 49.6304 104.274 48.0884C103.08 46.2037 100.692 45.0043 98.0769 44.833C95.2341 44.7188 92.4481 46.1466 90.9699 48.4881C89.6053 50.6584 89.5485 53.1713 90.7424 55.4558C91.8227 57.569 93.8695 58.7112 96.3143 58.7112ZM94.7792 51.0011C95.3478 50.0873 96.4849 49.4591 97.6789 49.4591C97.7357 49.4591 97.7926 49.4591 97.8495 49.4591C98.9866 49.5162 100.067 49.9731 100.408 50.6013C100.465 50.7155 100.692 51.0582 100.408 51.7435C99.8963 52.9429 98.0769 54.1422 96.4849 54.1994C95.2341 54.2565 94.8929 53.6282 94.7224 53.3998C94.2675 52.5431 94.3244 51.7435 94.7792 51.0011Z" fill="#9F895B"/>
</g>
<defs>
<clipPath id="clip0">
<rect width="153" height="159" fill="white"/>
</clipPath>
</defs>
</svg>
