<svg width="175" height="121" viewBox="0 0 175 121" fill="none" xmlns="http://www.w3.org/2000/svg">
<g clip-path="url(#clip0)">
<path d="M169.421 102.279C168.581 101.023 167.501 100.006 166.301 99.2284C165.761 98.8695 165.281 98.6303 164.801 98.391C158.682 95.6397 134.025 93.307 128.325 93.5462C125.326 93.6659 122.926 94.0845 120.826 94.8023C119.866 95.1612 118.906 95.5799 117.947 96.0584L117.887 96.1182C117.407 96.4172 116.747 96.8359 116.147 97.2546C115.607 97.6733 115.127 98.1518 114.647 98.6303C113.327 96.2378 111.227 94.264 108.828 93.2472C102.528 90.6752 77.1512 89.18 71.3319 89.5986C68.7522 89.7781 60.9531 90.3762 56.6336 96.4172C56.4536 96.6565 56.2736 96.8957 56.1536 97.1948C55.0737 95.9387 53.6939 94.9219 52.2541 94.3238C46.4347 91.9313 23.0974 90.5556 17.698 90.9743C15.2983 91.1538 8.03912 91.6921 4.01958 97.3144C3.23967 98.391 2.69973 99.5873 2.33977 100.843C0.839941 106.406 3.17967 111.37 8.33908 113.583C12.4186 115.378 17.1581 115.497 21.2976 115.617C22.2575 115.617 23.1574 115.677 24.0573 115.737C26.0371 115.856 28.0768 115.856 30.1166 115.856C35.8159 115.856 41.5153 115.497 47.1546 114.72C50.3943 114.301 53.7539 113.643 56.3936 110.892C56.4536 110.832 56.5136 110.772 56.5736 110.653C57.3535 111.669 58.3734 112.447 59.6332 112.925C65.6925 115.258 75.0515 116.215 84.5904 116.215C91.1296 116.215 97.7289 115.737 103.428 114.959C106.488 114.54 109.667 113.942 112.307 111.789C113.147 113.703 114.527 115.198 116.267 115.976C121.666 118.249 127.485 118.966 133.065 119.684C133.725 119.744 134.325 119.864 134.985 119.923C140.024 120.581 145.063 120.88 150.163 120.88C152.743 120.88 155.382 120.821 157.962 120.641C160.062 120.522 162.281 120.282 164.501 119.325C168.101 117.77 170.561 114.66 171.22 110.832C171.76 108.021 171.22 105.09 169.781 102.697C169.661 102.578 169.541 102.398 169.421 102.279ZM52.914 107.662C51.3542 109.277 49.0744 109.696 46.4947 110.054C39.1156 111.071 31.6764 111.37 24.2973 111.011C23.3374 110.952 22.3775 110.952 21.4176 110.892C17.518 110.772 13.4385 110.653 10.1989 109.277C6.17933 107.542 6.4193 104.073 6.95924 102.159C7.13922 101.441 7.49918 100.724 7.91913 100.126C9.77892 97.5536 13.0185 96.1182 18.058 95.7593C18.7779 95.6995 19.7378 95.6995 20.8177 95.6995C29.0367 95.6995 46.4347 97.1948 50.4543 98.8097C52.1941 99.5275 53.7539 101.501 54.1738 103.475C54.4738 105.09 54.0539 106.525 52.914 107.662ZM102.708 110.353C87.0501 112.507 69.5921 111.729 61.313 108.559C59.5132 107.901 58.6733 104.492 59.4532 101.501C59.6932 100.664 60.0532 99.8863 60.5331 99.2284C62.5729 96.3574 66.1725 94.8023 71.6918 94.3836C77.6911 93.9051 101.748 95.52 107.028 97.6733C109.008 98.4508 110.747 100.664 111.227 102.877C111.587 104.671 111.167 106.286 109.847 107.662C108.108 109.516 105.588 109.935 102.708 110.353ZM166.481 110.114C166.061 112.387 164.681 114.181 162.581 115.079C161.082 115.737 159.402 115.856 157.662 115.976C150.343 116.454 142.904 116.215 135.645 115.318C134.985 115.258 134.325 115.138 133.725 115.079C128.445 114.421 122.986 113.763 118.187 111.729C116.927 111.191 116.327 109.337 116.267 107.782C116.207 106.825 116.327 105.748 116.627 104.791C116.867 104.013 117.227 103.296 117.707 102.638C118.187 102.04 118.666 101.501 119.266 101.083C119.626 100.784 120.106 100.484 120.466 100.245C121.126 99.8863 121.786 99.5873 122.506 99.348C124.186 98.7499 126.166 98.4508 128.685 98.3312C134.505 98.092 157.962 100.484 163.001 102.757H163.061C163.241 102.817 163.541 102.997 163.841 103.236C164.561 103.654 165.101 104.253 165.581 104.911L165.761 105.15C166.481 106.585 166.781 108.38 166.481 110.114Z" fill="#9F895B"/>
<path d="M4.07949 72.1932C4.97939 72.7914 5.93928 73.3297 6.89917 73.6885C7.5591 73.9278 8.27901 74.1072 8.81895 74.2268H8.87895C9.83884 74.4063 10.8587 74.5259 11.8186 74.5857C12.1186 74.5857 12.3585 74.5857 12.6585 74.5857C14.5783 74.5857 16.738 74.3465 19.2578 73.7484C24.8371 72.5521 48.1745 64.5971 53.5738 60.8887C53.9938 60.5897 54.4137 60.2906 54.8337 59.9317C55.9136 58.9747 56.7535 57.8383 57.3534 56.5823C57.4134 56.4626 57.5334 56.2832 57.5934 56.0439C58.6133 53.5916 58.5533 50.8403 57.5334 48.5674C56.0936 45.3974 53.0939 43.304 49.2543 42.8853C47.0346 42.646 44.8148 43.0049 42.7751 43.4236C35.3359 44.8591 27.8968 46.9525 20.7576 49.5842C20.1577 49.8235 19.5577 50.0029 18.9578 50.2422C13.6184 52.216 8.15903 54.1898 3.35958 57.4196C0.839864 59.0944 -0.359999 62.085 0.0599534 65.3746C0.239933 66.7503 0.719878 68.1858 1.49979 69.4419C2.21971 70.5185 3.05961 71.4157 4.07949 72.1932ZM6.05927 61.3672C10.3788 58.4962 15.5982 56.5823 20.6376 54.7281C21.2375 54.4888 21.8375 54.2496 22.4974 54.0701C29.3966 51.4982 36.5958 49.5244 43.795 48.0889C45.5348 47.7301 47.2746 47.431 48.8344 47.6104C50.9941 47.8497 52.554 48.8665 53.2739 50.4814C53.8138 51.6178 53.8138 52.9935 53.2739 54.2496L53.1539 54.4888C52.8539 55.1468 52.374 55.7449 51.7141 56.343C51.4741 56.5823 51.2341 56.7617 51.0541 56.8813H50.9941C46.4946 59.9915 24.0572 67.7671 18.3579 69.0232C15.8981 69.5615 13.9184 69.8007 12.1186 69.7409C11.3987 69.7409 10.6787 69.6213 9.95882 69.5017C9.53887 69.3821 9.05892 69.2624 8.63897 69.1428C8.03904 68.9036 7.4991 68.6643 6.95916 68.2456C6.41923 67.8868 5.99927 67.4083 5.69931 66.9298C5.27936 66.2718 5.03938 65.4943 4.9194 64.7765C4.73942 64.0588 4.67943 62.3242 6.05927 61.3672Z" fill="#9F895B"/>
<path d="M174.34 34.3321C173.2 31.2219 170.8 28.65 168.161 27.7528C163.001 26.0182 143.924 27.2743 139.424 28.3509C134.025 29.607 130.545 32.1789 128.685 36.3059C128.205 37.3825 127.845 38.5788 127.665 39.775C127.186 43.0647 127.845 46.1749 129.525 48.3282C131.205 50.5412 134.025 51.7973 137.624 52.0365C139.064 52.1561 140.564 52.1561 142.064 52.1561C149.743 52.1561 157.842 50.8403 166.121 48.2684C168.101 47.6702 171.4 46.6534 173.44 43.3638C175.18 40.6722 175.48 37.4424 174.34 34.3321ZM169.421 40.8516C168.401 42.5264 166.781 43.1245 164.741 43.7226C155.382 46.5936 146.383 47.7899 137.984 47.2515C136.724 47.1917 134.505 46.8329 133.365 45.3974C132.525 44.3208 132.165 42.4068 132.465 40.4928C132.585 39.7152 132.825 38.9377 133.065 38.2797C134.265 35.5882 136.544 33.9732 140.504 33.0761C143.564 32.3583 152.083 31.7602 158.682 31.7602C162.281 31.7602 165.341 31.9396 166.661 32.3583C167.681 32.7172 169.121 33.9732 169.841 36.0069C170.261 37.2031 170.561 38.9975 169.421 40.8516Z" fill="#9F895B"/>
<path d="M23.6372 22.0109C24.1172 22.3697 24.5371 22.7286 24.9571 23.0875C32.5762 29.4874 41.0352 34.3322 49.2543 38.9377C51.654 40.3134 54.6537 41.9881 58.0133 41.9881C58.1933 41.9881 58.3732 41.9881 58.6132 41.9881C60.0531 41.9283 61.3729 41.4498 62.5128 40.7321C62.7527 41.5096 63.0527 42.2872 63.4127 43.0049C65.4524 46.7133 70.0119 48.4478 73.3715 49.7039C73.9115 49.8833 74.3914 50.1226 74.8714 50.302C83.7503 53.8907 93.1093 55.6253 102.108 57.3C103.668 57.5991 105.408 57.8981 107.208 57.8981C108.707 57.8981 110.267 57.6589 111.827 57.001C114.587 55.8047 116.507 53.2926 117.167 50.1226C117.886 46.5937 116.867 42.8255 114.527 40.3732C112.187 37.9209 109.127 36.8443 106.668 35.9471C98.8686 33.1359 90.8895 30.9229 83.0304 29.4276C82.2505 29.3079 81.3506 29.0687 80.4507 28.8294C76.0712 27.8126 70.6718 26.5566 66.4723 29.0687C66.2923 28.4108 65.9924 27.7528 65.6924 27.1547C64.1326 24.1043 61.4929 22.0707 59.3931 20.3959C52.5539 14.953 45.5347 10.2279 38.3955 6.16063C37.6756 5.74194 36.8957 5.26344 36.0558 4.72513C31.9763 2.15321 26.9368 -1.01683 22.0774 0.358847C17.6379 1.6149 14.6982 7.41668 15.9581 12.5007C16.978 16.5679 20.6376 19.6184 23.6372 22.0109ZM68.6921 33.2555C69.652 32.5976 70.9718 32.2985 72.3516 32.2985C74.5714 32.2985 77.0911 32.8967 79.2509 33.435C80.2108 33.6742 81.1706 33.9135 82.0705 34.0331C89.6897 35.4686 97.3688 37.562 104.988 40.3134C107.208 41.0909 109.427 41.9283 110.987 43.5432C112.247 44.8591 112.787 47.0123 112.427 49.0459C112.067 50.7207 111.167 51.9767 109.907 52.5151C107.868 53.4122 105.288 52.9337 103.008 52.5151C94.2491 50.9001 85.1902 49.2254 76.7311 45.8161C76.2512 45.6367 75.7113 45.3974 75.1113 45.1582C72.3516 44.0815 68.872 42.7657 67.6722 40.6124C66.2323 38.2798 66.8323 34.5116 68.6921 33.2555ZM23.3373 4.90457C23.6972 4.84476 24.0572 4.78495 24.4171 4.78495C27.1168 4.78495 30.5964 6.93818 33.4761 8.73255C34.376 9.27086 35.2159 9.80917 35.9958 10.2877C42.955 14.2353 49.7942 18.9006 56.3935 24.0445C58.3133 25.5398 60.293 27.1547 61.4329 29.2481C62.3928 31.0425 62.3328 33.3752 61.3129 35.1097C60.893 35.8275 59.9331 37.0835 58.3133 37.1433C56.1535 37.263 53.7538 35.9471 51.654 34.7508C43.6149 30.2051 35.3359 25.5398 28.1367 19.4389C27.7168 19.0801 27.2368 18.7212 26.7569 18.3025C24.3571 16.3287 21.2975 13.8764 20.6976 11.3045C19.9776 8.79236 21.3575 5.50269 23.3373 4.90457Z" fill="#9F895B"/>
</g>
<defs>
<clipPath id="clip0">
<rect width="175" height="121" fill="white"/>
</clipPath>
</defs>
</svg>
