<svg width="103" height="168" viewBox="0 0 103 168" fill="none" xmlns="http://www.w3.org/2000/svg">
<g clip-path="url(#clip0)">
<path d="M102.952 46.2398C102.71 45.1768 101.694 44.5487 100.631 44.7903C98.793 45.1768 96.9555 45.2735 95.1179 45.0319C93.1836 44.7903 91.2494 44.1622 89.6536 43.5824C89.2184 43.4374 88.7348 43.2441 88.2996 43.0992C86.7522 42.5194 85.1081 41.9396 83.2705 41.5047C82.6419 41.3598 81.9649 41.2148 81.1912 41.1182C80.6109 41.0215 79.9822 41.0215 79.402 41.0215C78.8217 36.5763 77.0808 32.7109 74.0344 29.0871C72.4869 27.251 70.6494 25.6566 68.6184 24.4003C68.9569 24.1587 69.2954 23.9171 69.6339 23.6755C70.9395 22.8058 72.2451 22.0811 73.5024 21.308C74.0344 20.9698 74.5663 20.6799 75.0982 20.39C76.8874 19.327 78.725 18.1673 80.4174 16.7661C82.5452 14.9784 83.8991 13.239 84.6729 11.2579C85.0597 10.2433 84.5761 9.13197 83.5606 8.74543C82.5452 8.35889 81.4329 8.84207 81.0461 9.85674C80.5142 11.2096 79.4987 12.4659 77.9029 13.7705C76.5006 14.9301 74.9531 15.8964 73.0672 17.056C72.5353 17.346 72.0517 17.6842 71.5198 17.9741C70.2142 18.7472 68.8602 19.5202 67.4578 20.4383C66.5874 21.0181 65.6686 21.6462 64.7498 22.4193C60.7846 20.7765 56.5292 19.9551 52.2738 19.8585V19.8101C51.8869 18.6022 52.3221 14.4952 54.4498 10.4849C55.7555 8.06899 58.125 4.92835 62.0419 3.81705C63.0574 3.52714 63.6376 2.46416 63.3475 1.40117C63.0574 0.386505 61.9935 -0.193305 60.9297 0.0965996C56.8193 1.30454 53.386 4.2519 51.0165 8.6488C48.7921 12.7558 47.97 17.2976 48.3085 20.0034C42.0221 20.4866 35.8808 22.371 30.9001 25.0768C30.078 23.3856 29.4977 21.5496 29.1109 19.3753C28.724 17.201 28.579 14.8334 28.724 12.2243C28.8691 10.05 29.1109 7.58581 30.0297 5.45984C30.4649 4.49349 29.9813 3.33387 29.0142 2.89902C28.047 2.46416 26.8865 2.94733 26.4513 3.91368C25.2907 6.57115 25.0005 9.4702 24.8555 11.9827C24.7104 14.9301 24.8555 17.5875 25.2907 20.0517C25.7743 22.7092 26.548 24.9801 27.6118 27.1061C22.7761 30.4883 18.3757 34.9818 14.8456 40.1518C14.5555 40.0069 14.3621 39.9102 14.1203 39.717C13.8785 39.572 13.6367 39.3787 13.2015 39.1371C10.9287 37.7359 8.99445 35.9482 7.49539 34.0155C5.94797 31.9862 4.88412 29.7636 4.40055 27.5409C4.40055 27.4926 4.35219 27.4443 4.35219 27.396C4.11041 26.6229 4.0137 25.7532 3.96534 24.7868C3.91698 24.4969 3.91698 24.207 3.86863 23.9171C3.82027 23.1924 3.86863 22.4676 3.91698 21.6945C3.91698 21.2114 3.96534 20.7765 3.96534 20.2933C3.96534 19.2303 3.14327 18.3606 2.07942 18.3123C2.07942 18.3123 2.07942 18.3123 2.03107 18.3123C0.967216 18.3123 0.0967939 19.182 0.0967939 20.1967C0.0967939 20.6315 0.0484371 21.0181 0.0484371 21.4529C8.03131e-05 22.3227 -0.0482765 23.2407 0.0484371 24.207C0.0484371 24.2554 0.0484371 24.2554 0.0484371 24.3037C0.0967939 24.5936 0.0967939 24.8352 0.145151 25.1251C0.241864 26.1397 0.338578 27.2994 0.677076 28.4107C1.25736 31.1164 2.56299 33.8705 4.44891 36.2864C6.23811 38.654 8.51088 40.6833 11.2189 42.3744C11.5574 42.5677 11.7991 42.761 11.9926 42.8576C12.2827 43.0509 12.4761 43.1958 12.8146 43.3408C10.6869 46.9163 8.99445 50.7817 7.73717 54.8403C5.94797 60.5418 4.93248 66.5815 4.59398 72.8145C3.62684 91.9482 9.96158 112.386 22.4376 130.361C29.9329 141.184 38.6855 150.074 48.4536 156.79C55.2719 161.477 66.394 167.952 75.8236 167.952C79.0635 167.952 82.1099 167.179 84.7212 165.342C88.1062 162.927 89.5085 159.11 90.0888 156.307C92.5067 144.856 87.0907 133.646 82.3517 123.838C80.901 120.842 79.547 117.991 78.3865 115.189L78.193 114.802C74.2761 105.284 70.2142 95.427 69.924 85.232C69.7306 78.9025 72.1001 72.283 74.663 65.2286C75.4851 63.006 76.2588 60.7834 76.9841 58.5125L78.048 59.044C78.0963 59.044 78.0963 59.0923 78.1447 59.0923C79.9339 59.9137 82.0132 60.5418 84.3827 60.9767C86.0268 61.2666 87.671 61.4115 89.2668 61.4115C89.8954 61.4115 90.524 61.4115 91.1527 61.3632C93.9574 61.1216 96.2301 60.4935 98.2128 59.3339C99.1315 58.8024 99.4217 57.5944 98.8898 56.6764C98.3578 55.7584 97.1489 55.4685 96.2301 56C94.7794 56.8214 93.0386 57.3528 90.8625 57.4978C89.025 57.6428 87.0907 57.5461 85.0597 57.2079C83.0771 56.8697 81.2879 56.3382 79.8372 55.6617L78.7733 55.1302C78.6766 55.0336 78.5315 54.9853 78.3865 54.8887C78.2898 54.8403 78.2414 54.792 78.1447 54.7437C79.0151 51.4581 79.5954 48.1725 79.6437 44.9352C80.0306 44.9352 80.3207 44.9352 80.6109 44.9836C80.6592 44.9836 80.7076 44.9836 80.7076 44.9836C81.2879 45.0319 81.8198 45.1285 82.3034 45.2735C83.9959 45.66 85.4949 46.1915 86.9456 46.723C87.4292 46.9163 87.9128 47.0612 88.348 47.2545C90.1372 47.8826 92.2649 48.6074 94.586 48.8973C95.4564 48.9939 96.3268 49.0906 97.1973 49.0906C98.5996 49.0906 100.05 48.9456 101.453 48.6074C102.517 48.3175 103.194 47.3028 102.952 46.2398ZM75.7752 45.4184C75.6301 48.6074 74.9048 51.9413 73.9376 55.2752C73.1156 58.1259 72.0517 61.025 71.0362 63.924C70.4076 65.6151 69.8273 67.3546 69.247 69.0457C67.4095 74.4572 65.9588 79.9654 66.1038 85.3287C66.2489 90.7886 67.4095 96.0552 69.0052 101.177C70.601 106.298 72.632 111.324 74.663 116.252L74.8564 116.687C76.0653 119.586 77.4677 122.485 78.9184 125.529C83.609 135.289 88.493 145.387 86.3653 155.534C85.9301 157.66 84.8663 160.559 82.5452 162.202C79.8855 164.086 76.5005 164.424 72.8738 163.893C64.7015 162.637 55.3203 156.839 50.678 153.65C42.7959 148.19 35.5423 141.28 29.1109 132.97C27.902 131.424 26.7414 129.829 25.6292 128.235C13.54 110.937 7.44703 91.3201 8.41416 73.056C8.70431 67.1613 9.7198 61.4598 11.4123 56.0483C12.8146 51.6031 14.7973 47.3511 17.2635 43.534C20.7935 38.0258 25.339 33.2907 30.5132 29.8602C30.8517 29.6669 31.1419 29.4253 31.4804 29.2321C35.639 26.6712 40.9099 24.7868 46.3743 24.0138C48.0184 23.7722 49.7109 23.6755 51.4034 23.6755C55.7071 23.6755 59.9625 24.4486 63.8794 26.1881C64.1212 26.3813 64.4113 26.5263 64.7015 26.5746C65.1367 26.7679 65.5719 27.0095 66.0071 27.251C67.9898 28.3623 69.6822 29.8119 71.1329 31.503C72.3902 33.0008 73.4057 34.5953 74.1311 36.2381C74.8564 37.8326 75.34 39.4754 75.5818 41.4081V41.4564C75.7752 42.8093 75.8236 44.1139 75.7752 45.4184Z" fill="#9F895B"/>
<path d="M51.742 29.522C50.6298 29.3287 49.4692 29.2321 48.3086 29.2321C47.8251 29.2321 47.2932 29.2321 46.8096 29.2804C39.7978 29.7635 33.8983 33.5806 30.9002 35.9482C22.9213 42.2295 17.6988 51.2648 16.6349 60.6868C16.0063 66.2916 16.6833 71.8964 18.6659 76.4383C21.7608 83.6859 29.8363 88.5176 38.734 88.5176C48.0185 88.5176 56.9162 83.0578 61.9453 74.264C63.0091 72.3796 63.8795 70.4469 64.5565 68.5625C65.8622 64.9387 66.5392 61.5081 66.926 58.899C67.6997 54.1156 68.3284 47.8343 66.1523 41.9396C63.8312 35.465 58.2701 30.6816 51.742 29.522ZM63.1542 58.2709C62.3805 63.1026 61.1232 67.9344 58.6086 72.3313C54.7401 79.0474 47.5349 84.6522 38.7824 84.6522C31.4321 84.6522 24.7589 80.8352 22.2443 74.9404C20.4551 70.7368 19.9716 65.7118 20.5035 61.1216C21.4706 52.811 26.0645 44.6937 33.318 38.9922C37.5251 35.7066 42.941 33.0975 48.3086 33.0975C49.2274 33.0975 50.1462 33.1941 51.065 33.339C56.6744 34.3537 60.8331 38.509 62.5739 43.2441C64.3147 47.9792 63.9763 53.2459 63.1542 58.2709Z" fill="#9F895B"/>
<path d="M34.1399 103.786C35.107 98.7609 31.722 94.2191 26.1126 93.0111C25.5324 92.8662 24.9037 92.8179 24.2751 92.8179C22.0023 92.8179 19.8746 93.6876 18.3272 95.2337C15.6676 97.9395 15.0389 102.288 16.8765 105.67C17.8436 107.458 19.391 108.908 21.3737 109.826C22.776 110.502 24.2267 110.84 25.6774 110.84C26.4995 110.84 27.2732 110.744 28.0469 110.502C31.1418 109.632 33.5112 107.023 34.1399 103.786ZM30.3197 103.061C29.9812 104.849 28.6272 106.347 26.9831 106.782C26.5479 106.878 26.1126 106.975 25.6774 106.975C24.7587 106.975 23.8399 106.733 23.0178 106.347C21.9056 105.815 20.8901 104.946 20.2615 103.834C19.246 101.95 19.6328 99.4374 21.0835 97.9395C21.954 97.0698 23.1145 96.635 24.2751 96.635C24.6136 96.635 24.9521 96.6833 25.2906 96.7316C28.192 97.408 30.9967 99.6306 30.3197 103.061Z" fill="#9F895B"/>
<path d="M44.8753 117.363C44.5851 117.218 44.295 117.073 43.9565 116.977C43.0377 116.638 42.0222 116.494 40.9584 116.494C38.3471 116.494 35.7842 117.557 33.995 119.393C32.4959 120.939 31.5288 122.92 31.1903 125.191C30.8034 127.703 31.287 130.167 32.5926 132.052C34.1884 134.419 37.0415 135.869 40.0396 135.869C40.4748 135.869 40.91 135.821 41.3452 135.772C45.0203 135.241 47.4382 132.97 48.6955 130.167C49.4692 128.331 49.8077 126.302 49.6142 124.321C49.3724 121.325 47.5349 118.668 44.8753 117.363ZM40.8133 132.003C40.5715 132.052 40.3297 132.052 40.0879 132.052C38.3955 132.052 36.7513 131.23 35.8325 129.926C35.0105 128.718 34.8171 127.22 35.0588 125.77C35.2523 124.418 35.8325 123.113 36.7997 122.098C37.8635 120.987 39.4593 120.359 41.0067 120.359C41.7804 120.359 42.5541 120.504 43.2311 120.842C44.7302 121.567 45.649 123.065 45.794 124.708C46.0842 127.848 44.6335 131.424 40.8133 132.003Z" fill="#9F895B"/>
<path d="M61.4616 114.126C63.1057 112.29 64.1212 109.729 64.3146 106.733C64.4597 104.849 64.2179 103.013 63.7343 101.273C63.4442 100.21 63.009 99.1475 62.4287 98.1811C60.301 94.4607 56.4808 92.0448 52.6606 91.9965H52.5639C49.8559 91.9965 47.5348 93.0111 45.8423 94.9922C43.5695 97.553 42.6508 101.612 43.231 106.153C43.7146 109.729 45.6489 113.111 48.4052 115.092C48.7437 115.334 49.0822 115.575 49.4691 115.769C51.0648 116.638 52.854 117.122 54.6432 117.122C57.2062 117.122 59.7207 116.01 61.4616 114.126ZM47.0029 105.622C46.3742 100.887 47.8249 95.9102 52.5155 95.9102H52.6123C55.0301 95.9585 57.6414 97.6496 59.0921 100.114C60.2043 102.047 60.5911 104.366 60.4461 106.492C60.301 108.424 59.7207 110.26 58.6085 111.565C57.593 112.676 56.1423 113.256 54.5949 113.256C53.2409 113.256 51.8385 112.821 50.6296 111.952C48.647 110.502 47.3414 108.038 47.0029 105.622Z" fill="#9F895B"/>
<path d="M54.9817 128.525C54.5465 129.153 54.208 129.781 53.9179 130.457C53.2409 132.293 53.2409 134.274 54.0146 136.11C55.2719 139.106 58.4151 141.135 61.8001 141.135C62.0902 141.135 62.3803 141.135 62.6705 141.087C63.4926 140.99 64.3146 140.797 65.0883 140.459C66.1038 140.024 67.071 139.444 67.9414 138.671C69.6822 137.173 70.7461 135.192 71.0362 133.163C71.4231 130.119 69.9724 127.075 67.3127 125.384C65.9587 124.514 64.4113 124.079 62.8639 124.079C59.8658 124.176 56.916 125.819 54.9817 128.525ZM67.1677 132.776C67.0226 133.984 66.2972 135.047 65.3785 135.869C64.508 136.642 63.4442 137.173 62.2836 137.318C62.1386 137.318 61.9935 137.318 61.8484 137.318C60.0592 137.318 58.3184 136.207 57.6414 134.661C57.1094 133.405 57.3512 131.907 58.1733 130.795C59.2855 129.249 61.0264 128.041 62.8639 128.041C63.6376 128.041 64.4597 128.283 65.2334 128.766C66.539 129.636 67.3611 131.23 67.1677 132.776Z" fill="#9F895B"/>
<path d="M65.0399 150.219C64.4112 153.118 65.0882 156.162 66.8774 158.385C68.3765 160.269 70.6493 161.429 73.0671 161.622C73.2605 161.622 73.5023 161.67 73.7441 161.67C75.1464 161.67 76.5004 161.332 77.661 160.656C79.4986 159.641 80.9493 157.998 81.9164 155.824C82.9319 153.553 83.222 151.137 82.7385 148.915C82.0131 145.581 79.4985 142.827 76.3554 141.909C75.5816 141.667 74.8079 141.57 74.0342 141.57C72.8253 141.57 71.6648 141.86 70.6009 142.343C67.8929 143.648 65.8136 146.45 65.0399 150.219ZM73.9859 145.436C74.3727 145.436 74.8079 145.484 75.2432 145.629C77.0324 146.112 78.4831 147.803 78.9183 149.736C79.2568 151.234 78.9666 152.877 78.338 154.23C77.7577 155.486 76.8873 156.597 75.7267 157.225C75.0981 157.563 74.3727 157.757 73.6474 157.757C72.245 157.757 70.7943 157.08 69.8272 155.921C68.7633 154.568 68.4248 152.683 68.7633 150.992C69.4403 148.141 71.2295 145.436 73.9859 145.436Z" fill="#9F895B"/>
<path d="M51.0166 40.2002C50.533 40.2002 50.0011 40.2485 49.5175 40.3451C46.471 40.9733 44.0048 43.4858 43.086 46.8197C42.6508 48.3659 42.6025 49.7671 42.5541 51.0716C42.5541 51.6031 42.5058 52.1346 42.4574 52.5695C42.1189 55.5652 40.7166 58.0294 37.8635 60.4452C35.2522 62.6678 33.6081 66.2917 33.7048 69.4806C33.8015 71.9931 34.8654 74.1674 36.7996 75.6653C38.202 76.7282 39.9912 77.308 41.9255 77.308C43.3278 77.308 44.7785 77.0181 46.0842 76.39C48.1151 75.5203 50.0011 73.9258 51.7903 71.7032C53.6278 69.384 55.0785 66.7265 55.9973 64.8904C58.125 60.6868 59.3823 56.0483 59.5757 51.5065C59.6724 49.4772 59.5757 46.8197 58.1734 44.3555C56.6259 41.8913 53.8212 40.2002 51.0166 40.2002ZM55.6588 51.4099C55.4654 55.4685 54.4015 59.5272 52.5156 63.2476C51.5968 65.0837 50.3396 67.403 48.7438 69.384C47.5349 70.9301 46.0842 72.2347 44.4884 72.9595C43.6663 73.2977 42.7959 73.491 41.9255 73.491C40.91 73.491 39.9428 73.2494 39.1691 72.6213C36.1227 70.302 37.9602 65.5186 40.3781 63.4409C43.7147 60.5902 45.8424 57.3529 46.3259 53.0043C46.5194 51.3132 46.3743 49.5255 46.8579 47.8827C47.2931 46.1916 48.5504 44.5488 50.2912 44.1622C50.533 44.1139 50.7748 44.1139 51.0166 44.1139C52.564 44.1139 54.0147 45.1286 54.7884 46.4332C55.6105 47.8827 55.7072 49.6704 55.6588 51.4099Z" fill="#9F895B"/>
</g>
<defs>
<clipPath id="clip0">
<rect width="103" height="168" fill="white"/>
</clipPath>
</defs>
</svg>
