<svg width="170" height="170" viewBox="0 0 170 170" fill="none" xmlns="http://www.w3.org/2000/svg">
<g clip-path="url(#clip0)">
<path d="M55.5318 62.7061C56.1701 62.7061 56.9503 62.6353 57.7304 62.4938C64.3971 61.2906 70.4254 57.0441 73.8297 51.1699C74.3262 50.2498 74.6808 49.4713 74.9645 48.6928C75.2481 47.9142 75.39 47.2065 75.39 46.4987C75.6028 43.1724 73.9715 41.5445 72.9786 40.8368C71.1347 39.5629 68.5106 39.4213 65.8864 40.6245C61.5602 42.5354 57.4467 45.2956 54.1134 48.6928C52.3404 50.4621 48.2269 55.9825 50.3545 60.0167C51.0638 61.2906 52.5531 62.7061 55.5318 62.7061ZM58.156 52.6561C60.9928 49.7544 64.468 47.4188 68.1559 45.791C68.7233 45.5079 69.2198 45.4371 69.4325 45.4371C69.5035 45.4371 69.5744 45.4371 69.6453 45.4371C69.6453 45.5787 69.7162 45.791 69.7162 46.1449C69.7162 46.3572 69.6453 46.6403 69.5744 46.9234C69.4325 47.348 69.2198 47.7727 68.8652 48.3389C66.312 52.7977 61.773 55.9825 56.6666 56.9026C56.0992 56.9734 55.7446 57.0441 55.4609 57.0441C55.8155 55.9825 56.8084 54.0716 58.156 52.6561Z" fill="#9F895B"/>
<path d="M50.6383 93.9883C54.3263 88.3264 55.3901 81.0366 53.4752 74.5961C53.1915 73.6053 52.8369 72.8268 52.4823 72.119C52.1277 71.4113 51.7021 70.7743 51.2057 70.2789C48.9362 67.8726 46.5958 67.8726 45.3901 68.1557C43.1915 68.6511 41.3475 70.4205 40.3546 73.1099C38.7234 77.5687 38.0142 82.4521 38.1561 87.194C38.227 89.6711 39.4327 96.4654 43.8298 97.6686C44.2553 97.8101 44.6809 97.8809 45.1064 97.8809C46.7376 97.8101 48.6525 97.0316 50.6383 93.9883ZM45.8865 90.945C45.6029 91.3697 45.3192 91.7235 45.1773 91.8651C44.61 90.945 43.9007 88.8926 43.8298 86.9816C43.688 82.9475 44.3263 78.7718 45.6738 75.0208C45.9575 74.2423 46.3121 73.8176 46.4539 73.7468C46.5248 73.8176 46.7376 73.9592 47.0213 74.1715C47.1631 74.313 47.305 74.5254 47.4468 74.8085C47.6596 75.1623 47.8014 75.6578 48.0142 76.2947C49.5036 81.1074 48.7234 86.6278 45.8865 90.945Z" fill="#9F895B"/>
<path d="M57.5178 102.481C56.5248 102.127 55.6738 101.915 54.8936 101.774C54.1135 101.632 53.3334 101.632 52.6241 101.703C49.2908 102.057 47.9433 103.968 47.4468 105.029C46.5248 107.082 46.8795 109.629 48.4397 112.036C51.0639 115.999 54.539 119.467 58.4397 122.227C59.9291 123.218 63.4043 125.058 66.5958 125.058C67.9433 125.058 69.2199 124.775 70.2837 123.926C71.7021 122.864 73.0497 120.599 71.4185 116.282C69.149 109.983 63.9007 104.817 57.5178 102.481ZM61.7022 117.627C58.3688 115.291 55.3901 112.319 53.1915 108.992C52.6951 108.285 52.6241 107.789 52.6241 107.577C52.766 107.506 52.9787 107.435 53.3334 107.435C53.5461 107.435 53.8298 107.435 54.1135 107.435C54.539 107.506 55.0355 107.648 55.6029 107.86C60.4256 109.629 64.3972 113.522 66.1702 118.335C66.383 118.83 66.4539 119.184 66.5248 119.467C65.3901 119.396 63.3334 118.689 61.7022 117.627Z" fill="#9F895B"/>
<path d="M105.177 116.919C98.7943 114.725 91.4184 115.433 85.6028 118.901C84.6808 119.396 84.0425 119.963 83.4042 120.458C82.8368 120.953 82.3404 121.59 81.9148 122.157C80.0709 124.988 80.7092 127.182 81.2056 128.243C82.1985 130.296 84.3971 131.64 87.234 131.923C88.5106 132.065 89.7163 132.136 90.9929 132.136C94.539 132.136 98.0851 131.64 101.489 130.72C103.901 130.012 110.213 127.252 110.355 122.723C110.425 120.883 109.574 118.405 105.177 116.919ZM99.9999 125.271C96.0992 126.403 91.9148 126.757 87.8723 126.332C87.0212 126.261 86.5957 125.978 86.4539 125.837C86.4539 125.695 86.5957 125.483 86.7375 125.2C86.8794 124.987 87.0212 124.846 87.234 124.634C87.5177 124.351 87.9432 124.067 88.5106 123.714C92.9078 121.095 98.4397 120.529 103.333 122.227C103.83 122.44 104.184 122.581 104.397 122.723C103.688 123.501 101.844 124.704 99.9999 125.271Z" fill="#9F895B"/>
<path d="M129.362 89.4588C127.943 88.3972 125.461 87.6187 121.631 90.2373C116.029 94.0591 112.341 100.429 111.631 107.152C111.56 108.214 111.489 109.063 111.631 109.842C111.702 110.62 111.915 111.328 112.128 112.036C113.333 115.15 115.461 115.999 116.667 116.212C117.021 116.282 117.376 116.282 117.66 116.282C119.575 116.282 121.56 115.291 123.192 113.522C126.383 109.983 128.936 105.808 130.568 101.278C131.49 98.9426 132.979 92.219 129.362 89.4588ZM125.319 99.2964C123.901 103.118 121.702 106.728 119.007 109.7C118.44 110.337 117.943 110.55 117.802 110.62C117.731 110.55 117.589 110.337 117.447 109.983C117.376 109.771 117.305 109.559 117.305 109.205C117.234 108.78 117.305 108.285 117.305 107.648C117.802 102.552 120.638 97.7394 124.894 94.8377C125.319 94.5546 125.674 94.3422 125.958 94.2007C126.099 95.3331 125.958 97.5271 125.319 99.2964Z" fill="#9F895B"/>
<path d="M120.567 80.2581C121.206 80.6828 121.915 81.1074 122.553 81.3198C123.546 81.6736 124.468 81.8152 125.248 81.8152C126.879 81.8152 128.085 81.1782 128.723 80.6828C130.496 79.2673 131.347 76.861 130.993 74.03C130.425 69.3589 128.936 64.617 126.667 60.4413C125.461 58.2473 121.418 52.7269 116.879 53.5762C115.106 53.9301 112.908 55.2748 112.34 59.8751C111.56 66.5987 113.83 73.6053 118.511 78.4888C119.22 79.1965 119.858 79.7627 120.567 80.2581ZM118.014 60.4413C118.085 59.8751 118.156 59.5213 118.227 59.2382C119.149 59.8043 120.709 61.3614 121.631 63.06C123.546 66.6695 124.823 70.6328 125.319 74.667C125.39 75.5163 125.248 76.0117 125.177 76.1532C125.035 76.1532 124.823 76.0825 124.468 76.0117C124.255 75.9409 124.043 75.7994 123.759 75.6578C123.404 75.4455 123.05 75.0916 122.624 74.5962C119.149 70.8451 117.447 65.5371 118.014 60.4413Z" fill="#9F895B"/>
<path d="M83.9715 48.5512C88.1559 51.9484 93.4751 53.8593 98.8652 53.8593C100.213 53.8593 101.631 53.7177 102.979 53.5054C103.972 53.2931 104.823 53.0808 105.603 52.7977C106.312 52.5146 107.021 52.1607 107.589 51.6653C110.284 49.6836 110.496 47.348 110.355 46.1449C110.142 43.8801 108.511 41.8984 105.957 40.6245C101.702 38.572 96.9503 37.2273 92.1276 36.8734C89.6453 36.6611 82.7659 37.0858 81.0637 41.3322C80.4254 43.0308 80.3545 45.5787 83.9715 48.5512ZM91.702 42.5354C95.7446 42.8185 99.7871 43.9509 103.475 45.7202C104.255 46.0741 104.539 46.4988 104.681 46.6403C104.61 46.7111 104.468 46.9234 104.184 47.1357C103.972 47.2773 103.759 47.4188 103.475 47.4896C103.05 47.6311 102.624 47.7727 101.986 47.9142C96.9503 48.8343 91.5602 47.4188 87.5886 44.1632C87.163 43.8093 86.8793 43.5262 86.7375 43.3139C87.6595 42.8185 89.7871 42.3938 91.702 42.5354Z" fill="#9F895B"/>
<path d="M94.3262 97.3147C99.0779 94.7669 101.844 90.0958 101.986 84.7169C102.057 82.0983 101.347 79.4088 99.9999 77.1441C96.4538 71.0575 89.5035 68.2265 82.3403 69.9958C75.3191 71.6944 70.6382 77.2148 70.3545 84.0092C70.1418 89.6003 72.4113 94.2007 76.8793 96.9609C79.5035 98.5887 82.6949 99.438 85.8864 99.438C88.7942 99.438 91.702 98.7302 94.3262 97.3147ZM79.8581 92.219C77.163 90.5912 75.8864 87.831 76.0283 84.2923C76.241 79.1257 80.1418 76.3655 83.6879 75.5162C84.5389 75.3039 85.4609 75.1624 86.4538 75.1624C89.5744 75.1624 92.9786 76.3655 95.1063 79.975C95.9574 81.4613 96.3829 83.0183 96.312 84.6461C96.241 89.0341 93.7588 91.2989 91.6311 92.4313C88.0141 94.3422 83.1914 94.2715 79.8581 92.219Z" fill="#9F895B"/>
<path d="M169.858 70.7036L160.78 45.0125C160.284 43.5262 158.652 42.7477 157.163 43.3139C155.674 43.8093 154.894 45.4371 155.461 46.9234L159.149 57.3272L143.191 62.5645C140.709 55.5579 137.021 49.1174 132.34 43.4555L137.731 38.2182L144.965 46.1449C145.532 46.7818 146.312 47.0649 147.092 47.0649C147.801 47.0649 148.44 46.8526 149.007 46.3572C150.142 45.2956 150.213 43.5262 149.22 42.3231L132.624 24.2048C131.56 23.0724 129.787 23.0017 128.582 24.0633C127.447 25.1249 127.376 26.8943 128.369 28.0974L133.901 34.1132L128.582 39.3505C123.262 33.9009 117.305 29.7252 110.922 26.7527C114.326 18.0475 116.099 12.9517 116.596 11.3947L126.596 15.8535C126.95 15.995 127.376 16.0658 127.731 16.0658C128.794 16.0658 129.858 15.4288 130.355 14.3672C130.993 12.9517 130.355 11.2531 128.936 10.6162L105.39 0.212319C103.972 -0.424651 102.27 0.212319 101.631 1.62781C100.993 3.04329 101.631 4.74188 103.05 5.37885L111.56 9.12989L111.277 9.05911C111.277 9.12989 109.504 14.438 105.532 24.5587C98.2979 22.0816 90.6383 21.0908 82.9078 21.7985L82.1986 16.3489L92.6241 15.0042C94.1844 14.7918 95.2482 13.3764 95.0355 11.8193C94.8227 10.2623 93.4043 9.20066 91.844 9.41299L65.461 12.8809C63.9007 13.0933 62.8369 14.5087 63.0497 16.0658C63.2624 17.4813 64.4681 18.5429 65.8865 18.5429C66.0284 18.5429 66.0993 18.5429 66.2412 18.5429L76.5958 17.1982L77.305 22.7186C73.688 23.4263 70 24.4172 66.383 25.8326C62.4114 27.3897 58.5816 29.3006 55.0355 31.4946L44.6099 15.7119L52.6951 10.97C54.0426 10.1915 54.4681 8.42214 53.688 7.07743C52.9078 5.73272 51.1348 5.30807 49.7873 6.08659L29.149 18.189C27.8014 18.9675 27.3759 20.7369 28.156 22.0816C28.6525 23.0017 29.6454 23.4971 30.6383 23.4971C31.1348 23.4971 31.6312 23.3555 32.0568 23.0724L39.7163 18.5429L50.4255 34.6087C46.7376 37.3689 43.4043 40.4829 40.4255 43.8801L36.5958 40.6953L42.3404 33.1224C43.2624 31.8485 43.0497 30.0791 41.7731 29.159C40.4965 28.239 38.7234 28.4513 37.8014 29.7252L24.0426 47.7019C23.1206 48.9759 23.3333 50.7452 24.6099 51.6653C25.1064 52.0899 25.7447 52.2315 26.3121 52.2315C27.1631 52.2315 28.0142 51.8776 28.5816 51.0991L33.0497 45.2248L36.7376 48.2681C32.766 53.5762 29.6454 59.4505 27.3759 65.6786L9.78725 60.866L12.6951 51.3114C13.1206 49.8251 12.3404 48.2681 10.7802 47.7727C9.2908 47.348 7.73051 48.1266 7.23406 49.6836L0.14186 73.1807C-0.283672 74.667 0.49647 76.224 2.05675 76.7194C2.34044 76.7902 2.62413 76.861 2.90782 76.861C4.11349 76.861 5.24824 76.0824 5.60285 74.8793L8.22697 66.3864L25.8156 71.199C24.2553 77.0733 23.4752 83.2307 23.5461 89.5296L19.7873 90.2373L18.8653 82.0983C18.7234 80.5412 17.305 79.4088 15.7447 79.6212C14.1844 79.7627 13.0497 81.1782 13.2624 82.7352L15.9575 106.091C16.0993 107.506 17.3759 108.568 18.7943 108.568C18.9362 108.568 19.0071 108.568 19.149 108.568C20.7092 108.426 21.844 107.011 21.6312 105.454L20.4965 95.7577L23.9716 95.1207C24.6809 101.49 26.5248 107.577 29.2908 113.097L16.2412 120.458L11.7731 113.097C10.9929 111.753 9.21987 111.328 7.87236 112.107C6.52484 112.885 6.09931 114.654 6.87945 115.999L18.156 134.613C18.7234 135.462 19.6454 135.958 20.5674 135.958C21.0638 135.958 21.5603 135.816 22.0568 135.533C23.4043 134.754 23.8298 132.985 23.0497 131.64L19.149 125.271L32.0568 117.981C32.766 119.042 33.4752 120.104 34.1844 121.095C37.0213 124.917 40.4965 128.455 44.3263 131.57L40.6383 135.179L33.1206 128.455C31.9858 127.394 30.1419 127.535 29.149 128.668C28.0851 129.8 28.227 131.64 29.3617 132.631L48.156 149.405C48.7234 149.9 49.3617 150.112 50.0709 150.112C50.8511 150.112 51.6312 149.829 52.1986 149.192C53.2624 148.06 53.1206 146.22 51.9858 145.229L44.9646 138.93L49.078 134.967C53.5461 137.939 58.4397 140.487 63.617 142.469L57.2341 158.676L49.2908 155.35C47.8724 154.713 46.1702 155.421 45.6029 156.836C44.9646 158.251 45.6738 159.95 47.0922 160.516L68.0142 169.292C68.3688 169.434 68.7234 169.505 69.149 169.505C70.2837 169.505 71.2766 168.868 71.7731 167.806C72.4114 166.391 71.7021 164.692 70.2837 164.126L62.5532 160.87L69.149 144.309C72.4823 145.3 75.8156 146.008 79.2908 146.503C80.6383 146.715 81.9149 146.857 83.2624 146.928L82.6951 154.288L74.539 153.722C72.9787 153.651 71.6312 154.784 71.4894 156.341C71.4185 157.898 72.5532 159.242 74.1135 159.384L96.1702 160.87C96.2411 160.87 96.3121 160.87 96.383 160.87C97.8724 160.87 99.078 159.738 99.2199 158.251C99.2908 156.694 98.156 155.35 96.5958 155.208L88.3688 154.642L88.9362 147.211C89.078 147.211 89.2908 147.211 89.4326 147.211C95.2482 147.211 100.851 146.432 106.17 145.017L112.482 160.729L103.192 164.48C101.773 165.046 101.064 166.744 101.631 168.16C102.057 169.292 103.121 169.929 104.255 169.929C104.61 169.929 104.965 169.858 105.319 169.717L129.929 159.809C131.348 159.242 132.057 157.544 131.489 156.128C130.922 154.713 129.22 154.005 127.801 154.571L117.731 158.605L111.56 143.247C116.099 141.478 120.426 139.142 124.255 136.241C125.177 135.533 126.099 134.754 127.021 134.047L131.631 139.001L123.192 146.361C121.986 147.423 121.915 149.192 122.908 150.325C123.475 150.962 124.255 151.316 125.035 151.316C125.674 151.316 126.383 151.103 126.879 150.608L145.745 134.188C146.95 133.127 147.021 131.357 146.028 130.225C144.965 129.022 143.192 128.951 142.057 129.942L135.957 135.321L131.135 130.154C131.702 129.588 132.199 128.951 132.766 128.385C135.887 124.634 138.582 120.529 140.709 116.07L156.241 122.51L151.915 132.136C151.277 133.551 151.915 135.25 153.333 135.887C153.688 136.028 154.113 136.17 154.468 136.17C155.532 136.17 156.596 135.533 157.092 134.471L167.092 112.248C167.731 110.833 167.092 109.134 165.674 108.497C164.255 107.86 162.553 108.497 161.915 109.913L158.582 117.344L143.05 110.903C145.106 105.595 146.454 99.9334 147.163 94.1299L151.277 94.9084L149.645 104.817C149.362 106.374 150.426 107.789 151.986 108.072C152.128 108.072 152.27 108.143 152.482 108.143C153.83 108.143 155.035 107.152 155.248 105.808L159.645 79.6919C159.929 78.1349 158.865 76.7194 157.305 76.4363C155.745 76.1532 154.326 77.2148 154.043 78.7719L152.27 89.388L147.589 88.5387C147.589 87.4771 147.66 86.4155 147.66 85.4247C147.589 79.4796 146.809 73.6761 145.319 68.1557L161.418 62.8476L164.965 72.756C165.39 73.8884 166.454 74.667 167.66 74.667C167.943 74.667 168.298 74.5962 168.582 74.5254C169.574 73.8177 170.355 72.1898 169.858 70.7036ZM128.014 124.704C125.816 127.323 123.333 129.729 120.567 131.782C109.716 139.921 95.2482 143.177 79.7873 140.983C63.1206 138.576 47.7305 129.942 38.6525 117.839C32.6951 109.842 29.3617 100.146 29.149 89.8127C28.5816 63.98 44.3263 40.3414 68.4397 30.9992C74.8936 28.5221 81.4185 27.3189 87.7305 27.3189C102.411 27.3189 116.383 33.8301 127.234 46.2864C145.887 67.7311 146.241 102.906 128.014 124.704Z" fill="#9F895B"/>
</g>
<defs>
<clipPath id="clip0">
<rect width="170" height="170" fill="white"/>
</clipPath>
</defs>
</svg>
