<svg width="151" height="166" viewBox="0 0 151 166" fill="none" xmlns="http://www.w3.org/2000/svg">
<g clip-path="url(#clip0)">
<path d="M23.7621 41.5438C24.8156 42.3618 26.9226 44.0563 29.5563 44.0563C30.4928 44.0563 31.5462 43.8226 32.5997 43.2383C34.4726 42.2449 36.8137 39.9077 37.1649 34.4153C37.2234 33.9479 37.2234 33.4804 37.2234 33.013C37.3404 30.9679 37.399 29.0982 38.2769 27.6958C38.7451 26.9362 39.5059 26.2351 40.2668 25.5339C40.9106 24.9496 41.5544 24.3653 42.1982 23.6057C44.0125 21.5022 45.5342 17.0616 43.2517 14.2569C41.2618 11.8028 37.2819 11.686 34.4726 11.8028C28.3858 12.095 22.8842 15.1334 20.0164 19.6325C15.6269 26.6441 17.3242 36.4604 23.7621 41.5438ZM23.9377 22.2034C25.9862 18.9313 30.0831 16.7694 34.6482 16.5357C38.6866 16.3604 39.4474 17.12 39.5645 17.2368C39.9156 17.6459 39.5059 19.5741 38.628 20.6258C38.2183 21.1517 37.6916 21.6191 37.1063 22.145C36.1699 23.0214 35.0579 24.0147 34.297 25.3002C32.8338 27.6958 32.7168 30.4421 32.5997 32.8377C32.5997 33.3051 32.5412 33.7141 32.5412 34.1816C32.4242 35.6423 32.0145 38.3301 30.4342 39.1481C29.6149 39.6156 28.7369 39.4987 26.6885 37.8627C22.1234 34.2984 20.8943 27.1115 23.9377 22.2034Z" fill="#9F895B"/>
<path d="M44.6563 26.5857C44.6563 27.4037 44.5392 28.2217 44.3636 29.0397C43.9539 30.8511 43.1931 32.6624 42.0811 34.1816C41.6714 34.7659 41.0861 35.2917 40.5008 35.8176C39.6229 36.6356 38.628 37.5705 37.9257 38.7975C36.4625 41.3685 36.0528 43.5304 36.6381 45.517C37.1648 47.2699 38.4524 48.6722 40.3838 49.6656C42.1396 50.542 43.9539 50.951 45.8268 50.951C50.8601 50.951 55.835 48.0879 58.5857 44.3484C60.3415 41.9528 61.4536 39.0897 61.8632 35.9929C62.1559 33.7141 61.9803 31.4938 61.395 29.3319C60.4586 25.8261 58.3516 22.6124 55.5423 20.2168L55.4253 20.0999C54.0791 18.9897 52.0892 17.3537 49.7481 17.5874C47.1729 17.8796 45.4756 20.2168 44.8904 22.4371C44.5977 23.6057 44.5977 24.7159 44.5977 25.6508C44.6563 26.0598 44.6563 26.3519 44.6563 26.5857ZM45.8853 36.9278C47.407 34.8827 48.4605 32.4871 48.9873 30.033C49.2214 28.9229 49.3384 27.8127 49.3384 26.7025C49.3384 26.4104 49.3384 26.1182 49.3384 25.7676C49.3384 25.008 49.3384 24.3069 49.4555 23.781C49.6311 23.0798 50.0993 22.4955 50.2749 22.3787C50.8016 22.4955 51.9722 23.4304 52.4404 23.8394L52.5574 23.9563C54.6644 25.7092 56.1861 28.1048 56.8884 30.6758C57.2981 32.2534 57.4152 33.8894 57.1811 35.5255C56.8884 37.8042 56.0691 39.9077 54.7815 41.6606C52.1477 45.2833 46.5877 47.6789 42.4908 45.6339C41.6714 45.2249 41.2032 44.7574 41.0861 44.29C40.9105 43.6473 41.2032 42.5371 41.964 41.1932C42.3152 40.5505 42.959 39.9662 43.6613 39.3234C44.4222 38.5638 45.183 37.8627 45.8853 36.9278Z" fill="#9F895B"/>
<path d="M53.3769 143.504C54.9571 142.219 56.4788 140.992 57.8835 140.641C58.8199 140.408 59.9319 140.466 61.1025 140.524C63.2094 140.641 65.6676 140.7 68.0086 139.356C69.5304 138.421 70.5838 137.135 70.935 135.616C72.1641 130.533 66.7211 125.917 63.268 124.047C59.3466 121.885 55.0742 121.067 51.2699 121.768C43.1931 123.288 37.1063 131.234 37.8087 139.414C37.9842 141.284 38.2769 145.608 42.5493 147.069C43.4273 147.361 44.3052 147.536 45.1245 147.536C48.4021 147.536 51.0943 145.316 53.3769 143.504ZM42.4908 139.064C42.0226 133.279 46.4707 127.495 52.1478 126.384C52.7331 126.267 53.3769 126.209 54.0792 126.209C56.3032 126.209 58.7614 126.852 61.0439 128.137C63.9703 129.773 66.8381 132.753 66.4284 134.565C66.3699 134.798 66.0773 135.149 65.6676 135.383C64.5555 136.025 63.0924 135.967 61.3951 135.908C59.9904 135.85 58.4687 135.792 56.8885 136.142C54.4304 136.726 52.4404 138.304 50.4505 139.882C47.7583 142.044 46.061 143.329 44.1296 142.628C43.1932 142.336 42.6664 141.693 42.4908 139.064Z" fill="#9F895B"/>
<path d="M74.7393 147.185C74.6222 145.491 74.5052 142.862 72.7493 141.342C69.1207 138.246 65.3164 141.518 63.7362 142.92L63.5021 143.095C61.278 144.965 58.9955 146.134 56.5373 146.484C55.6594 146.601 54.6059 146.66 53.5524 146.66C50.8017 146.66 47.6997 146.718 45.1245 148.938C42.3152 151.334 41.9055 155.19 44.0125 158.755C46.5877 163.02 51.8552 165.942 57.1811 166C57.2396 166 57.2397 166 57.2982 166C60.9854 166 64.497 164.831 67.5404 162.611C72.3397 159.047 75.149 153.204 74.8563 147.361L74.7393 147.185ZM64.6726 158.813C62.4486 160.449 59.8734 161.326 57.2397 161.326H57.1811C53.4939 161.326 49.7482 159.28 47.9924 156.359C47.4656 155.424 46.7633 153.73 48.1679 152.503C49.4555 151.392 51.3284 151.392 53.5524 151.392C54.7815 151.392 56.0106 151.392 57.2397 151.159C60.5172 150.633 63.6191 149.114 66.4869 146.718L66.721 146.484C68.0672 145.316 68.828 144.79 69.2962 144.79C69.4133 144.79 69.5303 144.848 69.5889 144.907C69.8815 145.316 69.94 146.893 69.9986 147.478V147.653C70.3497 151.918 68.2428 156.184 64.6726 158.813Z" fill="#9F895B"/>
<path d="M84.9815 83.7304C88.259 82.9123 90.4245 80.8673 91.0098 78.2379C91.4195 76.1344 91.1269 72.8624 87.0885 69.1228C86.7373 68.7722 86.3862 68.4801 86.035 68.1879C84.5133 66.844 83.1086 65.5586 82.5819 64.0394C82.2893 63.2214 82.2307 62.1696 82.1722 61.1179C82.1137 60.2414 82.0552 59.365 81.9381 58.4301C81.4699 55.7423 79.0703 51.7107 75.3831 51.6522C70.8765 51.6522 68.2427 56.0929 67.0722 58.0211C64.38 62.5787 63.6776 67.9542 65.1408 72.7455C66.4284 77.0693 69.5889 80.6335 73.6858 82.6202C75.9098 83.6719 78.4265 84.2562 80.9431 84.2562C82.3478 84.1978 83.6939 84.0225 84.9815 83.7304ZM75.7342 78.3548C72.8079 76.9525 70.5253 74.3815 69.6474 71.3432C68.5939 67.8374 69.1207 63.7473 71.1106 60.2999C71.7544 59.1897 73.5102 56.2098 75.266 56.2098C75.7928 56.2098 77.0218 57.729 77.2559 59.1313C77.373 59.774 77.4315 60.4752 77.4315 61.2348C77.49 62.5202 77.5486 63.981 78.0753 65.4417C79.0117 68.1295 81.0017 69.9408 82.816 71.5769C83.1672 71.869 83.4598 72.1612 83.811 72.4533C84.923 73.5051 86.7373 75.4917 86.3276 77.2446C86.0935 78.4132 84.6304 78.9391 83.7524 79.1728C81.1772 79.874 78.2509 79.5234 75.7342 78.3548Z" fill="#9F895B"/>
<path d="M106.285 55.3917C105.466 53.3467 104.295 51.4769 102.715 49.8409C99.3207 46.2766 94.58 44.29 89.6637 44.3484C85.0986 44.4069 82.2307 45.4002 80.9431 47.4452C78.2509 51.5938 82.1722 55.3917 83.811 57.0278C86.2106 59.365 87.7323 61.0594 88.4346 64.2731L88.6102 64.9743C89.3125 68.3048 90.4245 73.3298 93.8776 75.1411C94.5214 75.4917 95.4579 75.7838 96.5699 75.7838C97.4478 75.7838 98.5013 75.6085 99.6133 75.0827C107.28 71.8106 109.036 62.3449 106.285 55.3917ZM96.0431 70.9926C94.5214 70.1745 93.6435 66.1429 93.1753 63.9809L92.9997 63.2798C92.0048 58.8391 89.8393 56.385 87.0885 53.6972C85.6838 52.2949 84.3377 50.8342 84.8645 50.0161C85.04 49.7824 86.2691 49.0813 89.7222 49.0228C89.7807 49.0228 89.8393 49.0228 89.8978 49.0228C93.4679 49.0228 96.921 50.4836 99.3792 53.1129C100.491 54.2815 101.369 55.6839 101.954 57.1446C103.886 62.0527 102.657 68.7138 97.799 70.8173C96.6284 71.2847 96.1602 71.051 96.0431 70.9926Z" fill="#9F895B"/>
<path d="M24.8156 83.5551C25.8106 84.081 27.6835 85.0158 29.7905 85.0158C31.0781 85.0158 32.4827 84.6653 33.8874 83.5551C35.5261 82.2112 37.3405 79.465 36.6381 74.031C36.5796 73.5635 36.5211 73.0961 36.4625 72.6287C36.1699 70.642 35.8773 68.7138 36.4625 67.1947C36.7552 66.3766 37.399 65.5586 38.0428 64.6822C38.5695 63.981 39.0963 63.2798 39.5645 62.4618C40.9106 60.0662 41.6129 55.4502 38.8036 53.0546C36.8137 51.3601 34.4141 50.6589 31.8974 50.8926C26.2203 51.5354 21.6552 56.9109 20.3676 58.547C19.3141 59.9493 18.4362 61.4101 17.7924 62.9877C15.4513 68.597 16.0366 74.44 19.4897 78.9975C20.7773 80.8673 22.6501 82.4449 24.8156 83.5551ZM22.0063 64.8574C22.5331 63.6888 23.1769 62.5202 23.9963 61.4685C25.9277 58.956 29.2637 55.9176 32.3071 55.5671C32.4827 55.5671 32.6583 55.5671 32.8339 55.5671C33.8874 55.5671 34.8238 55.9176 35.7017 56.6772C36.1114 57.0278 36.1114 59.0144 35.4091 60.183C35.0579 60.7673 34.6482 61.3516 34.18 61.9359C33.4191 62.9877 32.5412 64.1563 32.0145 65.5586C31.0195 68.188 31.4292 70.9342 31.7804 73.2714C31.8389 73.7388 31.8974 74.1478 31.956 74.5568C32.1315 76.076 32.2486 78.7638 30.8439 79.874C30.1416 80.4583 29.2637 80.5752 26.9226 79.3481C25.4009 78.5301 24.0548 77.4784 23.1184 76.1929C20.7187 73.0377 20.3091 68.8891 22.0063 64.8574Z" fill="#9F895B"/>
<path d="M39.9741 74.6153C39.2718 75.6086 38.4524 76.7188 37.9842 78.0627C37.0478 80.8673 37.0478 83.0877 37.9842 84.899C38.8036 86.535 40.3253 87.6452 42.4908 88.2879C43.5443 88.5801 44.6563 88.7554 45.7098 88.7554C51.5625 88.7554 57.0641 84.4315 59.3466 79.5818C60.6342 76.8941 61.161 73.8557 60.9854 70.7589C60.8098 68.4801 60.2245 66.3182 59.2881 64.3316C57.7079 61.0595 55.0156 58.3133 51.7966 56.5019L51.6796 56.4435C50.1579 55.6255 47.8753 54.34 45.6513 55.0412C43.1931 55.8008 41.9641 58.4886 41.7885 60.7673C41.73 61.9359 41.9641 63.0461 42.1396 63.981C42.1982 64.2147 42.2567 64.5069 42.3152 64.7406C42.4323 65.5586 42.5493 66.3766 42.4908 67.1947C42.4323 69.0644 42.0226 70.9342 41.2032 72.6871C40.9691 73.3298 40.5009 73.9725 39.9741 74.6153ZM42.4323 79.5818C42.6664 78.8807 43.1931 78.1795 43.7784 77.4199C44.3637 76.6603 45.0075 75.7255 45.4757 74.7321C46.5292 72.3949 47.1144 69.8824 47.173 67.3699C47.173 66.2598 47.1144 65.0912 46.8803 63.981C46.8218 63.6888 46.7633 63.3967 46.7048 63.1045C46.5292 62.3449 46.4121 61.7022 46.4121 61.1179C46.4707 60.3583 46.8218 59.7156 46.9974 59.5987C47.5241 59.5987 48.8703 60.2999 49.397 60.592L49.5141 60.6505C51.9137 61.9944 53.9036 63.981 55.0741 66.3766C55.7765 67.8374 56.1862 69.415 56.3032 71.1095C56.4788 73.3882 56.0691 75.6086 55.1327 77.5952C53.2013 81.6269 48.2265 85.0743 43.8369 83.7888C42.959 83.5551 42.4323 83.2045 42.1982 82.7371C41.847 82.1528 41.9641 81.0426 42.4323 79.5818Z" fill="#9F895B"/>
<path d="M57.4152 117.152C58.4687 117.97 60.5757 119.665 63.2094 119.665C64.1459 119.665 65.1994 119.431 66.2528 118.847C68.1257 117.854 70.4668 115.516 70.818 110.024C70.8765 109.556 70.8765 109.089 70.8765 108.622C70.9935 106.577 71.0521 104.707 71.93 103.304C72.3982 102.545 73.159 101.844 73.9199 101.143C74.5637 100.558 75.2075 99.9739 75.8513 99.2143C77.6656 97.1108 79.1873 92.6701 76.9048 89.8655C74.9149 87.4114 70.935 87.2946 68.1257 87.4114C62.0389 87.7036 56.5373 90.7419 53.6695 95.2411C49.28 102.253 50.9773 112.069 57.4152 117.152ZM57.5908 97.7536C59.6393 94.4815 63.7362 92.3196 68.3013 92.0858C72.3397 91.9105 73.1005 92.6701 73.2176 92.787C73.5687 93.196 73.159 95.1242 72.2811 96.1759C71.8715 96.7018 71.3447 97.1693 70.7594 97.6951C69.823 98.5716 68.711 99.5649 67.9501 100.85C66.487 103.246 66.3699 105.992 66.2528 108.388C66.2528 108.855 66.1943 109.264 66.1943 109.732C66.0773 111.251 65.6676 113.88 64.1459 114.757C63.3265 115.224 62.4486 115.107 60.4001 113.471C55.7765 109.849 54.5474 102.662 57.5908 97.7536Z" fill="#9F895B"/>
<path d="M89.7807 93.8972L89.6637 93.7803C88.3176 92.6702 86.3276 91.0341 83.9866 91.2678C81.4114 91.56 79.7141 93.8972 79.1288 96.1175C78.8362 97.2861 78.8362 98.3963 78.8362 99.3312C78.8362 99.5649 78.8362 99.8571 78.8362 100.091C78.8362 100.909 78.7191 101.727 78.5435 102.545C78.1338 104.356 77.373 106.168 76.261 107.687C75.8513 108.271 75.266 108.797 74.6807 109.323C73.8028 110.141 72.8079 111.076 72.1056 112.303C70.6424 114.874 70.2327 117.036 70.818 119.022C71.3447 120.775 72.6323 122.177 74.5637 123.171C76.3195 124.047 78.1338 124.456 80.0067 124.456C85.04 124.456 90.0149 121.593 92.7656 117.854C94.5214 115.458 95.6335 112.595 96.0432 109.498C96.3358 107.219 96.1602 104.999 95.5749 102.837C94.697 99.5065 92.59 96.2344 89.7807 93.8972ZM91.4195 109.089C91.1269 111.368 90.3075 113.471 89.0199 115.224C86.3862 118.847 80.8261 121.243 76.7292 119.197C75.9098 118.788 75.4416 118.321 75.3245 117.854C75.149 117.211 75.4416 116.101 76.2025 114.757C76.5536 114.114 77.1974 113.53 77.8997 112.887C78.6021 112.244 79.4214 111.485 80.0652 110.55C81.587 108.505 82.6404 106.109 83.1672 103.655C83.4013 102.545 83.5183 101.435 83.5183 100.325C83.5183 100.032 83.5183 99.7402 83.5183 99.4481C83.5183 98.6885 83.5183 97.9873 83.6354 97.4614C83.811 96.7018 84.2792 96.176 84.4548 96.0591C84.9815 96.176 86.1521 97.1108 86.6203 97.5199L86.7373 97.6367C88.8443 99.3896 90.366 101.785 91.0683 104.356C91.5366 105.759 91.6536 107.395 91.4195 109.089Z" fill="#9F895B"/>
<path d="M120.742 119.782C121.21 119.022 121.62 118.263 122.029 117.386C123.141 114.874 123.375 110.199 120.332 108.096C116.586 105.583 111.904 107.862 109.914 108.797C105.115 111.134 101.545 115.166 100.082 120.015C98.7939 124.339 99.3792 129.014 101.72 132.987C103.652 136.317 106.871 138.888 110.441 140.174C111.553 140.583 112.665 140.758 113.718 140.758C115.591 140.758 117.23 140.115 118.459 138.888C119.981 137.369 121.502 134.506 120.273 129.131C120.156 128.663 120.039 128.196 119.922 127.728C119.454 125.742 118.986 123.93 119.395 122.353C119.688 121.535 120.156 120.658 120.742 119.782ZM117.757 115.516C117.464 116.101 117.113 116.743 116.762 117.386C116.118 118.496 115.357 119.723 114.947 121.242C114.245 123.989 114.889 126.618 115.474 128.955C115.591 129.364 115.708 129.832 115.767 130.241C116.118 131.701 116.469 134.389 115.24 135.616C114.421 136.434 112.899 136.084 112.021 135.792C109.446 134.857 107.163 132.987 105.759 130.591C104.061 127.787 103.652 124.398 104.588 121.359C105.642 117.854 108.392 114.757 111.963 113.004C112.84 112.595 114.83 111.602 116.411 111.602C116.879 111.602 117.347 111.718 117.698 111.952C118.108 112.244 118.283 114.231 117.757 115.516Z" fill="#9F895B"/>
<path d="M144.621 122.47C143.743 117.62 140.933 113.296 136.836 110.608C133.032 108.154 130.047 107.395 127.823 108.329C123.317 110.258 124.429 115.633 124.897 117.912C125.599 121.184 125.892 123.404 124.721 126.501L124.429 127.144C123.2 130.299 121.268 135.09 123.2 138.538C123.843 139.706 125.19 141.167 127.999 141.693C128.76 141.81 129.521 141.927 130.281 141.927C137.422 141.927 143.099 135.616 144.503 129.072C144.972 126.852 145.03 124.631 144.621 122.47ZM139.938 128.079C138.826 133.221 134.086 138.07 128.877 137.135C127.648 136.902 127.414 136.434 127.297 136.317C126.477 134.798 127.999 131 128.818 128.897L129.111 128.196C130.75 123.93 130.281 120.717 129.521 116.977C129.111 115.049 128.818 113.062 129.696 112.653C129.755 112.653 129.813 112.653 129.93 112.653C130.457 112.653 131.862 113.004 134.32 114.581C137.363 116.568 139.47 119.723 140.055 123.288C140.29 124.865 140.29 126.501 139.938 128.079Z" fill="#9F895B"/>
<path d="M21.0698 112.186C19.8993 110.55 18.7873 108.972 18.6702 107.336C18.5532 106.46 18.7288 105.466 18.9629 104.415C19.1384 103.538 19.2555 102.662 19.314 101.727C19.4311 98.9806 18.0264 94.5399 14.3977 93.6635C11.8811 93.0792 9.42294 93.4882 7.25744 94.8321C2.45821 97.9289 0.760925 104.765 0.351235 106.81C7.20993e-05 108.505 -0.116982 110.258 7.21067e-05 111.952C0.409762 118.029 3.57023 122.937 8.66209 125.508C10.7105 126.56 13.1101 127.086 15.5098 127.144C15.6853 127.144 15.8609 127.144 16.0365 127.144C18.085 127.144 21.8892 126.852 23.5865 123.112C24.4644 121.184 24.8741 117.912 21.8307 113.354C21.6551 113.004 21.3625 112.595 21.0698 112.186ZM19.4311 121.184C19.0214 122.061 18.3191 122.528 15.6853 122.47C13.9295 122.47 12.2908 122.061 10.8276 121.359C7.19891 119.548 4.97488 116.042 4.74077 111.66C4.68224 110.374 4.74077 109.031 5.03341 107.745C5.61868 104.648 7.25744 100.441 9.83263 98.8053C10.535 98.3379 11.3543 98.1041 12.1737 98.1041C12.5834 98.1041 12.9346 98.1626 13.3443 98.2794C13.871 98.3963 14.7489 100.208 14.6319 101.552C14.5733 102.194 14.4563 102.895 14.3392 103.655C14.1051 104.94 13.871 106.343 14.0466 107.862C14.3392 110.667 15.9195 112.887 17.2656 114.874C17.4997 115.224 17.7923 115.575 18.0264 115.984C18.8458 117.211 20.1334 119.606 19.4311 121.184Z" fill="#9F895B"/>
<path d="M44.3637 106.635C44.3052 103.655 43.4272 100.675 41.9055 98.0457C40.735 96.0591 39.2718 94.423 37.516 93.0207C34.6482 90.8003 31.0195 89.5149 27.3323 89.398H27.1567C25.4594 89.3396 22.8257 89.2227 21.1284 90.8588C19.2555 92.6701 19.3726 95.5916 20.2505 97.6951C20.7187 98.8053 21.421 99.6817 22.0063 100.441C22.1819 100.617 22.3575 100.85 22.4745 101.084C22.9427 101.727 23.411 102.428 23.7621 103.188C24.5815 104.882 25.0497 106.752 25.0497 108.68C25.0497 109.381 24.9327 110.141 24.8156 110.959C24.64 112.127 24.4059 113.471 24.5815 114.874C24.9912 117.795 25.9862 119.782 27.6249 121.009C28.6784 121.768 29.966 122.177 31.4877 122.177C32.0145 122.177 32.5997 122.119 33.185 122.002C40.2668 120.658 44.5393 113.004 44.3637 106.635ZM32.3656 117.328C31.4877 117.503 30.8439 117.444 30.4342 117.152C29.849 116.743 29.4393 115.692 29.2637 114.172C29.1466 113.471 29.3222 112.595 29.4978 111.601C29.6734 110.667 29.849 109.556 29.7904 108.446C29.7319 105.875 29.0881 103.363 28.0346 101.084C27.5664 100.032 26.9811 99.0974 26.2788 98.221C26.1032 97.9873 25.9276 97.7535 25.7521 97.5198C25.2838 96.9355 24.8741 96.3512 24.64 95.8838C24.3474 95.1826 24.3474 94.4815 24.4645 94.2477C24.9327 94.014 26.4544 94.0724 27.0396 94.0724H27.2152C29.966 94.1893 32.6583 95.1242 34.7652 96.7602C36.0528 97.7535 37.1063 98.9806 37.9842 100.441C39.1548 102.37 39.7986 104.59 39.7986 106.752C39.7986 111.192 36.8722 116.51 32.3656 117.328Z" fill="#9F895B"/>
<path d="M112.723 55.8007C113.718 56.2098 115.416 57.0278 117.347 57.0278C118.752 57.0278 120.332 56.6188 121.736 55.3333C122.614 54.5153 123.551 53.2298 124.019 51.2432C123.902 52.8208 124.195 54.1647 124.897 55.3333C125.833 56.9109 127.414 57.9627 129.579 58.4301C130.457 58.6054 131.276 58.7222 132.154 58.7222C138.241 58.7222 143.86 53.931 145.908 48.7891C147.02 46.0429 147.43 42.9461 147.02 39.9077C146.728 37.629 146.025 35.5255 144.972 33.5973C143.216 30.4421 140.407 27.8127 137.012 26.2351L136.895 26.1767C135.315 25.4171 132.974 24.3069 130.808 25.1249C128.409 26.0598 127.297 28.7476 127.297 31.0264C127.297 32.195 127.589 33.3051 127.823 34.24C127.882 34.4737 127.94 34.7659 127.999 34.9996C128.174 35.7592 128.291 36.5772 128.35 37.4537C128.409 39.3234 128.116 41.2516 127.414 43.0045C127.179 43.6473 126.711 44.29 126.302 44.9912C125.658 45.9845 124.897 47.1531 124.546 48.497C124.429 48.8476 124.37 49.1981 124.312 49.5487C124.37 48.4385 124.312 47.1531 124.019 45.6923C123.96 45.2249 123.843 44.7574 123.726 44.29C123.317 42.3034 122.907 40.4336 123.375 38.856C123.609 38.038 124.195 37.1615 124.78 36.2851C125.248 35.5839 125.716 34.8243 126.185 33.9479C127.414 31.4938 127.823 26.8194 124.838 24.599C122.322 22.7293 118.459 23.5473 115.767 24.4238C109.973 26.1767 105.349 30.5005 103.71 35.6423C101.135 43.2967 105.232 52.4118 112.723 55.8007ZM128.994 49.6656C129.169 48.9644 129.696 48.2048 130.223 47.3868C130.75 46.5688 131.335 45.6339 131.745 44.5822C132.681 42.1865 133.149 39.6156 133.032 37.1031C132.974 35.9929 132.857 34.8243 132.564 33.7726C132.505 33.4804 132.388 33.1883 132.33 32.8961C132.154 32.195 131.979 31.4938 131.979 30.9095C131.979 30.1499 132.271 29.5072 132.447 29.3903C132.974 29.3319 134.378 30.0331 134.905 30.2668L135.081 30.3252C137.539 31.4938 139.646 33.422 140.933 35.7592C141.694 37.1615 142.221 38.7391 142.455 40.3752C142.748 42.5955 142.455 44.8743 141.636 46.9194C139.938 51.0679 135.139 54.8074 130.691 53.7557C129.813 53.5804 129.228 53.2298 128.994 52.8208C128.584 52.2949 128.584 51.1263 128.994 49.6656ZM108.1 36.9278C109.27 33.2467 112.723 30.0915 117.113 28.7476C120.917 27.579 121.854 28.1049 122.029 28.2217C122.439 28.5139 122.556 30.5589 121.971 31.786C121.678 32.3703 121.268 32.9546 120.859 33.5973C120.156 34.649 119.337 35.8761 118.927 37.3952C118.108 40.083 118.635 42.7708 119.161 45.1665C119.278 45.5755 119.337 46.0429 119.395 46.4519C119.688 47.9711 119.922 50.6589 118.635 51.8275C117.932 52.4702 117.113 52.5871 114.713 51.5353C109.329 49.1397 106.344 42.4202 108.1 36.9278Z" fill="#9F895B"/>
<path d="M69.1206 30.5589C70.8179 31.786 72.5737 32.3703 74.2125 32.3703C75.266 32.3703 76.2609 32.1365 77.1974 31.6107C79.0702 30.6174 81.4113 28.2802 81.7625 22.7877C81.821 22.3203 81.821 21.8528 81.821 21.3854C81.9381 19.3403 81.9966 17.4706 82.8745 16.0683C83.3427 15.3087 84.1036 14.6075 84.8644 13.9063C85.5082 13.322 86.152 12.7377 86.7958 11.9781C88.6101 9.87466 90.1319 5.43397 87.8493 2.62933C84.9815 -0.87648 79.8311 -2.77879e-05 77.6656 0.350553C72.3981 1.227 67.833 4.09008 65.0822 8.23862C62.6241 11.9781 61.8047 16.6526 62.9167 21.1517C63.7361 24.8912 66.0187 28.2802 69.1206 30.5589ZM68.8865 10.868C70.9349 7.82961 74.4466 5.60926 78.3679 4.96653C79.0117 4.84967 80.1237 4.67438 81.2357 4.67438C82.4063 4.67438 83.5768 4.84967 84.1621 5.60926C84.5132 6.01828 84.1036 7.94647 83.2256 8.99821C82.816 9.52408 82.2892 9.99152 81.7039 10.5174C80.7675 11.3938 79.6555 12.3872 78.8946 13.6726C77.4315 16.0683 77.3144 18.8145 77.1974 21.2101C77.1974 21.6775 77.1388 22.0866 77.1388 22.554C77.0218 24.0732 76.6121 26.7025 75.0904 27.579C74.0369 28.1633 72.6908 27.3453 71.9884 26.8194C69.7644 25.1834 68.1256 22.7293 67.4819 20.0415C66.5454 16.8278 67.0722 13.4973 68.8865 10.868Z" fill="#9F895B"/>
<path d="M85.2741 21.6775L84.8059 22.2618C82.6989 24.9496 79.4799 28.9813 80.3579 32.8377C80.6505 34.1231 81.5284 35.9345 84.0451 37.2784C85.8594 38.2133 87.7908 38.6223 89.6637 38.6223C95.3408 38.6223 100.784 34.7659 103.476 29.8577C104.53 27.9296 105.232 25.8261 105.466 23.5473C106.051 18.6392 104.53 13.731 101.369 9.9915C98.4427 6.54413 95.809 4.96651 93.4094 5.25866C88.4931 5.84296 88.0834 11.277 87.8493 13.5557C87.6152 16.8863 87.2641 19.1066 85.2741 21.6775ZM88.9613 24.5406C91.7706 20.9179 92.2389 17.7043 92.59 13.9063C92.7656 11.9781 93.0582 9.93307 93.9947 9.81621C94.3458 9.81621 95.6334 10.4005 97.8575 12.913C100.199 15.6592 101.311 19.3403 100.842 22.9046C100.667 24.5406 100.14 26.0598 99.3792 27.4621C96.804 32.0781 90.8927 35.4086 86.152 32.9545C85.04 32.3702 84.923 31.8444 84.8644 31.7275C84.5133 30.033 87.0299 26.8194 88.4346 25.0665L88.9613 24.5406Z" fill="#9F895B"/>
<path d="M126.243 68.1879C120.566 67.7205 115.006 72.1612 113.484 73.5051C112.197 74.6737 111.026 75.9591 110.09 77.3615C106.695 82.3865 106.227 88.2295 108.743 93.3713C109.738 95.4748 111.319 97.3446 113.192 98.8638C114.245 99.6818 116.352 101.376 118.986 101.376C119.922 101.376 120.976 101.143 122.029 100.558C123.902 99.5649 126.243 97.2277 126.594 91.7353C126.653 91.2678 126.653 90.8004 126.653 90.333C126.77 88.2879 126.828 86.4181 127.706 85.0158C128.174 84.2562 128.935 83.5551 129.696 82.8539C130.34 82.2696 130.984 81.6853 131.628 80.9257C133.442 78.8222 134.964 74.3815 132.681 71.5769C130.925 69.5903 128.76 68.3632 126.243 68.1879ZM127.999 77.9458C127.589 78.4716 127.062 78.9391 126.477 79.465C125.541 80.3414 124.429 81.3347 123.668 82.6202C122.205 85.0158 122.088 87.762 121.971 90.1577C121.971 90.6251 121.912 91.0341 121.912 91.5016C121.795 93.0207 121.385 95.6501 119.864 96.5265C119.044 96.9356 118.166 96.8771 116.118 95.2411C114.772 94.1893 113.66 92.8454 112.957 91.3847C111.202 87.762 111.553 83.6135 114.011 79.9908C114.713 78.9391 115.591 77.9458 116.586 77.0693C118.869 75.0827 122.439 72.8623 125.424 72.8623C125.599 72.8623 125.716 72.8623 125.892 72.8623C127.121 72.9792 128.174 73.5051 128.994 74.5568C129.286 74.9658 128.877 76.894 127.999 77.9458Z" fill="#9F895B"/>
<path d="M150.415 84.899C149.478 81.3931 147.371 78.1795 144.562 75.7838L144.445 75.667C143.099 74.5568 141.109 72.9208 138.768 73.1545C136.193 73.4466 134.495 75.7839 133.91 78.0042C133.618 79.1728 133.618 80.283 133.618 81.2179C133.618 81.4516 133.618 81.7437 133.618 81.9774C133.618 82.7955 133.5 83.6135 133.325 84.4315C132.915 86.2428 132.154 88.0542 131.042 89.5734C130.633 90.1577 130.047 90.6835 129.462 91.2094C128.584 92.0274 127.589 92.9623 126.887 94.1893C125.424 96.7603 125.014 98.9222 125.599 100.909C126.126 102.662 127.414 104.064 129.345 105.057C131.101 105.934 132.915 106.343 134.788 106.343C139.821 106.343 144.796 103.48 147.547 99.7402C149.303 97.3446 150.415 94.4815 150.824 91.3847C151.117 89.2812 150.942 87.0609 150.415 84.899ZM146.201 90.9757C145.908 93.2545 145.089 95.3579 143.801 97.1109C141.168 100.734 135.607 103.129 131.511 101.084C130.691 100.675 130.223 100.208 130.106 99.7402C129.93 99.0975 130.223 97.9873 130.984 96.6434C131.335 96.0007 131.979 95.4164 132.681 94.7736C133.383 94.1309 134.203 93.3713 134.847 92.4364C136.368 90.3914 137.422 87.9957 137.949 85.5417C138.183 84.4315 138.3 83.3213 138.3 82.2112C138.3 81.919 138.3 81.6269 138.3 81.3347C138.3 80.5751 138.3 79.874 138.417 79.3481C138.592 78.6469 139.061 78.0626 139.236 77.9458C139.763 78.0626 140.933 78.9975 141.402 79.4065L141.519 79.5234C143.626 81.2763 145.147 83.6719 145.85 86.2429C146.318 87.6452 146.376 89.2812 146.201 90.9757Z" fill="#9F895B"/>
</g>
<defs>
<clipPath id="clip0">
<rect width="151" height="166" fill="white"/>
</clipPath>
</defs>
</svg>
