<svg width="147" height="145" viewBox="0 0 147 145" fill="none" xmlns="http://www.w3.org/2000/svg">
<g clip-path="url(#clip0)">
<path d="M146.155 45.4525C143.617 38.876 135.738 35.5348 125.109 36.5425C124.369 36.5955 123.629 36.7016 122.889 36.7546C116.543 37.4441 109.986 38.0805 105.545 34.5271C101.473 31.2389 100.31 25.2989 99.1993 19.518C99.0407 18.6694 98.8821 17.7678 98.6706 16.9192C96.6612 7.00151 91.4792 0.690241 84.9224 0.000775009C79.6346 -0.529583 74.1882 2.81167 70.4339 8.9108C69.1648 10.9792 68.1601 13.1537 67.1554 15.2751C65.9393 17.8739 64.7759 20.3665 63.1896 22.541C58.1662 28.5871 52.1382 27.5794 44.5238 26.2535C43.0432 25.9883 41.5098 25.7232 39.9763 25.5641C34.6357 24.8746 29.1893 24.7155 25.5936 28.5341C22.791 31.5041 21.7335 36.2773 22.6853 41.5809C24.6946 52.9836 25.1177 59.2418 24.0601 62.477C22.5267 67.1972 15.6526 71.5461 13.0616 73.1902C9.30723 75.5769 4.60112 78.5999 1.90436 83.214C-0.898162 87.9872 -1.00392 95.2001 3.64932 98.9657C6.39896 101.193 9.99464 101.617 12.6385 101.936C13.3788 102.042 14.1191 102.095 14.8594 102.201C19.1425 102.678 23.1612 103.102 27.127 104.269C27.55 104.375 27.9731 104.534 28.3961 104.641C31.7803 105.595 33.631 106.126 34.9529 109.042C36.6979 112.808 36.8036 117.369 36.8036 121.4V122.354C36.7508 127.976 36.6979 133.757 39.4475 138.902C40.6637 141.235 42.3029 142.932 44.1536 143.993C45.4227 144.683 46.8504 145.001 48.2781 145.001C53.3015 145.001 58.9594 141.341 63.2954 137.788C66.3623 135.295 69.059 132.431 71.7029 129.62C73.395 127.817 75.1929 125.961 76.9907 124.264C80.1634 121.294 86.2972 116.574 91.8493 118.536C93.2241 119.013 94.4403 120.074 95.7094 121.188C96.5554 121.93 97.4544 122.673 98.4062 123.309C101.42 125.324 104.699 126.969 108.083 128.241C110.568 129.196 114.375 130.363 118.235 129.726C121.461 129.196 123.893 127.658 125.427 125.165C129.551 118.483 125.955 106.762 123.787 99.7612C123.576 99.0717 123.364 98.4353 123.206 97.8519C121.461 91.9119 119.822 84.3808 122.889 78.4408C125.004 74.251 129.075 71.4401 133.358 68.5231C134.733 67.5684 136.161 66.6138 137.483 65.6061C143.405 61.045 149.169 53.1427 146.155 45.4525ZM134.998 62.1058C133.728 63.0604 132.354 64.015 131.032 64.9167C126.484 68.0458 121.778 71.2279 119.187 76.4254C115.486 83.6913 117.284 92.2832 119.24 98.9657C119.399 99.5491 119.61 100.239 119.822 100.928C121.619 106.815 125.004 117.793 121.884 122.832C120.985 124.264 119.61 125.112 117.601 125.484C114.745 125.961 111.678 125.006 109.669 124.211C106.602 123.044 103.641 121.559 100.891 119.703C100.098 119.172 99.358 118.536 98.5648 117.899C97.0313 116.627 95.445 115.248 93.3828 114.505C87.672 112.437 80.8508 114.823 74.1882 121.135C72.2846 122.938 70.4867 124.794 68.7418 126.65C66.0979 129.461 63.5598 132.113 60.7044 134.447C54.4119 139.591 49.0184 141.766 46.2687 140.228C45.1054 139.591 44.0479 138.424 43.2018 136.833C40.981 132.643 41.0339 127.393 41.0339 122.301V121.347C41.0867 116.892 40.9281 111.747 38.813 107.186C36.645 102.519 33.208 101.511 29.5594 100.504C29.1893 100.398 28.7662 100.292 28.3432 100.132C24.0601 98.8596 19.6184 98.3823 15.3882 97.905C14.6479 97.7989 13.9076 97.7458 13.1673 97.6398C10.3119 97.3216 7.98529 96.9503 6.34608 95.6244C3.49069 93.2908 3.75508 88.4646 5.6058 85.2824C7.77378 81.5169 11.8454 78.9712 15.3882 76.6906C20.3587 73.5085 26.3339 69.1595 28.1317 63.6968C29.4536 59.6661 29.0835 53.2488 26.9155 40.7853C26.2281 36.8607 26.9155 33.3603 28.7662 31.398C31.0928 28.9583 35.3231 29.1705 39.5004 29.7008C40.981 29.913 42.4616 30.1251 43.8893 30.3903C51.8209 31.7162 60.0169 33.0951 66.5738 25.0867C66.6267 25.0337 66.6267 25.0337 66.6795 24.9807C68.4774 22.4349 69.7993 19.6771 71.0684 16.9722C72.0731 14.8508 72.972 12.8885 74.1353 11.0322C76.3562 7.42579 80.2691 3.71328 84.6051 4.13757C90.0515 4.66793 93.3828 11.4565 94.599 17.6617C94.7576 18.5103 94.9162 19.3589 95.0749 20.2074C96.2911 26.4126 97.613 33.4664 102.954 37.7623C108.77 42.4295 116.543 41.5809 123.364 40.8914C124.105 40.8384 124.845 40.7323 125.532 40.6793C132.195 40.0428 140.074 41.3157 142.242 46.8845C144.357 52.5063 139.651 58.5524 134.998 62.1058Z" fill="#9F895B"/>
<path d="M75.9851 72.7652C70.0628 72.5 63.8233 76.2125 61.4966 81.41C59.593 85.7059 60.2276 90.4261 63.1358 93.7674C65.3038 96.207 68.3179 97.5329 71.5434 97.5329C72.7596 97.5329 73.9758 97.3738 75.2448 96.9495C78.9992 95.7827 82.0132 93.7674 84.0225 91.0625C86.4549 87.8274 87.1952 83.6375 85.979 80.1372C84.3927 75.6822 80.7441 72.9773 75.9851 72.7652ZM80.6384 88.5699C78.7876 91.0625 76.038 92.2824 74.0286 92.9188C71.0675 93.8204 68.2121 93.0779 66.3614 90.9565C64.5107 88.835 64.1405 85.9181 65.4096 83.1602C66.9959 79.6598 71.3319 77.008 75.4563 77.008C75.615 77.008 75.7207 77.008 75.8794 77.008C77.9945 77.1141 80.7441 77.9627 82.0132 81.5691C82.7535 83.7436 82.2247 86.4484 80.6384 88.5699Z" fill="#9F895B"/>
<path d="M29.7174 79.1295C26.9149 79.0234 24.0595 80.7205 22.9491 83.2132C21.9973 85.3347 22.3145 87.6682 23.7951 89.3123C24.8527 90.5322 26.3861 91.1686 27.9725 91.1686C28.5541 91.1686 29.1886 91.0625 29.7703 90.9034C31.4624 90.3731 32.8372 89.4715 33.789 88.1986C34.9523 86.6075 35.3225 84.5391 34.6879 82.7889C33.8948 80.6145 32.044 79.2355 29.7174 79.1295ZM30.4048 85.6529C30.0347 86.1832 29.3473 86.6075 28.5541 86.8197C27.6552 87.0848 27.1793 86.6606 26.9678 86.4484C26.8091 86.2363 26.439 85.7059 26.8091 84.8573C27.1793 84.0088 28.3955 83.2663 29.453 83.2663C29.5059 83.2663 29.5059 83.2663 29.5588 83.2663C30.352 83.3193 30.5635 83.7436 30.7221 84.1148C30.8278 84.6452 30.7221 85.2286 30.4048 85.6529Z" fill="#9F895B"/>
<path d="M119.504 51.5509C116.331 51.3918 113.106 53.248 111.784 55.8998C110.726 58.0743 111.043 60.567 112.524 62.3172C113.74 63.7491 115.485 64.5447 117.336 64.5447C117.97 64.5447 118.658 64.4386 119.345 64.2795C121.249 63.7491 122.835 62.7414 123.893 61.3625C125.267 59.6123 125.69 57.3848 124.95 55.4755C124.157 53.142 122.042 51.657 119.504 51.5509ZM120.614 58.7107C120.085 59.3471 119.239 59.8775 118.182 60.1957C117.018 60.5139 116.172 60.1427 115.749 59.6123C115.485 59.2941 115.115 58.6577 115.591 57.7561C116.12 56.6423 117.706 55.7937 119.134 55.7937C119.186 55.7937 119.239 55.7937 119.292 55.7937C120.508 55.8468 120.879 56.4832 121.037 56.9605C121.249 57.4379 121.09 58.1804 120.614 58.7107Z" fill="#9F895B"/>
<path d="M52.349 75.0988C52.7191 75.0988 53.0893 74.9927 53.4065 74.7806C54.4112 74.1972 54.7285 72.8713 54.1468 71.8636C52.0317 68.2572 52.6134 63.0597 54.3054 59.8245C58.377 51.8161 66.8903 54.2557 67.5777 54.4678C68.3709 54.8391 69.3227 54.68 69.9572 54.0436C70.8033 53.195 70.8033 51.8691 69.9572 51.0205C69.0054 50.0659 64.7752 49.3234 61.2324 49.8537C56.4734 50.5962 52.772 53.3541 50.4982 57.8621C48.3831 62.052 47.4842 68.8936 50.4982 73.985C50.9213 74.7275 51.6616 75.0988 52.349 75.0988Z" fill="#9F895B"/>
<path d="M81.8019 41.315C82.7537 41.315 83.6526 41.1559 84.5515 40.8377C87.6713 39.7239 89.4163 36.86 89.2048 33.2005C89.0461 30.1774 86.4022 26.0937 83.1238 25.2451C80.7443 24.6087 78.0476 25.8815 75.8267 28.6394C72.1781 33.2005 73.8702 36.6478 74.7692 37.9207C76.2497 40.0421 79.0522 41.315 81.8019 41.315ZM79.1051 31.2382C80.2156 29.8062 81.4846 29.1698 82.0134 29.2758C83.2296 29.5941 84.8688 31.8746 84.9745 33.4126C85.0803 35.2159 84.4987 36.3296 83.1767 36.8069C81.5375 37.3903 79.158 36.7009 78.2062 35.375C77.2544 34.1021 78.2062 32.405 79.1051 31.2382Z" fill="#9F895B"/>
<path d="M98.4585 63.3249C93.2765 58.8168 85.7678 57.4379 81.3261 60.2488C80.3214 60.8852 80.057 62.1581 80.6916 63.1658C81.3261 64.1734 82.5952 64.4386 83.5999 63.8022C86.4552 61.999 91.9545 63.2188 95.7088 66.507C97.9297 68.4694 101.261 72.7122 98.2998 79.2356C97.8239 80.2963 98.2998 81.5692 99.3574 82.0465C99.6218 82.1526 99.939 82.2587 100.256 82.2587C101.049 82.2587 101.843 81.7813 102.16 81.0388C105.068 74.5154 103.693 67.886 98.4585 63.3249Z" fill="#9F895B"/>
<path d="M58.6943 103.314C54.6756 103.579 51.1857 106.443 50.2339 110.262C49.4407 113.603 50.8155 116.785 53.8295 118.588C55.3101 119.49 56.9493 119.914 58.5885 119.914C60.6508 119.914 62.6072 119.225 64.1407 117.846C66.7846 115.459 67.7364 111.534 66.4673 108.299C65.1982 105.011 62.2371 103.102 58.6943 103.314ZM61.3382 114.717C59.8576 116.042 57.531 115.83 56.0504 114.929C55.2044 114.451 53.8824 113.285 54.4112 111.216C54.9929 108.936 57.1608 107.61 59.0116 107.504C59.1173 107.504 59.1702 107.504 59.2759 107.504C60.2806 107.504 61.8141 107.875 62.5544 109.837C63.136 111.481 62.6072 113.55 61.3382 114.717Z" fill="#9F895B"/>
<path d="M97.6653 97.7981C95.2858 97.639 93.2236 99.071 92.2718 101.458C91.32 103.95 91.5843 107.451 93.9638 109.36C94.7041 109.943 95.6031 110.368 96.5549 110.474C96.8192 110.527 97.0836 110.527 97.348 110.527C98.7228 110.527 99.9919 109.996 101.049 109.042C102.477 107.716 103.323 105.754 103.217 103.738C103.165 100.662 100.626 98.0103 97.6653 97.7981ZM98.2469 105.913C97.771 106.337 97.2951 106.284 97.1894 106.284C96.9779 106.231 96.8192 106.178 96.6606 106.072C96.0261 105.541 95.8146 104.109 96.2376 102.996C96.6077 102.094 97.0836 101.988 97.2951 101.988C97.348 101.988 97.348 101.988 97.4009 101.988C98.1941 102.041 99.0401 102.996 99.0401 103.95C99.093 104.693 98.7757 105.488 98.2469 105.913Z" fill="#9F895B"/>
<path d="M40.7686 37.3903C38.3891 37.2312 36.3269 38.6632 35.3751 41.0498C34.4233 43.5425 34.6877 47.0428 37.0672 48.9521C37.8074 49.5355 38.7064 49.9598 39.6582 50.0659C39.9226 50.1189 40.1869 50.1189 40.4513 50.1189C41.8262 50.1189 43.0952 49.5886 44.1528 48.6339C45.5805 47.308 46.4265 45.3457 46.3208 43.3834C46.2679 40.2542 43.7297 37.5494 40.7686 37.3903ZM41.3503 45.5048C40.8744 45.9291 40.3985 45.876 40.2927 45.876C40.0812 45.823 39.9226 45.77 39.7639 45.6639C39.1294 45.1335 38.9179 43.7016 39.3409 42.5878C39.711 41.6862 40.1869 41.5801 40.3985 41.5801C40.4513 41.5801 40.4513 41.5801 40.5042 41.5801C41.2974 41.6332 42.1434 42.5878 42.1434 43.5425C42.1963 44.2319 41.879 45.0275 41.3503 45.5048Z" fill="#9F895B"/>
</g>
<defs>
<clipPath id="clip0">
<rect width="147" height="145" fill="white"/>
</clipPath>
</defs>
</svg>
