<svg width="175" height="181" viewBox="0 0 175 181" fill="none" xmlns="http://www.w3.org/2000/svg">
<g clip-path="url(#clip0)">
<path d="M167.827 116.789C167.314 116.675 166.859 116.675 166.347 116.675C163.443 116.675 160.825 118.101 159.231 120.382L138.565 112.227C140.956 106.524 142.436 100.365 142.778 94.0356C146.08 94.0926 148.642 94.1497 150.577 94.1497C152.171 94.1497 153.367 94.1497 154.278 94.0926C154.505 94.6629 154.79 95.2332 155.132 95.7464C156.327 97.4001 158.035 98.5407 160.028 98.8828C160.483 98.9398 160.882 98.9969 161.337 98.9969C165.037 98.9969 168.225 96.3167 168.852 92.667C169.193 90.6711 168.738 88.6182 167.599 86.9644C166.404 85.3107 164.696 84.1702 162.703 83.828C162.248 83.771 161.849 83.7139 161.394 83.7139C157.864 83.7139 154.847 86.109 153.993 89.5306C151.773 89.5876 147.332 89.5876 142.892 89.4735C142.835 85.0255 142.209 80.4635 141.07 76.0155C140.387 73.3352 139.476 70.7691 138.338 68.2599C143.689 66.4921 154.392 62.9565 159.458 60.6185C160.768 62.2722 162.646 63.5268 164.867 63.926C165.379 64.04 165.834 64.04 166.347 64.04C170.559 64.04 174.203 61.0177 174.886 56.8548C175.285 54.5737 174.772 52.2357 173.406 50.3538C172.097 48.472 170.047 47.1604 167.77 46.8182C167.258 46.7042 166.802 46.7042 166.29 46.7042C162.077 46.7042 158.434 49.7265 157.75 53.8894C157.58 54.7448 157.58 55.6572 157.693 56.4556C154.107 58.0523 144.827 61.3598 136.174 64.1541C133.84 60.1052 130.937 56.4556 127.464 53.2621C126.553 52.4068 125.585 51.6084 124.618 50.81C125.756 49.4414 127.863 46.9893 131.677 42.4272C132.303 42.7124 132.986 42.9405 133.669 43.0545C134.125 43.1115 134.523 43.1686 134.979 43.1686C138.679 43.1686 141.867 40.4884 142.493 36.8387C142.835 34.8428 142.38 32.7899 141.241 31.1361C140.045 29.4824 138.338 28.3419 136.345 27.9997C135.89 27.9427 135.491 27.8857 135.036 27.8857C131.335 27.8857 128.147 30.5659 127.521 34.2155C127.236 35.9833 127.521 37.7511 128.375 39.2908C125.699 42.4843 122.397 46.362 120.917 48.0728C115.851 44.7653 110.158 42.3702 104.123 40.9446C102.7 40.6024 101.277 40.3743 99.8535 40.1462C100.48 35.9263 102.301 23.3236 102.928 17.2788C106.97 17.1078 110.385 14.1424 111.069 10.0936C111.467 7.81256 110.955 5.4745 109.588 3.59265C108.279 1.71079 106.23 0.3992 103.952 0.0570448C103.44 -0.0570068 102.985 -0.0570068 102.472 -0.0570068C98.2595 -0.0570068 94.616 2.96536 93.9329 7.12825C93.5344 9.40928 94.0468 11.7473 95.4131 13.6292C96.2101 14.7697 97.2917 15.6821 98.4872 16.3094C97.9749 21.955 95.9823 35.5271 95.3561 39.69C94.9007 39.633 94.4453 39.633 93.9898 39.5759C93.1928 39.5189 92.3958 39.5189 91.5988 39.5189C85.849 39.5189 80.213 40.4313 74.9755 42.2562C74.0077 39.2338 72.6414 35.5271 71.4459 32.6188C72.8122 31.4783 73.78 29.8816 74.0646 28.0567C74.4062 26.0608 73.9508 24.0079 72.8122 22.3541C71.6167 20.7004 69.9088 19.5599 67.9163 19.2177C67.4609 19.1607 67.0624 19.1037 66.6069 19.1037C62.9065 19.1037 59.7185 21.7839 59.0923 25.4335C58.7507 27.4294 59.2061 29.4824 60.3447 31.1361C61.5402 32.7899 63.2481 33.9304 65.2406 34.2725C65.6961 34.3296 66.0946 34.3866 66.55 34.3866C66.7777 34.3866 67.0054 34.3866 67.1762 34.3296C68.3717 37.2949 69.795 41.0586 70.7058 43.9669C69.8519 44.3661 68.9979 44.7653 68.144 45.2215C63.7605 47.5596 59.8893 50.4679 56.5305 53.8324L40.7611 39.1197C41.3304 38.2073 41.7289 37.1809 41.8997 36.0974C42.2982 33.8163 41.7858 31.4783 40.4195 29.5964C39.1102 27.7146 37.0607 26.403 34.7836 26.0608C34.2712 25.9468 33.8158 25.9468 33.3034 25.9468C29.0907 25.9468 25.4472 28.9691 24.7641 33.132C24.3655 35.4131 24.8779 37.7511 26.2442 39.633C27.5536 41.5148 29.603 42.8264 31.8802 43.1686C32.3925 43.2826 32.848 43.2826 33.3603 43.2826C34.8405 43.2826 36.2637 42.8834 37.4592 42.2562L53.5702 57.254C49.8128 61.816 46.9095 67.0624 44.9739 72.879L34.2712 67.8608C34.3281 67.6897 34.3281 67.5186 34.3851 67.4045C34.7266 65.4086 34.2712 63.3557 33.1326 61.702C31.9371 60.0482 30.2292 58.9077 28.2367 58.5655C27.7813 58.5085 27.3828 58.4515 26.9274 58.4515C23.227 58.4515 20.0389 61.1317 19.4127 64.7814C19.0711 66.7773 19.5266 68.8302 20.6652 70.4839C21.8607 72.1377 23.5685 73.2782 25.5611 73.6204C26.0165 73.6774 26.415 73.7344 26.8704 73.7344C28.806 73.7344 30.5708 72.9931 31.9371 71.7955L43.7214 77.3271C42.8106 81.0908 42.2413 85.0255 42.0705 89.0744C41.9566 91.5835 42.0136 94.1497 42.2413 96.6588L17.0217 97.6853C16.737 96.8869 16.3955 96.0886 15.8831 95.4042C14.5737 93.5224 12.5243 92.2108 10.2471 91.8686C9.73477 91.7546 9.27934 91.7546 8.76698 91.7546C4.55422 91.7546 0.910763 94.777 0.227614 98.9398C-0.17089 101.221 0.341472 103.559 1.70777 105.441C3.01714 107.323 5.06659 108.634 7.34375 108.976C7.85611 109.033 8.31154 109.09 8.82391 109.09C12.9228 109.09 16.4524 106.239 17.3063 102.247L42.8675 101.221C43.6645 105.726 44.9169 110.06 46.7387 114.109C46.7956 114.28 46.9095 114.508 47.0233 114.679L36.1499 118.443C36.0929 118.386 36.0929 118.329 36.036 118.272C34.8405 116.618 33.1326 115.477 31.1401 115.135C30.6847 115.078 30.2862 115.021 29.8307 115.021C26.1304 115.021 22.9423 117.701 22.3161 121.351C21.9745 123.347 22.43 125.4 23.5685 127.054C24.7641 128.707 26.4719 129.848 28.4644 130.19C28.9199 130.247 29.3184 130.304 29.7738 130.304C33.4742 130.304 36.6622 127.624 37.2884 123.974C37.3454 123.575 37.4023 123.233 37.4023 122.834L49.1297 118.728C52.4885 124.487 56.8721 129.449 62.1095 133.269L46.2263 150.548C45.5432 150.206 44.8031 149.978 44.0061 149.864C43.4937 149.75 43.0383 149.75 42.5259 149.75C38.3132 149.75 34.6697 152.772 33.9866 156.935C33.5881 159.216 34.1004 161.554 35.4667 163.436C36.7761 165.318 38.8255 166.63 41.1027 166.972C41.6151 167.029 42.0705 167.086 42.5829 167.086C46.7956 167.086 50.4391 164.063 51.1222 159.9C51.5207 157.676 51.0084 155.395 49.7559 153.514L65.8669 135.836C71.389 139.143 77.3665 141.538 83.5149 142.793L80.6115 153.285C76.968 153.342 73.8939 155.966 73.2676 159.615C72.9261 161.611 73.3815 163.664 74.5201 165.318C75.6587 166.972 77.4235 168.112 79.416 168.454C79.8714 168.511 80.2699 168.568 80.7253 168.568C84.4257 168.568 87.6138 165.888 88.24 162.239C88.5816 160.243 88.1261 158.19 86.9875 156.536C86.4183 155.738 85.7351 155.11 84.995 154.597L88.0123 143.534C89.8909 143.762 91.7696 143.876 93.6482 143.876C98.6011 143.876 103.326 143.135 107.71 141.652L113.744 164.577C111.353 165.774 109.531 168.055 109.076 170.906C108.279 175.64 111.41 180.145 116.135 180.943C116.648 181.057 117.103 181.057 117.615 181.057C121.828 181.057 125.472 178.035 126.155 173.872C126.553 171.591 126.041 169.253 124.675 167.371C123.365 165.489 121.316 164.177 119.039 163.835C118.754 163.778 118.469 163.778 118.185 163.721L111.922 139.998C112.833 139.599 113.687 139.143 114.598 138.63C117.103 137.261 119.437 135.721 121.657 134.011L131.677 141.823C131.563 142.165 131.449 142.565 131.392 142.964C131.051 144.96 131.506 147.013 132.645 148.666C133.783 150.32 135.548 151.461 137.541 151.803C137.996 151.86 138.395 151.917 138.85 151.917C142.55 151.917 145.738 149.237 146.365 145.587C146.706 143.591 146.251 141.538 145.112 139.884C143.917 138.231 142.209 137.09 140.216 136.748C139.761 136.691 139.362 136.634 138.907 136.634C137.199 136.634 135.662 137.204 134.409 138.117L125.301 130.988C125.756 130.589 126.212 130.133 126.667 129.734C130.709 125.799 134.011 121.294 136.573 116.447L157.637 124.773C157.466 126.768 158.035 128.764 159.174 130.475C160.483 132.357 162.532 133.669 164.81 134.011C165.322 134.125 165.777 134.125 166.29 134.125C170.503 134.125 174.146 131.102 174.829 126.94C175.228 124.658 174.715 122.32 173.349 120.439C172.097 118.443 170.104 117.188 167.827 116.789ZM158.377 90.8422C158.661 89.3595 159.914 88.276 161.394 88.276C161.565 88.276 161.735 88.276 161.906 88.333C163.557 88.6182 164.696 90.2149 164.411 91.8686C164.126 93.3513 162.874 94.4348 161.394 94.4348C161.223 94.4348 161.052 94.4348 160.882 94.3778C159.174 94.0926 158.035 92.4959 158.377 90.8422ZM162.248 54.6308C162.589 52.6349 164.354 51.2092 166.29 51.2092C166.517 51.2092 166.745 51.2092 167.03 51.2662C169.25 51.6654 170.787 53.7754 170.389 56.0564C170.047 58.0523 168.282 59.478 166.347 59.478C166.119 59.478 165.891 59.478 165.607 59.4209C164.354 59.1928 163.329 58.4515 162.76 57.425C162.76 56.9688 162.589 56.4556 162.248 56.0564C162.191 55.6572 162.191 55.144 162.248 54.6308ZM132.018 35.0709C132.303 33.5882 133.556 32.5047 135.036 32.5047C135.206 32.5047 135.377 32.5047 135.548 32.5618C137.199 32.8469 138.338 34.4436 138.053 36.0974C137.768 37.58 136.516 38.6635 135.036 38.6635C134.865 38.6635 134.694 38.6635 134.523 38.6065C134.182 38.5495 133.897 38.4354 133.556 38.2644C133.442 37.9792 133.214 37.6941 132.929 37.466C132.759 37.2949 132.531 37.1809 132.36 37.1238C132.018 36.5536 131.905 35.8122 132.018 35.0709ZM98.4303 7.98364C98.7719 5.98773 100.537 4.56209 102.472 4.56209C102.7 4.56209 102.928 4.56209 103.212 4.61911C105.49 5.01829 106.97 7.12825 106.571 9.40928C106.23 11.4052 104.465 12.8308 102.529 12.8308C102.301 12.8308 102.074 12.8308 101.789 12.7738C99.5689 12.3746 98.0318 10.2647 98.4303 7.98364ZM63.5328 26.2889C63.8174 24.8063 65.0698 23.7228 66.55 23.7228C66.7208 23.7228 66.8916 23.7228 67.0624 23.7798C68.7133 24.0649 69.8519 25.6616 69.5672 27.3154C69.2826 28.7981 68.0302 29.8816 66.55 29.8816C66.3792 29.8816 66.2084 29.8816 66.0376 29.8245C64.3867 29.5394 63.2481 27.9427 63.5328 26.2889ZM26.8135 69.1153C26.6427 69.1153 26.4719 69.1153 26.3011 69.0583C24.6502 68.7732 23.5116 67.1765 23.7963 65.5227C24.0809 64.04 25.3333 62.9565 26.8135 62.9565C26.9843 62.9565 27.1551 62.9565 27.3259 63.0136C28.9768 63.2987 30.1154 64.8954 29.8307 66.5492C29.5461 68.0889 28.2937 69.1153 26.8135 69.1153ZM12.752 101.05C12.4104 103.046 10.6456 104.471 8.71005 104.471C8.48233 104.471 8.25461 104.471 7.96997 104.414C5.74973 104.015 4.21265 101.905 4.61115 99.6241C4.95273 97.6282 6.71753 96.2026 8.65312 96.2026C8.88083 96.2026 9.10855 96.2026 9.3932 96.2596C11.6704 96.6588 13.1505 98.7688 12.752 101.05ZM32.6772 123.176C32.3925 124.658 31.1401 125.742 29.66 125.742C29.4892 125.742 29.3184 125.742 29.1476 125.685C27.4966 125.4 26.3581 123.803 26.6427 122.149C26.9274 120.667 28.1798 119.583 29.66 119.583C29.8307 119.583 30.0015 119.583 30.1723 119.64C31.8802 119.868 32.9618 121.465 32.6772 123.176ZM83.7426 161.383C83.4579 162.866 82.2055 163.949 80.7253 163.949C80.5546 163.949 80.3838 163.949 80.213 163.892C78.562 163.607 77.4235 162.01 77.7081 160.357C77.9928 158.874 79.2452 157.791 80.7253 157.791C80.8961 157.791 81.0669 157.79 81.2377 157.848C82.9456 158.133 84.0272 159.672 83.7426 161.383ZM121.714 173.016C121.373 175.012 119.608 176.438 117.672 176.438C117.445 176.438 117.217 176.438 116.932 176.381C114.712 175.982 113.175 173.872 113.573 171.591C113.915 169.595 115.68 168.169 117.615 168.169C117.843 168.169 118.071 168.169 118.355 168.226C120.633 168.625 122.113 170.735 121.714 173.016ZM138.907 141.139C139.078 141.139 139.248 141.139 139.419 141.196C141.07 141.481 142.209 143.078 141.924 144.732C141.639 146.214 140.387 147.298 138.907 147.298C138.736 147.298 138.565 147.298 138.395 147.241C136.744 146.956 135.605 145.359 135.89 143.705C136.174 142.165 137.484 141.139 138.907 141.139ZM32.6203 38.6635C30.4 38.2644 28.8629 36.1544 29.2614 33.8734C29.603 31.8775 31.3678 30.4518 33.3034 30.4518C33.5311 30.4518 33.7588 30.4518 34.0435 30.5088C36.3207 30.908 37.8008 33.018 37.4023 35.299C37.0607 37.2949 35.2959 38.7206 33.3603 38.7206C33.1326 38.7206 32.9049 38.7206 32.6203 38.6635ZM46.6248 159.102C46.2832 161.098 44.5184 162.524 42.5829 162.524C42.3551 162.524 42.1274 162.524 41.8428 162.467C39.6225 162.067 38.0855 159.957 38.484 157.676C38.8255 155.681 40.5903 154.255 42.5259 154.255C42.7536 154.255 42.9814 154.255 43.266 154.312C43.7214 154.369 44.1199 154.54 44.4615 154.711C44.5754 154.939 44.7462 155.167 44.9169 155.338C45.1447 155.566 45.4862 155.738 45.7709 155.795C46.511 156.707 46.8525 157.905 46.6248 159.102ZM123.479 126.426C120.234 129.563 116.591 132.3 112.435 134.581C106.571 137.831 100.138 139.257 93.6482 139.257C83.6857 139.257 73.6092 135.836 65.4683 130.19C52.2608 121.066 45.8278 105.042 46.511 89.2455C47.251 72.4228 55.2211 57.368 70.3643 49.2703C76.8542 45.7918 84.2549 44.138 91.5988 44.138C92.3389 44.138 93.079 44.138 93.7621 44.195C96.8932 44.3091 100.081 44.7653 103.155 45.4496C119.38 49.1563 132.417 60.7896 136.63 77.156C137.768 81.547 138.338 86.109 138.338 90.557C138.167 90.8422 138.053 91.2414 138.053 91.5835C138.053 91.9827 138.167 92.3248 138.281 92.667C137.711 105.27 132.759 117.416 123.479 126.426ZM170.389 126.084C170.047 128.08 168.282 129.506 166.347 129.506C166.119 129.506 165.891 129.506 165.607 129.449C163.386 129.049 161.849 126.94 162.248 124.658C162.589 122.663 164.354 121.237 166.29 121.237C166.517 121.237 166.745 121.237 167.03 121.294C169.307 121.693 170.787 123.803 170.389 126.084Z" fill="#9F895B"/>
<path d="M71.7874 67.6326C71.9013 67.6326 72.0151 67.6326 72.129 67.6326C73.3814 67.4616 74.2354 66.264 74.0076 65.0094C73.8369 63.926 75.1462 61.3598 77.8788 59.592C79.5298 58.5655 82.7747 57.0829 86.0766 59.2498C87.1013 59.9342 88.5246 59.649 89.2077 58.5655C89.8909 57.5391 89.6062 56.1134 88.5246 55.4291C84.5965 52.8629 79.7006 52.977 75.3739 55.7142C71.3889 58.2804 68.941 62.3863 69.4533 65.6938C69.738 66.8343 70.7058 67.6326 71.7874 67.6326Z" fill="#9F895B"/>
<path d="M112.606 60.7895C111.41 60.1052 109.93 59.7631 108.222 59.8201C104.579 59.9341 100.935 61.759 98.7718 64.6103C97.007 66.8913 96.3808 69.5145 97.1208 71.6244C97.7471 73.3922 99.2272 74.6468 101.334 75.16C102.244 75.3882 103.155 75.5022 104.123 75.5022C107.14 75.5022 110.158 74.3617 112.378 72.3088C113.573 71.2253 114.484 69.7426 114.997 68.2029C116.078 65.0094 115.11 62.2152 112.606 60.7895ZM110.727 66.6632C110.442 67.4616 109.93 68.3169 109.304 68.8872C107.539 70.541 104.806 71.2253 102.415 70.655C102.017 70.541 101.561 70.3699 101.447 70.0847C101.277 69.5715 101.561 68.545 102.415 67.4045C103.782 65.6367 106.059 64.4962 108.45 64.4392C108.507 64.4392 108.621 64.4392 108.677 64.4392C109.418 64.4392 109.987 64.5532 110.385 64.7813C110.613 64.8954 111.182 65.2376 110.727 66.6632Z" fill="#9F895B"/>
<path d="M92.7373 112.455C91.4848 112.341 90.3462 113.253 90.2324 114.508C90.0047 116.903 87.7275 119.298 84.4256 120.496C81.0099 121.75 75.7724 121.921 72.072 118.329C71.1611 117.473 69.7379 117.473 68.8271 118.386C67.9731 119.298 67.9731 120.724 68.884 121.636C71.7304 124.43 75.7155 125.913 79.8144 125.913C81.8638 125.913 83.9702 125.571 85.9627 124.83C90.9725 123.005 94.3313 119.184 94.7298 115.021C94.9006 113.652 93.9897 112.569 92.7373 112.455Z" fill="#9F895B"/>
<path d="M76.1711 90.2719C76.3419 87.7628 75.5449 85.4247 73.9509 83.6569C71.5029 80.9767 68.201 79.9503 64.7853 80.9767C60.4017 82.2313 56.5306 86.6223 55.7335 91.1273C55.1643 94.5489 56.3598 97.6853 59.1493 99.6812C60.6864 100.765 62.3943 101.278 64.1591 101.278C67.1194 101.278 70.0797 99.9093 72.1861 98.1415C74.5202 96.1456 76.0003 93.2373 76.1711 90.2719ZM71.6168 89.9868C71.5029 91.6976 70.592 93.4654 69.2257 94.6059C67.0624 96.4307 63.8744 97.4572 61.768 95.9745C60.4017 94.9481 59.8894 93.6365 60.174 91.9257C60.6864 89.0744 63.3051 86.1661 66.0377 85.3677C66.4931 85.2537 66.9486 85.1396 67.404 85.1396C68.5995 85.1396 69.6243 85.6528 70.592 86.6793C71.5598 87.8198 71.6737 89.0744 71.6168 89.9868Z" fill="#9F895B"/>
<path d="M120.006 88.162C117.217 89.2454 115.281 91.9827 115.338 94.7769C115.395 97.4572 116.818 99.5101 119.266 100.365C120.063 100.651 120.974 100.822 121.885 100.822C124.39 100.822 127.066 99.7382 128.66 97.9134C130.652 95.5753 130.937 92.8951 129.4 90.7281C127.578 87.9909 123.365 86.8504 120.006 88.162ZM125.244 94.891C124.333 95.9745 122.17 96.5447 120.86 96.0885C120.348 95.9175 119.949 95.5753 119.949 94.6629C119.949 93.8075 120.69 92.781 121.657 92.4389C123.194 91.8686 125.13 92.4389 125.756 93.2943C125.87 93.4654 126.155 93.8645 125.244 94.891Z" fill="#9F895B"/>
<path d="M97.5764 83.2007C95.9824 82.6304 93.0221 81.8891 90.8019 82.9155C89.6633 83.4858 89.2078 84.7974 89.7771 85.9379C90.3464 87.0784 91.6558 87.5346 92.7944 87.0214C93.136 86.8503 94.4453 86.9074 96.0963 87.4776C101.106 89.2454 104.977 94.2637 105.091 99.1679C105.091 99.8522 105.091 100.594 104.863 101.05C104.351 102.19 104.806 103.559 105.945 104.072C106.287 104.243 106.571 104.3 106.913 104.3C107.767 104.3 108.564 103.844 108.962 102.989C109.588 101.62 109.645 100.194 109.645 98.9968C109.475 92.2678 104.408 85.5958 97.5764 83.2007Z" fill="#9F895B"/>
<path d="M104.009 119.64C100.992 119.184 98.0886 121.066 96.8931 124.145C95.7545 127.054 96.6085 130.019 99.0564 131.616C100.138 132.357 101.391 132.699 102.643 132.699C103.725 132.699 104.806 132.414 105.888 131.901C108.108 130.76 109.531 128.65 109.645 126.312C109.645 125.97 109.645 125.685 109.588 125.343C109.19 122.492 106.913 120.096 104.009 119.64ZM103.782 127.909C103.497 128.08 102.472 128.479 101.561 127.909C100.707 127.339 100.935 126.369 101.106 125.856C101.447 125.001 102.188 124.202 103.098 124.202C103.155 124.202 103.269 124.202 103.326 124.202C104.123 124.316 104.92 125.115 104.977 125.913C104.977 126.027 104.977 126.084 104.977 126.198C105.034 126.997 104.351 127.567 103.782 127.909Z" fill="#9F895B"/>
</g>
<defs>
<clipPath id="clip0">
<rect width="175" height="181" fill="white"/>
</clipPath>
</defs>
</svg>
