<svg width="171" height="175" viewBox="0 0 171 175" fill="none" xmlns="http://www.w3.org/2000/svg">
<path d="M60.5669 133.921C54.3219 133.921 48.4512 131.487 44.0306 127.063C39.61 122.639 37.1775 116.764 37.1775 110.515C37.1775 104.265 39.61 98.39 44.0306 93.9661L93.6512 44.3088C98.0718 39.885 103.943 37.4507 110.188 37.4507C116.433 37.4507 122.303 39.885 126.724 44.3088C131.144 48.7327 133.577 54.6078 133.577 60.8574C133.577 67.1069 131.144 72.982 126.724 77.4059L77.1032 127.063C72.6943 131.487 66.8119 133.921 60.5669 133.921ZM110.188 43.3024C105.498 43.3024 101.101 45.1281 97.7794 48.4401L48.1705 98.0974C44.8609 101.409 43.0365 105.822 43.0365 110.515C43.0365 115.208 44.8609 119.608 48.1705 122.932C51.4801 126.244 55.889 128.07 60.5786 128.07C65.2682 128.07 69.6654 126.244 72.9867 122.932L122.607 73.2746C125.917 69.9626 127.741 65.5504 127.741 60.8574C127.741 56.1643 125.917 51.7639 122.607 48.4401C119.274 45.1281 114.865 43.3024 110.188 43.3024Z" fill="#9F895B"/>
<path d="M51.7959 113.44C50.182 113.44 48.8722 112.13 48.8722 110.515C48.8722 107.39 50.0884 104.452 52.2988 102.24C53.4448 101.093 55.2926 101.093 56.4387 102.24C57.5848 103.387 57.5848 105.236 56.4387 106.383C55.3277 107.495 54.7196 108.958 54.7196 110.526C54.7196 112.13 53.4098 113.44 51.7959 113.44Z" fill="#9F895B"/>
<path d="M60.5669 122.218C57.4444 122.218 54.509 121.001 52.2987 118.789C51.1526 117.642 51.1526 115.793 52.2987 114.646C53.4448 113.499 55.2926 113.499 56.4386 114.646C57.5379 115.746 59.0115 116.355 60.5669 116.355C62.134 116.355 63.5958 115.746 64.7068 114.634C65.8529 113.487 67.7006 113.499 68.8467 114.634C69.9928 115.781 69.9811 117.63 68.8467 118.777C66.6247 121.001 63.6893 122.218 60.5669 122.218Z" fill="#9F895B"/>
<path d="M116.386 69.9977C115.637 69.9977 114.889 69.7168 114.316 69.1433C113.17 67.9964 113.17 66.1473 114.316 65.0003C116.596 62.7182 116.596 59.0082 114.316 56.7261C113.17 55.5792 113.17 53.73 114.316 52.5831C115.462 51.4362 117.31 51.4362 118.456 52.5831C123.017 57.1474 123.017 64.579 118.456 69.1433C117.883 69.7051 117.134 69.9977 116.386 69.9977Z" fill="#9F895B"/>
<path d="M22.524 150.025C22.3252 150.025 22.1264 150.025 21.9276 150.013C18.197 149.861 15.7762 148.281 15.5072 148.094L18.7934 143.261C18.7934 143.261 18.7817 143.249 18.7583 143.237C18.77 143.249 20.2202 144.15 22.4422 144.173C22.4656 144.173 22.4889 144.173 22.5123 144.173C25.5296 144.173 28.5819 142.605 31.5874 139.504C35.7157 135.255 36.9436 132.575 38.0312 130.211C39.2358 127.59 40.3701 125.12 44.5452 122.511C45.9134 121.656 47.7144 122.066 48.5798 123.435C49.4335 124.804 49.0242 126.607 47.656 127.473C44.9662 129.158 44.4282 130.328 43.364 132.657C42.2062 135.174 40.6274 138.614 35.8092 143.588C32.9089 146.561 28.3012 150.025 22.524 150.025Z" fill="#9F895B"/>
<path d="M62.2159 175L58.9179 170.167C58.9179 170.167 58.9063 170.178 58.8829 170.19C59.1752 169.979 65.8529 164.888 59.9471 150.973C56.2399 142.254 56.1931 135.045 56.8012 130.527C57.0234 128.924 58.4969 127.8 60.0874 128.023C61.6896 128.245 62.8123 129.72 62.5901 131.311C62.0755 135.103 62.134 141.189 65.315 148.679C67.0575 152.775 68.0164 156.661 68.1919 160.23C68.3322 163.215 67.9112 165.988 66.9639 168.47C65.2916 172.8 62.5316 174.789 62.2159 175Z" fill="#9F895B"/>
<path d="M106.048 146.537C105.054 146.537 104.083 146.023 103.533 145.11C103.171 144.501 102.878 144.326 99.4401 144.864C95.6159 145.461 89.8504 146.362 83.6522 141.844C78.7054 138.228 76.2612 132.833 76.612 126.232C76.8576 121.492 78.4949 117.759 78.565 117.607C79.2199 116.132 80.9508 115.465 82.4243 116.12C83.8978 116.776 84.5644 118.496 83.9095 119.971C83.8861 120.029 82.5997 123.025 82.436 126.7C82.2372 131.218 83.8043 134.729 87.0905 137.116C91.324 140.206 94.9844 139.632 98.5279 139.082C100.259 138.813 101.896 138.556 103.51 138.766C105.708 139.059 107.404 140.194 108.55 142.125C109.381 143.518 108.913 145.309 107.533 146.14C107.077 146.409 106.562 146.537 106.048 146.537Z" fill="#9F895B"/>
<path d="M122.584 138.263C121.929 138.263 121.274 138.053 120.736 137.608C113.497 131.698 111.638 126.618 110 122.136C108.983 119.351 108.106 116.951 105.931 114.529C103.802 112.141 101.148 110.538 98.0601 109.754C95.6744 109.145 93.9085 109.286 93.8851 109.286H93.9085L93.3705 103.457C93.7682 103.422 103.147 102.65 110.293 110.62C113.205 113.873 114.374 117.045 115.497 120.111C117.017 124.254 118.444 128.163 124.443 133.067C125.695 134.085 125.882 135.934 124.853 137.187C124.28 137.9 123.438 138.263 122.584 138.263Z" fill="#9F895B"/>
<path d="M135.086 113.873C134.279 113.873 133.378 113.827 132.431 113.721C126.888 113.089 121.999 110.503 118.304 106.219C109.638 96.2014 111.357 85.6333 111.427 85.1886L117.193 86.1834V86.1717C117.193 86.1951 116.865 88.3134 117.392 91.368C118.093 95.4056 119.883 99.1156 122.724 102.404C129.308 110.011 138.278 107.718 138.36 107.694C139.916 107.273 141.518 108.209 141.939 109.766C142.36 111.322 141.424 112.926 139.869 113.347C139.635 113.405 137.787 113.873 135.086 113.873Z" fill="#9F895B"/>
<path d="M87.3127 57.7092C86.9151 57.7092 86.5175 57.6272 86.1316 57.4517C84.658 56.7963 83.9914 55.0759 84.6463 53.6013C84.6814 53.5194 85.9561 50.535 86.1199 46.8719C86.3187 42.3544 84.7516 38.8434 81.4654 36.4559C77.2319 33.3662 73.5714 33.9397 70.0279 34.4898C68.2971 34.7589 66.6598 35.0164 65.046 34.8057C62.8473 34.5132 61.1516 33.3779 60.0055 31.4469C59.1752 30.0542 59.643 28.2636 61.023 27.4326C62.4146 26.6017 64.2039 27.0698 65.0343 28.4508C65.3968 29.0594 65.6892 29.235 69.1274 28.6966C72.9516 28.0997 78.7171 27.1986 84.9153 31.7161C89.8622 35.3324 92.3064 40.7276 91.9555 47.3283C91.7099 52.0682 90.0727 55.8015 90.0025 55.9537C89.4996 57.0655 88.4354 57.7092 87.3127 57.7092Z" fill="#9F895B"/>
<path d="M74.1912 70.1498C71.5365 70.1498 64.1455 69.5061 58.263 62.9406C55.3511 59.687 54.1816 56.5154 53.0589 53.4491C51.5386 49.3062 50.1118 45.3973 44.1124 40.4936C42.8611 39.4754 42.674 37.6262 43.7031 36.374C44.7206 35.1217 46.5683 34.9345 47.8197 35.9644C55.0587 41.8745 56.9181 46.9538 58.5554 51.4362C59.5728 54.2216 60.4499 56.6208 62.6252 59.0433C64.7536 61.4308 67.4083 63.0342 70.4957 63.8183C72.8814 64.4269 74.6473 64.2864 74.6707 64.2864H74.6473L75.1853 70.1147C75.1034 70.1147 74.7526 70.1498 74.1912 70.1498Z" fill="#9F895B"/>
<path d="M53.1174 92.3978L47.3519 91.403V91.4147C47.3519 91.3913 47.6793 89.273 47.1531 86.2185C46.4514 82.1808 44.6621 78.4709 41.8203 75.1822C35.2362 67.5751 26.2663 69.8689 26.1845 69.8923C24.6291 70.3137 23.0269 69.3774 22.6059 67.8209C22.1849 66.2643 23.1204 64.661 24.6758 64.2396C25.0033 64.146 28.0205 63.397 32.1137 63.8534C37.657 64.4854 42.5454 67.0718 46.2409 71.3553C54.9067 81.3733 53.1876 91.9414 53.1174 92.3978Z" fill="#9F895B"/>
<path d="M160.533 82.2628C156.756 82.2628 152.955 79.8519 149.225 75.0769C146.827 71.9989 144.172 70.3956 141.108 70.1732C134.782 69.7051 128.806 75.3344 128.735 75.3929C127.566 76.5164 125.718 76.4696 124.607 75.311C123.496 74.1523 123.531 72.2915 124.689 71.168C125.005 70.8637 132.56 63.7012 141.494 64.3332C146.242 64.6726 150.394 67.0718 153.832 71.4723C156.499 74.8779 159.013 76.6217 160.919 76.3877C163.223 76.0951 165.024 72.9469 165.387 72.116C166.03 70.6296 167.749 69.9508 169.234 70.5945C170.719 71.2382 171.398 72.9586 170.754 74.4449C170.45 75.1588 167.574 81.4435 161.668 82.1925C161.293 82.2394 160.908 82.2628 160.533 82.2628Z" fill="#9F895B"/>
<path d="M30.3828 107.086C30.0086 107.086 29.6344 107.074 29.2601 107.05C24.5121 106.711 20.3605 104.312 16.9222 99.9114C14.2675 96.5057 11.7532 94.7619 9.84693 94.996C7.61325 95.2769 5.82396 98.2612 5.36787 99.2794V99.2677L0 96.9387C0.304062 96.2248 3.18096 89.9401 9.08678 89.1911C13.2384 88.6528 17.4251 91.052 21.5299 96.3068C23.939 99.3964 26.6054 101 29.6694 101.21C32.9206 101.445 36.0898 100.028 38.1715 98.7996C40.487 97.442 41.9957 96.0025 42.0074 95.9908C43.1768 94.8672 45.0246 94.9024 46.1356 96.0727C47.2583 97.243 47.2232 99.0921 46.0537 100.204C45.7497 100.497 38.8147 107.086 30.3828 107.086Z" fill="#9F895B"/>
<path d="M124.654 49.3061C123.613 49.3061 122.619 48.7561 122.081 47.7847C121.309 46.3686 121.824 44.5897 123.239 43.8173C125.742 42.448 132.595 37.8252 134.29 33.0034C135.425 29.785 137.647 26.1687 140.886 22.248C143.249 19.4041 145.283 17.4497 145.365 17.3678C146.535 16.2559 148.383 16.3027 149.494 17.4731C150.605 18.6434 150.558 20.4925 149.388 21.6044C149.365 21.6161 147.47 23.4301 145.33 26.0282C142.594 29.3403 140.676 32.4182 139.799 34.9345C138.594 38.3518 135.893 41.7692 131.741 45.0695C128.782 47.4336 126.151 48.8848 126.034 48.9433C125.613 49.1891 125.133 49.3061 124.654 49.3061Z" fill="#9F895B"/>
<path d="M112.585 43.513C112.059 43.513 111.521 43.3726 111.041 43.0683C109.673 42.2139 109.252 40.4116 110.106 39.0423C112.035 35.9409 113.252 32.9683 113.719 30.2297C114.316 26.7655 113.719 23.7929 111.907 21.1245C103.136 8.29766 105.077 0.80753 105.323 0L110.913 1.72039C110.913 1.72039 110.924 1.69698 110.936 1.65017C110.936 1.66187 110.597 3.05457 111.111 5.69952C112 10.2287 114.655 14.793 116.737 17.8359C119.415 21.7565 120.339 26.274 119.485 31.2362C118.888 34.7238 117.403 38.3869 115.076 42.132C114.515 43.0215 113.556 43.513 112.585 43.513Z" fill="#9F895B"/>
</svg>
